<?xml version="1.0" encoding="UTF-8" standalone="no"?>
<!-- Created with Inkscape (http://www.inkscape.org/) -->

<svg
   version="1.1"
   id="svg2"
   width="5480.3198"
   height="1133.8586"
   viewBox="0 0 5480.3198 1133.8586"
   sodipodi:docname="ARISLogoSlo.ai"
   xmlns:inkscape="http://www.inkscape.org/namespaces/inkscape"
   xmlns:sodipodi="http://sodipodi.sourceforge.net/DTD/sodipodi-0.dtd"
   xmlns="http://www.w3.org/2000/svg"
   xmlns:svg="http://www.w3.org/2000/svg">
  <defs
     id="defs6">
    <clipPath
       clipPathUnits="userSpaceOnUse"
       id="clipPath16">
      <path
         d="M 0,0 H 4110.236 V 850.393 H 0 Z"
         id="path14" />
    </clipPath>
    <clipPath
       clipPathUnits="userSpaceOnUse"
       id="clipPath28">
      <path
         d="M 0,0 H 4110.236 V 850.393 H 0 Z"
         id="path26" />
    </clipPath>
    <clipPath
       clipPathUnits="userSpaceOnUse"
       id="clipPath50">
      <path
         d="M 0,0 H 4110.236 V 850.393 H 0 Z"
         id="path48" />
    </clipPath>
  </defs>
  <sodipodi:namedview
     id="namedview4"
     pagecolor="#ffffff"
     bordercolor="#000000"
     borderopacity="0.25"
     inkscape:showpageshadow="2"
     inkscape:pageopacity="0.0"
     inkscape:pagecheckerboard="0"
     inkscape:deskcolor="#d1d1d1" />
  <g
     id="g8"
     inkscape:groupmode="layer"
     inkscape:label="ARISLogoSlo"
     transform="matrix(1.3333333,0,0,-1.3333333,0,1133.8587)">
    <g
       id="g10">
      <g
         id="g12"
         clip-path="url(#clipPath16)">
        <g
           id="g18"
           transform="translate(1750.7422,245.0519)">
          <path
             d="m 0,0 v -77.659 c 0,-2.88 -0.233,-5.41 -0.701,-7.59 -0.467,-2.181 -1.265,-4.088 -2.394,-5.723 -1.129,-1.634 -2.589,-3.016 -4.379,-4.145 -1.791,-1.129 -4.009,-2.083 -6.656,-2.862 l 2.335,-7.473 c 3.971,1.168 7.279,2.568 9.926,4.204 2.647,1.635 4.769,3.581 6.365,5.839 1.596,2.258 2.725,4.904 3.387,7.94 0.661,3.037 0.992,6.54 0.992,10.511 L 8.875,0 Z m 35.735,-35.618 c 2.958,1.713 5.742,2.959 8.349,3.737 2.609,0.778 5.586,1.168 8.935,1.168 2.646,0 4.807,-0.233 6.481,-0.691 1.673,-0.467 2.997,-1.245 3.97,-2.365 0.973,-1.109 1.635,-2.569 1.986,-4.379 0.35,-1.81 0.525,-4.019 0.525,-6.627 v -5.206 c -1.869,0.388 -3.601,0.7 -5.197,0.933 -1.596,0.235 -3.523,0.351 -5.781,0.351 -3.503,0 -6.714,-0.312 -9.634,-0.935 -2.919,-0.632 -5.45,-1.702 -7.591,-3.221 -2.141,-1.528 -3.815,-3.522 -5.021,-5.975 -1.207,-2.462 -1.81,-5.567 -1.81,-9.313 0,-5.469 1.401,-9.654 4.204,-12.545 2.803,-2.889 7.202,-4.33 13.196,-4.33 7.552,0 13.352,2.413 17.401,7.241 h 0.583 c 0.312,-4.828 3.114,-7.241 8.408,-7.241 1.324,0 2.453,0.117 3.387,0.341 0.935,0.234 1.83,0.545 2.686,0.924 l -1.168,6.092 c -0.778,-0.311 -1.635,-0.467 -2.569,-0.467 -1.09,0 -1.81,0.292 -2.16,0.876 -0.351,0.584 -0.526,1.625 -0.526,3.104 v 30.782 c 0,3.504 -0.331,6.53 -0.993,9.07 -0.661,2.53 -1.79,4.622 -3.386,6.257 -1.596,1.636 -3.679,2.842 -6.248,3.63 -2.569,0.779 -5.761,1.168 -9.576,1.168 -3.737,0 -7.299,-0.438 -10.686,-1.304 -3.386,-0.866 -6.714,-2.297 -9.984,-4.272 z m 6.423,-39.987 c -1.713,1.605 -2.57,4.204 -2.57,7.804 0,4.779 1.441,8.01 4.322,9.694 2.88,1.683 6.889,2.52 12.028,2.52 1.946,0 3.737,-0.098 5.372,-0.292 1.635,-0.195 3.191,-0.487 4.671,-0.886 v -12.437 c -1.869,-2.433 -4.029,-4.506 -6.481,-6.228 -2.453,-1.722 -5.625,-2.579 -9.518,-2.579 -3.503,0 -6.111,0.798 -7.824,2.404 m 73.221,-0.185 h -0.467 l -16.116,51.149 h -8.525 l 19.152,-58.973 h 10.978 l 19.268,58.973 h -8.058 z m 85.483,-7.824 v 40.289 c 0,3.192 -0.253,6.033 -0.758,8.525 -0.507,2.491 -1.402,4.593 -2.687,6.306 -1.284,1.713 -2.978,3.016 -5.08,3.912 -2.102,0.895 -4.749,1.343 -7.941,1.343 -4.749,0 -8.875,-1.032 -12.378,-3.095 -3.504,-2.062 -6.384,-4.573 -8.642,-7.532 h -0.584 v 9.225 h -7.591 v -58.973 h 8.408 v 41.223 c 2.959,4.282 6.034,7.299 9.226,9.05 3.192,1.752 6.384,2.628 9.576,2.628 3.582,0 6.151,-1.051 7.708,-3.153 1.557,-2.102 2.335,-5.8 2.335,-11.094 v -38.654 z m 24.992,47.996 c 2.958,1.713 5.741,2.959 8.349,3.737 2.609,0.778 5.587,1.168 8.934,1.168 2.647,0 4.807,-0.233 6.481,-0.691 1.674,-0.467 2.998,-1.245 3.971,-2.365 0.973,-1.109 1.635,-2.569 1.985,-4.379 0.35,-1.81 0.526,-4.019 0.526,-6.627 v -5.206 c -1.869,0.388 -3.601,0.7 -5.197,0.933 -1.596,0.235 -3.523,0.351 -5.781,0.351 -3.503,0 -6.715,-0.312 -9.634,-0.935 -2.92,-0.632 -5.45,-1.702 -7.591,-3.221 -2.141,-1.528 -3.815,-3.522 -5.022,-5.975 -1.206,-2.462 -1.81,-5.567 -1.81,-9.313 0,-5.469 1.402,-9.654 4.205,-12.545 2.802,-2.889 7.201,-4.33 13.196,-4.33 7.552,0 13.352,2.413 17.4,7.241 h 0.584 c 0.311,-4.828 3.114,-7.241 8.408,-7.241 1.324,0 2.453,0.117 3.387,0.341 0.934,0.234 1.829,0.545 2.686,0.924 l -1.168,6.092 c -0.779,-0.311 -1.635,-0.467 -2.569,-0.467 -1.09,0 -1.81,0.292 -2.161,0.876 -0.35,0.584 -0.525,1.625 -0.525,3.104 v 30.782 c 0,3.504 -0.331,6.53 -0.993,9.07 -0.661,2.53 -1.79,4.622 -3.387,6.257 -1.595,1.636 -3.678,2.842 -6.247,3.63 -2.569,0.779 -5.761,1.168 -9.576,1.168 -3.737,0 -7.299,-0.438 -10.685,-1.304 -3.387,-0.866 -6.716,-2.297 -9.985,-4.272 z m 6.422,-39.987 c -1.713,1.605 -2.569,4.204 -2.569,7.804 0,4.779 1.44,8.01 4.321,9.694 2.881,1.683 6.89,2.52 12.029,2.52 1.946,0 3.736,-0.098 5.371,-0.292 1.635,-0.195 3.192,-0.487 4.672,-0.886 v -12.437 c -1.869,-2.433 -4.029,-4.506 -6.482,-6.228 -2.452,-1.722 -5.625,-2.579 -9.517,-2.579 -3.504,0 -6.112,0.798 -7.825,2.404 m 92.841,39.987 c 2.958,1.713 5.742,2.959 8.35,3.737 2.608,0.778 5.586,1.168 8.933,1.168 2.647,0 4.808,-0.233 6.482,-0.691 1.674,-0.467 2.997,-1.245 3.97,-2.365 0.974,-1.109 1.635,-2.569 1.985,-4.379 0.351,-1.81 0.526,-4.019 0.526,-6.627 v -5.206 c -1.868,0.388 -3.601,0.7 -5.196,0.933 -1.597,0.235 -3.523,0.351 -5.781,0.351 -3.504,0 -6.715,-0.312 -9.635,-0.935 -2.919,-0.632 -5.449,-1.702 -7.59,-3.221 -2.141,-1.528 -3.815,-3.522 -5.022,-5.975 -1.207,-2.462 -1.81,-5.567 -1.81,-9.313 0,-5.469 1.401,-9.654 4.204,-12.545 2.803,-2.889 7.201,-4.33 13.196,-4.33 7.552,0 13.352,2.413 17.4,7.241 h 0.584 c 0.312,-4.828 3.115,-7.241 8.409,-7.241 1.323,0 2.452,0.117 3.386,0.341 0.934,0.234 1.83,0.545 2.686,0.924 l -1.168,6.092 c -0.778,-0.311 -1.634,-0.467 -2.569,-0.467 -1.09,0 -1.81,0.292 -2.16,0.876 -0.351,0.584 -0.526,1.625 -0.526,3.104 v 30.782 c 0,3.504 -0.331,6.53 -0.992,9.07 -0.662,2.53 -1.791,4.622 -3.387,6.257 -1.596,1.636 -3.679,2.842 -6.248,3.63 -2.569,0.779 -5.761,1.168 -9.576,1.168 -3.737,0 -7.298,-0.438 -10.685,-1.304 -3.387,-0.866 -6.715,-2.297 -9.985,-4.272 z m 6.423,-39.987 c -1.713,1.605 -2.569,4.204 -2.569,7.804 0,4.779 1.44,8.01 4.321,9.694 2.88,1.683 6.89,2.52 12.028,2.52 1.946,0 3.737,-0.098 5.372,-0.292 1.635,-0.195 3.192,-0.487 4.671,-0.886 v -12.437 c -1.868,-2.433 -4.029,-4.506 -6.481,-6.228 -2.453,-1.722 -5.625,-2.579 -9.518,-2.579 -3.503,0 -6.112,0.798 -7.824,2.404 m 87.644,11.902 c 2.841,0.661 5.215,1.809 7.124,3.444 1.907,1.636 3.347,3.777 4.32,6.423 0.974,2.648 1.46,5.956 1.46,9.927 0,3.269 -0.331,5.839 -0.993,7.708 -0.661,1.868 -1.537,3.425 -2.627,4.671 v 0.467 h 8.291 v 6.422 h -16.466 c -3.192,0.935 -6.852,1.402 -10.978,1.402 -3.736,0 -7.045,-0.35 -9.925,-1.051 -2.881,-0.7 -5.295,-1.868 -7.242,-3.503 -1.946,-1.636 -3.405,-3.776 -4.378,-6.424 -0.973,-2.646 -1.46,-5.916 -1.46,-9.809 0,-4.204 0.544,-7.649 1.635,-10.335 1.09,-2.686 2.686,-4.808 4.787,-6.365 -1.089,-1.323 -1.985,-2.822 -2.685,-4.496 -0.701,-1.674 -1.051,-3.561 -1.051,-5.664 0,-2.724 0.428,-4.924 1.284,-6.597 0.857,-1.674 2.16,-2.979 3.912,-3.913 1.752,-0.934 3.971,-1.615 6.657,-2.043 2.686,-0.428 5.82,-0.72 9.401,-0.876 5.294,-0.234 9.167,-0.896 11.619,-1.986 2.453,-1.09 3.679,-3.23 3.679,-6.423 0,-1.323 -0.194,-2.51 -0.584,-3.561 -0.389,-1.051 -1.09,-1.927 -2.102,-2.628 -1.012,-0.7 -2.432,-1.245 -4.262,-1.635 -1.829,-0.389 -4.146,-0.584 -6.949,-0.584 -4.048,0 -7.922,0.506 -11.62,1.519 -3.697,1.011 -7.338,2.881 -10.919,5.605 l -3.97,-5.839 c 1.869,-1.791 3.893,-3.251 6.073,-4.38 2.18,-1.128 4.418,-1.985 6.715,-2.569 2.297,-0.583 4.535,-0.973 6.715,-1.167 2.179,-0.195 4.204,-0.292 6.072,-0.292 8.408,0 14.384,1.372 17.926,4.107 3.543,2.734 5.313,6.793 5.313,12.184 0,3.279 -0.603,5.906 -1.81,7.854 -1.207,1.956 -2.802,3.434 -4.788,4.457 -1.985,1.011 -4.243,1.693 -6.773,2.052 -2.53,0.351 -5.158,0.604 -7.883,0.76 -3.269,0.234 -5.936,0.487 -7.999,0.749 -2.063,0.273 -3.64,0.671 -4.729,1.217 -1.091,0.535 -1.83,1.255 -2.22,2.141 -0.389,0.885 -0.583,1.985 -0.583,3.298 0,1.003 0.175,2.025 0.525,3.066 0.35,1.041 0.837,1.985 1.459,2.842 2.804,-0.779 6.19,-1.168 10.16,-1.168 3.738,0 7.027,0.331 9.869,0.993 m -21.546,9.342 c -2.18,2.063 -3.271,5.548 -3.271,10.452 0,2.569 0.254,4.729 0.76,6.481 0.506,1.752 1.343,3.154 2.511,4.204 1.168,1.051 2.705,1.81 4.612,2.278 1.908,0.467 4.224,0.7 6.949,0.7 2.803,0 5.157,-0.233 7.065,-0.7 1.908,-0.468 3.445,-1.246 4.613,-2.336 1.168,-1.09 1.985,-2.491 2.452,-4.204 0.467,-1.713 0.701,-3.854 0.701,-6.423 0,-2.491 -0.234,-4.594 -0.701,-6.306 -0.467,-1.713 -1.284,-3.095 -2.452,-4.146 -1.168,-1.051 -2.705,-1.829 -4.613,-2.335 -1.908,-0.507 -4.262,-0.76 -7.065,-0.76 -5.528,0 -9.382,1.032 -11.561,3.095 m 99.029,-2.978 v 1.985 c 0,4.438 -0.233,8.623 -0.7,12.554 -0.467,3.932 -1.46,7.338 -2.978,10.219 -1.518,2.88 -3.737,5.157 -6.657,6.831 -2.919,1.674 -6.87,2.511 -11.853,2.511 -5.06,0 -9.167,-0.876 -12.32,-2.627 -3.153,-1.752 -5.605,-4.088 -7.357,-7.007 -1.752,-2.92 -2.959,-6.307 -3.62,-10.16 -0.662,-3.854 -0.994,-7.922 -0.994,-12.204 0,-5.138 0.429,-9.576 1.286,-13.313 0.856,-3.737 2.257,-6.832 4.204,-9.284 1.946,-2.452 4.496,-4.263 7.649,-5.431 3.152,-1.167 7.026,-1.751 11.619,-1.751 3.659,0 7.241,0.418 10.744,1.265 3.503,0.847 6.384,1.917 8.642,3.222 l -1.519,6.491 c -2.491,-1.091 -5.118,-1.946 -7.882,-2.569 -2.764,-0.623 -5.859,-0.935 -9.285,-0.935 -2.801,0 -5.235,0.272 -7.297,0.817 -2.064,0.555 -3.777,1.586 -5.139,3.115 -1.362,1.528 -2.414,3.59 -3.153,6.17 -0.74,2.579 -1.149,5.946 -1.226,10.101 z m -15.181,25.108 c 1.868,-1.012 3.309,-2.394 4.321,-4.146 1.012,-1.752 1.673,-3.814 1.985,-6.189 0.312,-2.374 0.468,-4.924 0.468,-7.649 h -29.429 c 0.155,3.348 0.525,6.267 1.109,8.758 0.583,2.491 1.459,4.516 2.627,6.073 1.168,1.557 2.687,2.725 4.555,3.503 1.868,0.778 4.204,1.168 7.007,1.168 3.036,0 5.488,-0.506 7.357,-1.518 m 81.629,-51.383 v 40.289 c 0,3.192 -0.253,6.033 -0.759,8.525 -0.515,2.491 -1.401,4.593 -2.685,6.306 -1.285,1.713 -2.979,3.016 -5.08,3.912 -2.103,0.895 -4.749,1.343 -7.942,1.343 -4.749,0 -8.875,-1.032 -12.378,-3.095 -3.503,-2.062 -6.384,-4.573 -8.642,-7.532 h -0.584 v 9.225 h -7.591 v -58.973 h 8.408 v 41.223 c 2.959,4.282 6.025,7.299 9.226,9.05 3.192,1.752 6.375,2.628 9.576,2.628 3.571,0 6.141,-1.051 7.708,-3.153 1.557,-2.102 2.335,-5.8 2.335,-11.094 v -38.654 z m 61.076,57.923 c -1.868,0.856 -4.116,1.479 -6.714,1.868 -2.618,0.389 -5.363,0.584 -8.233,0.584 -8.876,0 -15.328,-2.472 -19.327,-7.415 -4.02,-4.945 -6.015,-12.749 -6.015,-23.415 0,-10.822 2.025,-18.685 6.073,-23.59 4.039,-4.904 10.393,-7.357 19.036,-7.357 3.338,0 6.344,0.273 8.991,0.818 2.638,0.545 4.974,1.245 7.007,2.101 l -1.518,6.658 c -2.267,-0.78 -4.437,-1.325 -6.54,-1.636 -2.101,-0.312 -4.282,-0.467 -6.539,-0.467 -3.037,0 -5.693,0.39 -7.941,1.168 -2.268,0.778 -4.107,2.082 -5.547,3.912 -1.45,1.829 -2.54,4.263 -3.271,7.299 -0.749,3.036 -1.109,6.812 -1.109,11.327 0,4.439 0.351,8.136 1.051,11.095 0.701,2.958 1.761,5.333 3.212,7.123 1.43,1.791 3.221,3.056 5.372,3.796 2.14,0.739 4.68,1.109 7.649,1.109 4.973,0 9.381,-0.739 13.195,-2.219 z m 29.537,1.05 h -8.408 v -58.974 h 8.408 z m 0.584,25.458 h -9.576 v -9.692 h 9.576 z m 32.931,-25.458 h -8.408 v -61.076 c 0,-2.335 -0.155,-4.32 -0.467,-5.956 -0.311,-1.635 -0.876,-3.036 -1.693,-4.204 -0.818,-1.167 -1.888,-2.16 -3.211,-2.977 -1.324,-0.818 -2.959,-1.616 -4.905,-2.394 l 2.685,-6.54 c 3.037,1.012 5.587,2.16 7.65,3.445 2.063,1.284 3.698,2.803 4.905,4.554 1.206,1.752 2.082,3.835 2.627,6.248 0.545,2.414 0.817,5.255 0.817,8.525 z m 0.584,25.458 h -9.576 v -9.692 h 9.576 z m 24.525,-36.435 c 2.958,1.713 5.741,2.959 8.349,3.737 2.609,0.778 5.586,1.168 8.934,1.168 2.647,0 4.807,-0.233 6.481,-0.691 1.674,-0.467 2.997,-1.245 3.971,-2.365 0.973,-1.109 1.635,-2.569 1.984,-4.379 0.351,-1.81 0.527,-4.019 0.527,-6.627 v -5.206 c -1.869,0.388 -3.601,0.7 -5.198,0.933 -1.595,0.235 -3.522,0.351 -5.78,0.351 -3.503,0 -6.715,-0.312 -9.635,-0.935 -2.919,-0.632 -5.449,-1.702 -7.59,-3.221 -2.141,-1.528 -3.815,-3.522 -5.022,-5.975 -1.206,-2.462 -1.81,-5.567 -1.81,-9.313 0,-5.469 1.402,-9.654 4.205,-12.545 2.802,-2.889 7.201,-4.33 13.196,-4.33 7.552,0 13.351,2.413 17.399,7.241 h 0.585 c 0.311,-4.828 3.114,-7.241 8.407,-7.241 1.325,0 2.454,0.117 3.387,0.341 0.935,0.234 1.83,0.545 2.687,0.924 l -1.168,6.092 c -0.779,-0.311 -1.635,-0.467 -2.57,-0.467 -1.089,0 -1.809,0.292 -2.16,0.876 -0.35,0.584 -0.525,1.625 -0.525,3.104 v 30.782 c 0,3.504 -0.331,6.53 -0.993,9.07 -0.661,2.53 -1.79,4.622 -3.387,6.257 -1.596,1.636 -3.678,2.842 -6.247,3.63 -2.569,0.779 -5.762,1.168 -9.576,1.168 -3.738,0 -7.299,-0.438 -10.686,-1.304 -3.387,-0.866 -6.715,-2.297 -9.984,-4.272 z m 6.422,-39.987 c -1.712,1.605 -2.569,4.204 -2.569,7.804 0,4.779 1.441,8.01 4.321,9.694 2.88,1.683 6.89,2.52 12.029,2.52 1.946,0 3.736,-0.098 5.371,-0.292 1.636,-0.195 3.192,-0.487 4.672,-0.886 v -12.437 c -1.869,-2.433 -4.03,-4.506 -6.482,-6.228 -2.452,-1.722 -5.625,-2.579 -9.517,-2.579 -3.504,0 -6.112,0.798 -7.825,2.404 m 130.444,-8.009 v 7.123 h -33.516 l 32.816,44.026 v 7.824 h -39.356 l -0.817,-7.123 h 31.297 l -32.699,-43.91 v -7.94 z m 20.787,47.996 c 2.958,1.713 5.742,2.959 8.349,3.737 2.609,0.778 5.586,1.168 8.935,1.168 2.647,0 4.807,-0.233 6.481,-0.691 1.673,-0.467 2.998,-1.245 3.97,-2.365 0.974,-1.109 1.635,-2.569 1.986,-4.379 0.35,-1.81 0.525,-4.019 0.525,-6.627 v -5.206 c -1.868,0.388 -3.601,0.7 -5.196,0.933 -1.597,0.235 -3.524,0.351 -5.782,0.351 -3.502,0 -6.714,-0.312 -9.633,-0.935 -2.92,-0.632 -5.451,-1.702 -7.591,-3.221 -2.142,-1.528 -3.816,-3.522 -5.022,-5.975 -1.207,-2.462 -1.81,-5.567 -1.81,-9.313 0,-5.469 1.401,-9.654 4.204,-12.545 2.803,-2.889 7.202,-4.33 13.196,-4.33 7.552,0 13.353,2.413 17.401,7.241 h 0.584 c 0.311,-4.828 3.114,-7.241 8.408,-7.241 1.323,0 2.452,0.117 3.386,0.341 0.935,0.234 1.83,0.545 2.686,0.924 l -1.168,6.092 c -0.778,-0.311 -1.635,-0.467 -2.568,-0.467 -1.091,0 -1.811,0.292 -2.161,0.876 -0.35,0.584 -0.526,1.625 -0.526,3.104 v 30.782 c 0,3.504 -0.331,6.53 -0.992,9.07 -0.662,2.53 -1.791,4.622 -3.387,6.257 -1.595,1.636 -3.678,2.842 -6.248,3.63 -2.569,0.779 -5.761,1.168 -9.576,1.168 -3.736,0 -7.299,-0.438 -10.685,-1.304 -3.387,-0.866 -6.715,-2.297 -9.985,-4.272 z m 6.423,-39.987 c -1.713,1.605 -2.57,4.204 -2.57,7.804 0,4.779 1.441,8.01 4.322,9.694 2.881,1.683 6.889,2.52 12.028,2.52 1.946,0 3.737,-0.098 5.372,-0.292 1.635,-0.195 3.191,-0.487 4.671,-0.886 v -12.437 c -1.868,-2.433 -4.028,-4.506 -6.481,-6.228 -2.453,-1.722 -5.625,-2.579 -9.518,-2.579 -3.503,0 -6.111,0.798 -7.824,2.404 m 130.444,-8.009 v 7.123 h -33.517 l 32.816,44.026 v 7.824 h -39.355 l -0.818,-7.123 h 31.298 l -32.698,-43.91 v -7.94 z m 65.63,0 v 40.289 c 0,3.192 -0.253,6.033 -0.759,8.525 -0.506,2.491 -1.401,4.593 -2.685,6.306 -1.286,1.713 -2.979,3.016 -5.08,3.912 -2.103,0.895 -4.749,1.343 -7.942,1.343 -4.749,0 -8.875,-1.032 -12.379,-3.095 -3.503,-2.062 -6.384,-4.573 -8.641,-7.532 h -0.584 v 9.225 h -7.591 v -58.973 h 8.408 v 41.223 c 2.959,4.282 6.034,7.299 9.226,9.05 3.192,1.752 6.384,2.628 9.576,2.628 3.582,0 6.15,-1.051 7.708,-3.153 1.556,-2.102 2.336,-5.8 2.336,-11.094 v -38.654 z m 24.991,47.996 c 2.959,1.713 5.742,2.959 8.35,3.737 2.608,0.778 5.586,1.168 8.933,1.168 2.648,0 4.808,-0.233 6.482,-0.691 1.674,-0.467 2.998,-1.245 3.971,-2.365 0.973,-1.109 1.634,-2.569 1.985,-4.379 0.35,-1.81 0.525,-4.019 0.525,-6.627 v -5.206 c -1.868,0.388 -3.6,0.7 -5.196,0.933 -1.597,0.235 -3.523,0.351 -5.781,0.351 -3.503,0 -6.715,-0.312 -9.634,-0.935 -2.92,-0.632 -5.45,-1.702 -7.591,-3.221 -2.141,-1.528 -3.814,-3.522 -5.021,-5.975 -1.207,-2.462 -1.811,-5.567 -1.811,-9.313 0,-5.469 1.401,-9.654 4.204,-12.545 2.803,-2.889 7.202,-4.33 13.196,-4.33 7.552,0 13.352,2.413 17.401,7.241 h 0.584 c 0.311,-4.828 3.114,-7.241 8.408,-7.241 1.323,0 2.452,0.117 3.387,0.341 0.933,0.234 1.829,0.545 2.685,0.924 l -1.167,6.092 c -0.779,-0.311 -1.635,-0.467 -2.569,-0.467 -1.09,0 -1.811,0.292 -2.161,0.876 -0.35,0.584 -0.526,1.625 -0.526,3.104 v 30.782 c 0,3.504 -0.33,6.53 -0.992,9.07 -0.662,2.53 -1.791,4.622 -3.386,6.257 -1.597,1.636 -3.679,2.842 -6.248,3.63 -2.57,0.779 -5.761,1.168 -9.577,1.168 -3.736,0 -7.298,-0.438 -10.685,-1.304 -3.386,-0.866 -6.715,-2.297 -9.985,-4.272 z m 6.423,-39.987 c -1.713,1.605 -2.569,4.204 -2.569,7.804 0,4.779 1.44,8.01 4.321,9.694 2.881,1.683 6.89,2.52 12.028,2.52 1.947,0 3.738,-0.098 5.372,-0.292 1.635,-0.195 3.193,-0.487 4.671,-0.886 v -12.437 c -1.868,-2.433 -4.028,-4.506 -6.481,-6.228 -2.452,-1.722 -5.624,-2.579 -9.518,-2.579 -3.503,0 -6.111,0.798 -7.824,2.404 m 104.402,-8.009 v 40.289 c 0,3.192 -0.254,6.033 -0.759,8.525 -0.506,2.491 -1.402,4.593 -2.686,6.306 -1.284,1.713 -2.978,3.016 -5.08,3.912 -2.102,0.895 -4.749,1.343 -7.94,1.343 -4.75,0 -8.876,-1.032 -12.379,-3.095 -3.504,-2.062 -6.385,-4.573 -8.643,-7.532 h -0.583 v 9.225 h -7.591 v -58.973 h 8.408 v 41.223 c 2.958,4.282 6.034,7.299 9.226,9.05 3.191,1.752 6.384,2.628 9.575,2.628 3.582,0 6.152,-1.051 7.708,-3.153 1.557,-2.102 2.336,-5.8 2.336,-11.094 v -38.654 z m 59.383,22.003 c -0.515,1.791 -1.421,3.396 -2.744,4.798 -1.334,1.401 -3.095,2.676 -5.313,3.805 -2.219,1.128 -5.041,2.16 -8.467,3.104 -2.258,0.623 -4.165,1.246 -5.723,1.869 -1.566,0.623 -2.803,1.323 -3.737,2.101 -0.934,0.788 -1.625,1.743 -2.043,2.871 -0.429,1.129 -0.643,2.521 -0.643,4.156 0,3.046 0.915,5.264 2.744,6.666 1.83,1.411 4.847,2.112 9.051,2.112 2.803,0 5.323,-0.292 7.591,-0.876 2.258,-0.584 4.516,-1.304 6.773,-2.16 l 1.285,6.938 c -2.335,0.925 -4.846,1.645 -7.533,2.18 -2.685,0.535 -5.546,0.808 -8.583,0.808 -6.851,0 -11.853,-1.363 -15.006,-4.097 -3.154,-2.734 -4.73,-6.832 -4.73,-12.291 0,-2.491 0.331,-4.662 0.993,-6.491 0.661,-1.84 1.655,-3.436 2.978,-4.798 1.323,-1.362 3.036,-2.54 5.137,-3.513 2.103,-0.973 4.633,-1.849 7.592,-2.628 2.491,-0.632 4.554,-1.294 6.189,-1.995 1.635,-0.7 2.939,-1.499 3.913,-2.393 0.972,-0.906 1.644,-1.956 2.043,-3.163 0.389,-1.207 0.584,-2.638 0.584,-4.273 0,-3.746 -0.953,-6.219 -2.862,-7.434 -1.917,-1.207 -4.845,-1.811 -8.816,-1.811 -3.426,0 -6.52,0.292 -9.284,0.876 -2.764,0.584 -5.353,1.382 -7.766,2.394 l -1.869,-7.055 c 2.725,-1.003 5.557,-1.762 8.525,-2.307 2.958,-0.525 6.306,-0.798 10.043,-0.798 7.319,0 12.554,1.265 15.707,3.805 3.154,2.53 4.73,6.958 4.73,13.284 0,2.413 -0.253,4.526 -0.759,6.316 m 44.201,30.081 v 6.889 h -13.429 v 15.766 l -8.409,-1.401 v -14.365 h -7.708 l -0.817,-6.889 h 8.525 v -38.772 c 0,-5.137 1.032,-8.875 3.095,-11.211 2.064,-2.335 5.43,-3.503 10.102,-3.503 1.868,0 3.737,0.195 5.605,0.584 1.868,0.389 3.581,1.051 5.139,1.986 l -1.752,6.188 c -1.324,-0.622 -2.569,-1.031 -3.737,-1.225 -1.168,-0.195 -2.336,-0.292 -3.503,-0.292 -1.168,0 -2.161,0.097 -2.979,0.292 -0.817,0.194 -1.478,0.623 -1.985,1.284 -0.506,0.662 -0.895,1.577 -1.168,2.744 -0.272,1.168 -0.408,2.686 -0.408,4.555 v 37.37 z m 35.969,-44.26 h -0.468 l -16.115,51.149 h -8.525 l 19.152,-58.973 h 10.978 l 19.268,58.973 h -8.057 z m 82.213,18.451 v 1.985 c 0,4.438 -0.233,8.623 -0.7,12.554 -0.468,3.932 -1.46,7.338 -2.979,10.219 -1.517,2.88 -3.736,5.157 -6.656,6.831 -2.919,1.674 -6.87,2.511 -11.853,2.511 -5.061,0 -9.167,-0.876 -12.321,-2.627 -3.152,-1.752 -5.605,-4.088 -7.356,-7.007 -1.752,-2.92 -2.959,-6.307 -3.62,-10.16 -0.662,-3.854 -0.994,-7.922 -0.994,-12.204 0,-5.138 0.429,-9.576 1.286,-13.313 0.856,-3.737 2.256,-6.832 4.204,-9.284 1.946,-2.452 4.496,-4.263 7.648,-5.431 3.153,-1.167 7.027,-1.751 11.62,-1.751 3.659,0 7.241,0.418 10.743,1.265 3.504,0.847 6.385,1.917 8.643,3.222 l -1.519,6.491 c -2.491,-1.091 -5.119,-1.946 -7.882,-2.569 -2.764,-0.623 -5.859,-0.935 -9.285,-0.935 -2.802,0 -5.235,0.272 -7.298,0.817 -2.063,0.555 -3.776,1.586 -5.138,3.115 -1.362,1.528 -2.414,3.59 -3.153,6.17 -0.74,2.579 -1.149,5.946 -1.227,10.101 z m -15.181,25.108 c 1.868,-1.012 3.309,-2.394 4.321,-4.146 1.011,-1.752 1.673,-3.814 1.985,-6.189 0.312,-2.374 0.467,-4.924 0.467,-7.649 h -29.429 c 0.156,3.348 0.525,6.267 1.109,8.758 0.584,2.491 1.46,4.516 2.628,6.073 1.168,1.557 2.687,2.725 4.555,3.503 1.868,0.778 4.204,1.168 7.007,1.168 3.036,0 5.488,-0.506 7.357,-1.518 m 81.629,-51.383 v 40.289 c 0,3.192 -0.262,6.033 -0.759,8.525 -0.515,2.491 -1.401,4.593 -2.695,6.306 -1.275,1.713 -2.969,3.016 -5.07,3.912 -2.103,0.895 -4.759,1.343 -7.942,1.343 -4.758,0 -8.884,-1.032 -12.378,-3.095 -3.503,-2.062 -6.394,-4.573 -8.642,-7.532 h -0.584 v 9.225 h -7.591 v -58.973 h 8.408 v 41.223 c 2.949,4.282 6.025,7.299 9.216,9.05 3.193,1.752 6.385,2.628 9.586,2.628 3.571,0 6.141,-1.051 7.698,-3.153 1.557,-2.102 2.345,-5.8 2.345,-11.094 v -38.654 z m 55.939,0.116 c 3.036,1.013 5.556,2.706 7.59,5.08 2.014,2.375 3.562,5.547 4.613,9.518 1.051,3.97 1.576,8.914 1.576,14.831 0,5.839 -0.555,10.724 -1.635,14.656 -1.099,3.932 -2.676,7.104 -4.729,9.517 -2.073,2.414 -4.603,4.126 -7.591,5.139 -3.007,1.012 -6.452,1.518 -10.335,1.518 -3.971,0 -7.474,-0.526 -10.51,-1.576 -3.037,-1.051 -5.605,-2.784 -7.708,-5.198 -2.101,-2.413 -3.679,-5.605 -4.729,-9.575 -1.051,-3.971 -1.576,-8.876 -1.576,-14.715 0,-5.839 0.525,-10.724 1.576,-14.656 1.05,-3.932 2.628,-7.084 4.729,-9.459 2.103,-2.374 4.671,-4.067 7.708,-5.08 3.036,-1.012 6.539,-1.518 10.51,-1.518 3.961,0 7.474,0.506 10.511,1.518 m -18.102,7.24 c -2.034,0.857 -3.669,2.22 -4.904,4.088 -1.256,1.868 -2.132,4.302 -2.628,7.299 -0.516,2.997 -0.759,6.637 -0.759,10.919 0,4.437 0.243,8.136 0.759,11.094 0.496,2.959 1.372,5.333 2.628,7.124 1.235,1.79 2.87,3.075 4.904,3.853 2.015,0.778 4.506,1.168 7.474,1.168 3.037,0 5.548,-0.409 7.523,-1.226 1.994,-0.818 3.601,-2.122 4.856,-3.913 1.236,-1.79 2.112,-4.184 2.628,-7.181 0.496,-2.997 0.758,-6.637 0.758,-10.919 0,-4.282 -0.262,-7.922 -0.758,-10.919 -0.516,-2.997 -1.392,-5.431 -2.628,-7.299 -1.255,-1.868 -2.862,-3.231 -4.856,-4.088 -1.975,-0.855 -4.486,-1.284 -7.523,-1.284 -2.968,0 -5.459,0.429 -7.474,1.284 m 81.854,53.252 c -2.336,-0.233 -4.535,-0.759 -6.599,-1.576 -2.062,-0.817 -3.931,-1.868 -5.604,-3.153 -1.674,-1.285 -3.193,-2.744 -4.555,-4.379 -1.362,-1.635 -2.55,-3.348 -3.562,-5.139 h -0.585 v 12.612 h -7.589 v -58.973 h 8.408 v 36.669 c 3.114,5.138 6.442,9.05 9.984,11.736 3.543,2.686 7.183,4.185 10.919,4.496 z m 17.4,-12.612 c 2.958,1.713 5.741,2.959 8.35,3.737 2.608,0.778 5.586,1.168 8.933,1.168 2.648,0 4.808,-0.233 6.482,-0.691 1.674,-0.467 2.997,-1.245 3.97,-2.365 0.973,-1.109 1.635,-2.569 1.986,-4.379 0.349,-1.81 0.525,-4.019 0.525,-6.627 v -5.206 c -1.868,0.388 -3.6,0.7 -5.197,0.933 -1.596,0.235 -3.523,0.351 -5.78,0.351 -3.503,0 -6.715,-0.312 -9.634,-0.935 -2.92,-0.632 -5.45,-1.702 -7.591,-3.221 -2.142,-1.528 -3.815,-3.522 -5.022,-5.975 -1.207,-2.462 -1.81,-5.567 -1.81,-9.313 0,-5.469 1.401,-9.654 4.204,-12.545 2.803,-2.889 7.201,-4.33 13.196,-4.33 7.552,0 13.352,2.413 17.401,7.241 h 0.584 c 0.311,-4.828 3.114,-7.241 8.408,-7.241 1.323,0 2.452,0.117 3.387,0.341 0.933,0.234 1.829,0.545 2.685,0.924 l -1.168,6.092 c -0.778,-0.311 -1.635,-0.467 -2.569,-0.467 -1.09,0 -1.81,0.292 -2.16,0.876 -0.351,0.584 -0.526,1.625 -0.526,3.104 v 30.782 c 0,3.504 -0.331,6.53 -0.993,9.07 -0.661,2.53 -1.79,4.622 -3.386,6.257 -1.596,1.636 -3.678,2.842 -6.248,3.63 -2.569,0.779 -5.76,1.168 -9.576,1.168 -3.736,0 -7.299,-0.438 -10.685,-1.304 -3.387,-0.866 -6.715,-2.297 -9.985,-4.272 z m 6.423,-39.987 c -1.713,1.605 -2.569,4.204 -2.569,7.804 0,4.779 1.44,8.01 4.321,9.694 2.881,1.683 6.89,2.52 12.028,2.52 1.946,0 3.737,-0.098 5.372,-0.292 1.635,-0.195 3.192,-0.487 4.671,-0.886 v -12.437 c -1.868,-2.433 -4.029,-4.506 -6.481,-6.228 -2.452,-1.722 -5.625,-2.579 -9.518,-2.579 -3.503,0 -6.111,0.798 -7.824,2.404 m 97.161,-8.009 v 7.123 h -33.516 l 32.816,44.026 v 7.824 h -39.356 l -0.817,-7.123 h 31.297 l -32.698,-43.91 v -7.94 z m 28.378,58.973 h -8.408 v -58.974 h 8.408 z m 0.584,25.458 h -9.576 v -9.692 h 9.576 z m 59.383,-62.428 c -0.506,1.791 -1.421,3.396 -2.744,4.798 -1.324,1.401 -3.095,2.676 -5.314,3.805 -2.219,1.128 -5.041,2.16 -8.467,3.104 -2.257,0.623 -4.165,1.246 -5.722,1.869 -1.557,0.623 -2.803,1.323 -3.737,2.101 -0.934,0.788 -1.615,1.743 -2.044,2.871 -0.428,1.129 -0.642,2.521 -0.642,4.156 0,3.046 0.915,5.264 2.745,6.666 1.829,1.411 4.846,2.112 9.05,2.112 2.802,0 5.333,-0.292 7.591,-0.876 2.257,-0.584 4.515,-1.304 6.773,-2.16 l 1.284,6.938 c -2.335,0.925 -4.846,1.645 -7.532,2.18 -2.686,0.535 -5.547,0.808 -8.583,0.808 -6.852,0 -11.854,-1.363 -15.007,-4.097 -3.152,-2.734 -4.729,-6.832 -4.729,-12.291 0,-2.491 0.331,-4.662 0.993,-6.491 0.661,-1.84 1.654,-3.436 2.977,-4.798 1.325,-1.362 3.036,-2.54 5.139,-3.513 2.102,-0.973 4.632,-1.849 7.591,-2.628 2.491,-0.632 4.554,-1.294 6.189,-1.995 1.635,-0.7 2.939,-1.499 3.912,-2.393 0.973,-0.906 1.655,-1.956 2.043,-3.163 0.39,-1.207 0.584,-2.638 0.584,-4.273 0,-3.746 -0.953,-6.219 -2.861,-7.434 -1.907,-1.207 -4.846,-1.811 -8.816,-1.811 -3.426,0 -6.521,0.292 -9.285,0.876 -2.763,0.584 -5.352,1.382 -7.765,2.394 l -1.868,-7.055 c 2.724,-1.003 5.566,-1.762 8.524,-2.307 2.959,-0.525 6.307,-0.798 10.043,-0.798 7.318,0 12.554,1.265 15.707,3.805 3.153,2.53 4.73,6.958 4.73,13.284 0,2.413 -0.253,4.526 -0.759,6.316 m 29.603,-22.003 v 27.326 h 6.074 l 19.619,-27.326 h 10.393 l -22.772,31.297 20.67,27.676 h -9.576 l -17.751,-24.523 h -6.657 V 0 h -8.408 v -83.614 z m 82.097,0.116 c 3.037,1.013 5.566,2.706 7.591,5.08 2.024,2.375 3.562,5.547 4.613,9.518 1.051,3.97 1.576,8.914 1.576,14.831 0,5.839 -0.545,10.724 -1.635,14.656 -1.089,3.932 -2.666,7.104 -4.729,9.517 -2.064,2.414 -4.594,4.126 -7.591,5.139 -2.997,1.012 -6.442,1.518 -10.335,1.518 -3.971,0 -7.473,-0.526 -10.511,-1.576 -3.036,-1.051 -5.605,-2.784 -7.707,-5.198 -2.102,-2.413 -3.678,-5.605 -4.729,-9.575 -1.051,-3.971 -1.577,-8.876 -1.577,-14.715 0,-5.839 0.526,-10.724 1.577,-14.656 1.051,-3.932 2.627,-7.084 4.729,-9.459 2.102,-2.374 4.671,-4.067 7.707,-5.08 3.038,-1.012 6.54,-1.518 10.511,-1.518 3.971,0 7.474,0.506 10.51,1.518 m -18.101,7.24 c -2.024,0.857 -3.659,2.22 -4.905,4.088 -1.245,1.868 -2.121,4.302 -2.627,7.299 -0.506,2.997 -0.76,6.637 -0.76,10.919 0,4.437 0.254,8.136 0.76,11.094 0.506,2.959 1.382,5.333 2.627,7.124 1.246,1.79 2.881,3.075 4.905,3.853 2.025,0.778 4.516,1.168 7.474,1.168 3.036,0 5.547,-0.409 7.532,-1.226 1.986,-0.818 3.602,-2.122 4.847,-3.913 1.245,-1.79 2.122,-4.184 2.628,-7.181 0.506,-2.997 0.759,-6.637 0.759,-10.919 0,-4.282 -0.253,-7.922 -0.759,-10.919 -0.506,-2.997 -1.383,-5.431 -2.628,-7.299 -1.245,-1.868 -2.861,-3.231 -4.847,-4.088 -1.985,-0.855 -4.496,-1.284 -7.532,-1.284 -2.958,0 -5.449,0.429 -7.474,1.284 m 68.667,0.468 h -0.466 l -16.117,51.149 h -8.525 l 19.152,-58.973 h 10.978 l 19.268,58.973 h -8.057 z m 39.823,40.172 c 2.958,1.713 5.741,2.959 8.349,3.737 2.609,0.778 5.586,1.168 8.934,1.168 2.647,0 4.807,-0.233 6.481,-0.691 1.674,-0.467 2.997,-1.245 3.971,-2.365 0.973,-1.109 1.635,-2.569 1.985,-4.379 0.35,-1.81 0.526,-4.019 0.526,-6.627 v -5.206 c -1.868,0.388 -3.601,0.7 -5.198,0.933 -1.595,0.235 -3.522,0.351 -5.78,0.351 -3.504,0 -6.715,-0.312 -9.635,-0.935 -2.919,-0.632 -5.449,-1.702 -7.59,-3.221 -2.141,-1.528 -3.815,-3.522 -5.022,-5.975 -1.206,-2.462 -1.809,-5.567 -1.809,-9.313 0,-5.469 1.401,-9.654 4.204,-12.545 2.802,-2.889 7.201,-4.33 13.196,-4.33 7.552,0 13.351,2.413 17.4,7.241 h 0.584 c 0.311,-4.828 3.114,-7.241 8.408,-7.241 1.324,0 2.453,0.117 3.387,0.341 0.934,0.234 1.829,0.545 2.686,0.924 l -1.168,6.092 c -0.779,-0.311 -1.635,-0.467 -2.57,-0.467 -1.089,0 -1.809,0.292 -2.16,0.876 -0.35,0.584 -0.525,1.625 -0.525,3.104 v 30.782 c 0,3.504 -0.331,6.53 -0.993,9.07 -0.661,2.53 -1.79,4.622 -3.387,6.257 -1.596,1.636 -3.678,2.842 -6.247,3.63 -2.569,0.779 -5.762,1.168 -9.576,1.168 -3.738,0 -7.299,-0.438 -10.686,-1.304 -3.386,-0.866 -6.715,-2.297 -9.984,-4.272 z m 6.422,-39.987 c -1.712,1.605 -2.569,4.204 -2.569,7.804 0,4.779 1.441,8.01 4.321,9.694 2.88,1.683 6.89,2.52 12.029,2.52 1.946,0 3.736,-0.098 5.371,-0.292 1.636,-0.195 3.192,-0.487 4.672,-0.886 v -12.437 c -1.868,-2.433 -4.03,-4.506 -6.482,-6.228 -2.452,-1.722 -5.625,-2.579 -9.517,-2.579 -3.504,0 -6.112,0.798 -7.825,2.404 m 78.828,-7.425 -1.519,6.189 c -1.558,-0.623 -3.348,-0.934 -5.372,-0.934 -0.935,0 -1.732,0.097 -2.394,0.292 -0.662,0.194 -1.187,0.584 -1.577,1.168 -0.388,0.584 -0.68,1.381 -0.875,2.393 -0.195,1.013 -0.292,2.375 -0.292,4.088 V 0 h -8.409 v -71.235 c 0,-4.906 0.896,-8.428 2.687,-10.57 1.79,-2.14 4.866,-3.211 9.225,-3.211 1.557,0 3.075,0.156 4.555,0.467 1.478,0.312 2.803,0.818 3.971,1.519 m 62.593,-0.584 v 40.289 c 0,3.192 -0.253,6.033 -0.758,8.525 -0.506,2.491 -1.402,4.593 -2.686,6.306 -1.285,1.713 -2.978,3.016 -5.08,3.912 -2.103,0.895 -4.75,1.343 -7.941,1.343 -4.749,0 -8.875,-1.032 -12.379,-3.095 -3.503,-2.062 -6.384,-4.573 -8.642,-7.532 h -0.584 v 9.225 h -7.591 v -58.973 h 8.408 v 41.223 c 2.958,4.282 6.035,7.299 9.226,9.05 3.192,1.752 6.385,2.628 9.576,2.628 3.581,0 6.151,-1.051 7.708,-3.153 1.557,-2.102 2.335,-5.8 2.335,-11.094 v -38.654 z m 55.938,0.116 c 3.037,1.013 5.567,2.706 7.591,5.08 2.024,2.375 3.562,5.547 4.613,9.518 1.051,3.97 1.576,8.914 1.576,14.831 0,5.839 -0.545,10.724 -1.635,14.656 -1.089,3.932 -2.666,7.104 -4.729,9.517 -2.064,2.414 -4.593,4.126 -7.591,5.139 -2.997,1.012 -6.442,1.518 -10.335,1.518 -3.971,0 -7.474,-0.526 -10.511,-1.576 -3.036,-1.051 -5.604,-2.784 -7.707,-5.198 -2.101,-2.413 -3.678,-5.605 -4.729,-9.575 -1.051,-3.971 -1.577,-8.876 -1.577,-14.715 0,-5.839 0.526,-10.724 1.577,-14.656 1.051,-3.932 2.628,-7.084 4.729,-9.459 2.103,-2.374 4.671,-4.067 7.707,-5.08 3.037,-1.012 6.54,-1.518 10.511,-1.518 3.971,0 7.474,0.506 10.51,1.518 m -18.101,7.24 c -2.024,0.857 -3.659,2.22 -4.905,4.088 -1.245,1.868 -2.121,4.302 -2.627,7.299 -0.506,2.997 -0.759,6.637 -0.759,10.919 0,4.437 0.253,8.136 0.759,11.094 0.506,2.959 1.382,5.333 2.627,7.124 1.246,1.79 2.881,3.075 4.905,3.853 2.025,0.778 4.516,1.168 7.474,1.168 3.037,0 5.548,-0.409 7.533,-1.226 1.985,-0.818 3.601,-2.122 4.846,-3.913 1.246,-1.79 2.122,-4.184 2.628,-7.181 0.506,-2.997 0.759,-6.637 0.759,-10.919 0,-4.282 -0.253,-7.922 -0.759,-10.919 -0.506,-2.997 -1.382,-5.431 -2.628,-7.299 -1.245,-1.868 -2.861,-3.231 -4.846,-4.088 -1.985,-0.855 -4.496,-1.284 -7.533,-1.284 -2.958,0 -5.449,0.429 -7.474,1.284"
             style="fill:#000000;fill-opacity:1;fill-rule:nonzero;stroke:none"
             id="path20" />
        </g>
      </g>
    </g>
    <g
       id="g22">
      <g
         id="g24"
         clip-path="url(#clipPath28)">
        <path
           d="m 1745.606,103.631 h -8.408 V 44.657 h 8.408 z m 0.583,25.458 h -9.576 v -9.692 h 9.576 z m 69.835,-84.432 v 40.289 c 0,3.192 -0.253,6.034 -0.758,8.525 -0.507,2.491 -1.402,4.594 -2.686,6.306 -1.285,1.713 -2.978,3.017 -5.08,3.913 -2.103,0.895 -4.75,1.342 -7.941,1.342 -4.75,0 -8.876,-1.031 -12.379,-3.094 -3.504,-2.064 -6.385,-4.575 -8.642,-7.533 h -0.584 v 9.226 h -7.591 V 44.657 h 8.408 V 85.88 c 2.959,4.282 6.034,7.299 9.226,9.051 3.192,1.752 6.384,2.628 9.576,2.628 3.581,0 6.151,-1.052 7.708,-3.154 1.556,-2.102 2.335,-5.799 2.335,-11.093 V 44.657 Z m 65.865,58.974 h -8.408 V 44.657 h 8.408 z m 0.584,25.458 h -9.576 v -9.692 h 9.576 z m 69.824,-84.432 v 40.289 c 0,3.192 -0.253,6.034 -0.758,8.525 -0.507,2.491 -1.402,4.594 -2.686,6.306 -1.285,1.713 -2.978,3.017 -5.081,3.913 -2.102,0.895 -4.749,1.342 -7.94,1.342 -4.749,0 -8.876,-1.031 -12.379,-3.094 -3.504,-2.064 -6.384,-4.575 -8.642,-7.533 h -0.584 v 9.226 h -7.591 V 44.657 h 8.408 V 85.88 c 2.959,4.282 6.034,7.299 9.226,9.051 3.192,1.752 6.384,2.628 9.576,2.628 3.582,0 6.151,-1.052 7.708,-3.154 1.557,-2.102 2.335,-5.799 2.335,-11.093 V 44.657 Z m 55.938,0.117 c 3.036,1.011 5.567,2.705 7.591,5.08 2.025,2.374 3.562,5.547 4.613,9.517 1.051,3.971 1.577,8.914 1.577,14.831 0,5.839 -0.545,10.725 -1.636,14.657 -1.089,3.931 -2.666,7.103 -4.729,9.517 -2.063,2.413 -4.593,4.126 -7.591,5.138 -2.997,1.013 -6.442,1.518 -10.335,1.518 -3.971,0 -7.474,-0.525 -10.51,-1.576 -3.036,-1.052 -5.606,-2.783 -7.708,-5.197 -2.102,-2.413 -3.678,-5.606 -4.729,-9.576 -1.051,-3.97 -1.577,-8.875 -1.577,-14.714 0,-5.839 0.526,-10.725 1.577,-14.656 1.051,-3.932 2.627,-7.085 4.729,-9.459 2.102,-2.375 4.672,-4.069 7.708,-5.08 3.036,-1.012 6.539,-1.518 10.51,-1.518 3.971,0 7.474,0.506 10.51,1.518 m -18.101,7.24 c -2.024,0.856 -3.659,2.219 -4.905,4.088 -1.245,1.868 -2.121,4.3 -2.627,7.299 -0.506,2.997 -0.759,6.636 -0.759,10.918 0,4.438 0.253,8.136 0.759,11.094 0.506,2.958 1.382,5.333 2.627,7.124 1.246,1.79 2.881,3.075 4.905,3.854 2.025,0.778 4.516,1.168 7.474,1.168 3.037,0 5.547,-0.409 7.533,-1.227 1.985,-0.817 3.601,-2.121 4.846,-3.912 1.246,-1.791 2.121,-4.184 2.628,-7.182 0.506,-2.998 0.759,-6.637 0.759,-10.919 0,-4.282 -0.253,-7.921 -0.759,-10.918 -0.507,-2.999 -1.382,-5.431 -2.628,-7.299 -1.245,-1.869 -2.861,-3.232 -4.846,-4.088 -1.986,-0.857 -4.496,-1.284 -7.533,-1.284 -2.958,0 -5.449,0.427 -7.474,1.284 m 68.677,0.468 h -0.467 l -16.116,51.149 h -8.525 l 19.152,-58.974 h 10.978 l 19.269,58.974 h -8.059 z m 39.822,40.171 c 2.959,1.713 5.732,2.959 8.35,3.738 2.608,0.778 5.586,1.168 8.934,1.168 2.637,0 4.797,-0.234 6.481,-0.692 1.674,-0.466 2.988,-1.245 3.971,-2.364 0.973,-1.109 1.635,-2.569 1.985,-4.38 0.35,-1.809 0.526,-4.018 0.526,-6.627 v -5.207 c -1.869,0.39 -3.611,0.701 -5.197,0.935 -1.596,0.233 -3.523,0.35 -5.781,0.35 -3.504,0 -6.715,-0.311 -9.634,-0.934 -2.92,-0.633 -5.45,-1.703 -7.591,-3.221 -2.151,-1.528 -3.815,-3.523 -5.022,-5.975 -1.216,-2.462 -1.81,-5.567 -1.81,-9.314 0,-5.469 1.402,-9.653 4.204,-12.544 2.803,-2.891 7.192,-4.33 13.197,-4.33 7.542,0 13.352,2.413 17.4,7.24 h 0.583 c 0.302,-4.827 3.105,-7.24 8.409,-7.24 1.324,0 2.452,0.116 3.386,0.34 0.935,0.233 1.821,0.545 2.687,0.925 l -1.168,6.091 c -0.779,-0.311 -1.635,-0.466 -2.569,-0.466 -1.1,0 -1.811,0.292 -2.161,0.876 -0.35,0.584 -0.525,1.625 -0.525,3.104 v 30.781 c 0,3.503 -0.341,6.531 -0.993,9.07 -0.662,2.53 -1.801,4.623 -3.387,6.258 -1.595,1.634 -3.679,2.841 -6.247,3.629 -2.57,0.779 -5.771,1.168 -9.577,1.168 -3.736,0 -7.298,-0.437 -10.685,-1.303 -3.386,-0.867 -6.715,-2.297 -9.984,-4.273 z m 6.423,-39.987 c -1.713,1.606 -2.569,4.214 -2.569,7.805 0,4.778 1.44,8.009 4.321,9.692 2.871,1.684 6.89,2.521 12.028,2.521 1.937,0 3.737,-0.097 5.372,-0.291 1.635,-0.196 3.192,-0.488 4.672,-0.886 V 59.069 c -1.869,-2.432 -4.029,-4.505 -6.482,-6.228 -2.452,-1.723 -5.625,-2.579 -9.518,-2.579 -3.503,0 -6.121,0.799 -7.824,2.404 m 95.059,49.914 c -1.868,0.857 -4.106,1.479 -6.715,1.868 -2.607,0.39 -5.352,0.584 -8.232,0.584 -8.876,0 -15.318,-2.471 -19.327,-7.415 -4.01,-4.944 -6.015,-12.749 -6.015,-23.415 0,-10.821 2.025,-18.684 6.072,-23.59 4.049,-4.904 10.394,-7.356 19.036,-7.356 3.347,0 6.345,0.272 8.992,0.817 2.647,0.545 4.983,1.246 7.007,2.102 l -1.518,6.656 c -2.258,-0.778 -4.437,-1.323 -6.54,-1.635 -2.102,-0.311 -4.282,-0.466 -6.54,-0.466 -3.036,0 -5.683,0.388 -7.94,1.168 -2.258,0.778 -4.107,2.082 -5.547,3.912 -1.441,1.829 -2.531,4.261 -3.271,7.299 -0.739,3.036 -1.109,6.811 -1.109,11.327 0,4.437 0.35,8.135 1.051,11.094 0.701,2.958 1.771,5.333 3.211,7.123 1.441,1.791 3.231,3.056 5.373,3.796 2.14,0.74 4.69,1.11 7.649,1.11 4.982,0 9.381,-0.74 13.195,-2.219 z m 29.536,1.051 h -8.408 V 44.657 h 8.408 z m 0.584,25.458 h -9.576 v -9.692 h 9.576 z m 32.932,-25.458 h -8.408 V 42.555 c 0,-2.336 -0.155,-4.321 -0.467,-5.956 -0.312,-1.635 -0.876,-3.036 -1.693,-4.204 -0.818,-1.168 -1.888,-2.16 -3.212,-2.978 -1.324,-0.817 -2.958,-1.615 -4.905,-2.394 l 2.686,-6.539 c 3.037,1.011 5.586,2.16 7.649,3.444 2.064,1.285 3.699,2.803 4.906,4.555 1.206,1.752 2.082,3.835 2.627,6.248 0.545,2.413 0.817,5.255 0.817,8.525 z m 0.584,25.458 h -9.576 v -9.692 h 9.576 z m 58.916,-62.429 c -0.506,1.791 -1.421,3.397 -2.744,4.798 -1.324,1.402 -3.095,2.676 -5.314,3.805 -2.218,1.129 -5.041,2.161 -8.466,3.104 -2.258,0.623 -4.165,1.246 -5.723,1.869 -1.557,0.623 -2.803,1.324 -3.736,2.102 -0.935,0.788 -1.617,1.742 -2.044,2.871 -0.429,1.129 -0.643,2.521 -0.643,4.155 0,3.046 0.915,5.265 2.744,6.666 1.83,1.412 4.847,2.113 9.051,2.113 2.803,0 5.333,-0.292 7.591,-0.876 2.258,-0.584 4.515,-1.305 6.773,-2.161 l 1.284,6.939 c -2.335,0.924 -4.845,1.645 -7.532,2.18 -2.685,0.535 -5.547,0.807 -8.583,0.807 -6.851,0 -11.853,-1.362 -15.007,-4.096 -3.152,-2.736 -4.729,-6.832 -4.729,-12.291 0,-2.493 0.331,-4.662 0.993,-6.492 0.661,-1.839 1.654,-3.435 2.978,-4.797 1.323,-1.363 3.036,-2.54 5.138,-3.514 2.102,-0.973 4.632,-1.849 7.591,-2.627 2.491,-0.633 4.554,-1.295 6.19,-1.995 1.634,-0.701 2.938,-1.499 3.912,-2.395 0.972,-0.904 1.654,-1.956 2.043,-3.162 0.389,-1.207 0.584,-2.637 0.584,-4.272 0,-3.747 -0.954,-6.219 -2.862,-7.436 -1.907,-1.206 -4.845,-1.809 -8.816,-1.809 -3.426,0 -6.521,0.292 -9.284,0.876 -2.764,0.584 -5.353,1.381 -7.766,2.393 l -1.869,-7.055 c 2.725,-1.002 5.567,-1.761 8.525,-2.296 2.958,-0.536 6.307,-0.808 10.043,-0.808 7.319,0 12.554,1.265 15.707,3.805 3.154,2.53 4.73,6.958 4.73,13.284 0,2.413 -0.253,4.524 -0.759,6.315 m 29.604,-22.003 v 27.327 h 6.073 l 19.619,-27.327 h 10.392 l -22.771,31.297 20.67,27.677 h -9.576 l -17.751,-24.523 h -6.656 v 49.164 h -8.409 V 44.657 Z m 82.096,0.117 c 3.037,1.011 5.567,2.705 7.591,5.08 2.024,2.374 3.563,5.547 4.613,9.517 1.051,3.971 1.576,8.914 1.576,14.831 0,5.839 -0.544,10.725 -1.634,14.657 -1.09,3.931 -2.667,7.103 -4.73,9.517 -2.063,2.413 -4.594,4.126 -7.591,5.138 -2.997,1.013 -6.442,1.518 -10.335,1.518 -3.97,0 -7.473,-0.525 -10.51,-1.576 -3.036,-1.052 -5.606,-2.783 -7.707,-5.197 -2.103,-2.413 -3.679,-5.606 -4.73,-9.576 -1.052,-3.97 -1.577,-8.875 -1.577,-14.714 0,-5.839 0.525,-10.725 1.577,-14.656 1.051,-3.932 2.627,-7.085 4.73,-9.459 2.101,-2.375 4.671,-4.069 7.707,-5.08 3.037,-1.012 6.54,-1.518 10.51,-1.518 3.971,0 7.474,0.506 10.51,1.518 m -18.1,7.24 c -2.025,0.856 -3.66,2.219 -4.906,4.088 -1.245,1.868 -2.121,4.3 -2.627,7.299 -0.505,2.997 -0.758,6.636 -0.758,10.918 0,4.438 0.253,8.136 0.758,11.094 0.506,2.958 1.382,5.333 2.627,7.124 1.246,1.79 2.881,3.075 4.906,3.854 2.024,0.778 4.515,1.168 7.473,1.168 3.036,0 5.547,-0.409 7.532,-1.227 1.986,-0.817 3.601,-2.121 4.847,-3.912 1.246,-1.791 2.122,-4.184 2.628,-7.182 0.506,-2.998 0.759,-6.637 0.759,-10.919 0,-4.282 -0.253,-7.921 -0.759,-10.918 -0.506,-2.999 -1.382,-5.431 -2.628,-7.299 -1.246,-1.869 -2.861,-3.232 -4.847,-4.088 -1.985,-0.857 -4.496,-1.284 -7.532,-1.284 -2.958,0 -5.449,0.427 -7.473,1.284 m 130.677,76.258 h -8.409 v -25.458 c -1.556,0.778 -3.464,1.342 -5.722,1.693 -2.257,0.351 -4.437,0.525 -6.54,0.525 -5.137,0 -9.419,-0.797 -12.845,-2.393 -3.425,-1.597 -6.17,-3.835 -8.234,-6.715 -2.062,-2.881 -3.503,-6.346 -4.32,-10.394 -0.817,-4.048 -1.227,-8.525 -1.227,-13.429 0,-10.199 1.674,-17.557 5.022,-22.073 3.348,-4.515 8.331,-6.772 14.948,-6.772 4.282,0 8.019,0.817 11.211,2.452 3.193,1.635 5.839,3.893 7.942,6.774 h 0.584 v -7.825 h 7.59 z m -32.523,-75.733 c -1.752,1.207 -3.075,2.842 -3.971,4.905 -0.895,2.064 -1.479,4.418 -1.752,7.066 -0.272,2.646 -0.409,5.41 -0.409,8.291 0,3.348 0.195,6.54 0.584,9.576 0.39,3.036 1.227,5.684 2.512,7.942 1.284,2.256 3.191,4.067 5.721,5.429 2.531,1.363 5.937,2.044 10.219,2.044 2.024,0 4.068,-0.194 6.131,-0.584 2.063,-0.389 3.756,-0.895 5.079,-1.518 V 61.239 c -1.79,-2.958 -4.164,-5.449 -7.123,-7.473 -2.958,-2.025 -6.267,-3.036 -9.927,-3.036 -2.958,0 -5.313,0.603 -7.064,1.809 m 100.372,18.394 v 1.985 c 0,4.438 -0.233,8.622 -0.7,12.554 -0.468,3.931 -1.46,7.338 -2.979,10.218 -1.517,2.88 -3.736,5.158 -6.656,6.832 -2.919,1.673 -6.87,2.51 -11.854,2.51 -5.059,0 -9.166,-0.876 -12.319,-2.628 -3.153,-1.751 -5.605,-4.086 -7.357,-7.006 -1.752,-2.919 -2.959,-6.306 -3.62,-10.16 -0.662,-3.854 -0.994,-7.921 -0.994,-12.204 0,-5.137 0.429,-9.576 1.286,-13.312 0.856,-3.737 2.257,-6.832 4.204,-9.284 1.946,-2.452 4.496,-4.263 7.648,-5.431 3.153,-1.168 7.027,-1.751 11.62,-1.751 3.659,0 7.241,0.418 10.744,1.265 3.503,0.846 6.384,1.917 8.642,3.22 l -1.519,6.492 c -2.491,-1.09 -5.119,-1.947 -7.882,-2.57 -2.764,-0.622 -5.859,-0.933 -9.284,-0.933 -2.803,0 -5.236,0.272 -7.298,0.817 -2.064,0.555 -3.777,1.586 -5.139,3.114 -1.362,1.528 -2.413,3.591 -3.153,6.17 -0.74,2.579 -1.149,5.946 -1.227,10.102 z m -15.182,25.107 c 1.869,-1.012 3.31,-2.393 4.322,-4.145 1.011,-1.752 1.673,-3.815 1.985,-6.19 0.311,-2.375 0.467,-4.924 0.467,-7.649 h -29.429 c 0.156,3.347 0.526,6.267 1.109,8.759 0.584,2.491 1.46,4.515 2.628,6.072 1.168,1.557 2.686,2.725 4.555,3.504 1.868,0.778 4.204,1.168 7.007,1.168 3.036,0 5.488,-0.506 7.356,-1.519 m 44.728,7.591 h -8.408 V 42.555 c 0,-2.336 -0.157,-4.321 -0.467,-5.956 -0.312,-1.635 -0.876,-3.036 -1.693,-4.204 -0.819,-1.168 -1.889,-2.16 -3.212,-2.978 -1.324,-0.817 -2.958,-1.615 -4.906,-2.394 l 2.687,-6.539 c 3.036,1.011 5.586,2.16 7.649,3.444 2.063,1.285 3.699,2.803 4.905,4.555 1.207,1.752 2.083,3.835 2.627,6.248 0.545,2.413 0.818,5.255 0.818,8.525 z m 0.584,25.458 h -9.576 v -9.692 h 9.576 z m 24.523,-36.436 c 2.959,1.713 5.742,2.959 8.35,3.738 2.608,0.778 5.587,1.168 8.934,1.168 2.647,0 4.808,-0.234 6.482,-0.692 1.674,-0.466 2.997,-1.245 3.97,-2.364 0.973,-1.109 1.634,-2.569 1.985,-4.38 0.351,-1.809 0.525,-4.018 0.525,-6.627 v -5.207 c -1.868,0.39 -3.6,0.701 -5.196,0.935 -1.596,0.233 -3.523,0.35 -5.78,0.35 -3.504,0 -6.716,-0.311 -9.635,-0.934 -2.92,-0.633 -5.449,-1.703 -7.591,-3.221 -2.14,-1.528 -3.814,-3.523 -5.021,-5.975 -1.207,-2.462 -1.81,-5.567 -1.81,-9.314 0,-5.469 1.401,-9.653 4.203,-12.544 2.804,-2.891 7.202,-4.33 13.197,-4.33 7.551,0 13.352,2.413 17.4,7.24 h 0.584 c 0.311,-4.827 3.114,-7.24 8.408,-7.24 1.323,0 2.452,0.116 3.387,0.34 0.934,0.233 1.829,0.545 2.686,0.925 l -1.168,6.091 c -0.779,-0.311 -1.634,-0.466 -2.569,-0.466 -1.09,0 -1.81,0.292 -2.161,0.876 -0.35,0.584 -0.525,1.625 -0.525,3.104 v 30.781 c 0,3.503 -0.33,6.531 -0.993,9.07 -0.662,2.53 -1.791,4.623 -3.386,6.258 -1.596,1.634 -3.679,2.841 -6.248,3.629 -2.569,0.779 -5.761,1.168 -9.576,1.168 -3.737,0 -7.298,-0.437 -10.685,-1.303 -3.387,-0.867 -6.716,-2.297 -9.985,-4.273 z m 6.423,-39.987 c -1.713,1.606 -2.568,4.214 -2.568,7.805 0,4.778 1.439,8.009 4.32,9.692 2.881,1.684 6.89,2.521 12.028,2.521 1.947,0 3.738,-0.097 5.372,-0.291 1.635,-0.196 3.193,-0.488 4.671,-0.886 V 59.069 c -1.868,-2.432 -4.028,-4.505 -6.48,-6.228 -2.453,-1.723 -5.625,-2.579 -9.518,-2.579 -3.504,0 -6.112,0.799 -7.825,2.404 m 73.222,-0.184 h -0.467 l -16.116,51.149 h -8.525 l 19.152,-58.974 h 10.977 l 19.27,58.974 h -8.059 z m 85.483,-7.825 v 40.289 c 0,3.192 -0.253,6.034 -0.759,8.525 -0.505,2.491 -1.401,4.594 -2.686,6.306 -1.284,1.713 -2.978,3.017 -5.08,3.913 -2.102,0.895 -4.749,1.342 -7.941,1.342 -4.749,0 -8.876,-1.031 -12.379,-3.094 -3.503,-2.064 -6.383,-4.575 -8.641,-7.533 h -0.584 v 9.226 h -7.591 V 44.657 h 8.408 V 85.88 c 2.958,4.282 6.033,7.299 9.226,9.051 3.192,1.752 6.384,2.628 9.576,2.628 3.581,0 6.15,-1.052 7.707,-3.154 1.558,-2.102 2.336,-5.799 2.336,-11.093 V 44.657 Z m 55.938,0.117 c 3.037,1.011 5.567,2.705 7.591,5.08 2.024,2.374 3.561,5.547 4.613,9.517 1.051,3.971 1.576,8.914 1.576,14.831 0,5.839 -0.545,10.725 -1.635,14.657 -1.09,3.931 -2.667,7.103 -4.729,9.517 -2.064,2.413 -4.594,4.126 -7.591,5.138 -2.997,1.013 -6.442,1.518 -10.335,1.518 -3.971,0 -7.474,-0.525 -10.511,-1.576 -3.036,-1.052 -5.605,-2.783 -7.707,-5.197 -2.102,-2.413 -3.679,-5.606 -4.729,-9.576 -1.051,-3.97 -1.576,-8.875 -1.576,-14.714 0,-5.839 0.525,-10.725 1.576,-14.656 1.05,-3.932 2.627,-7.085 4.729,-9.459 2.102,-2.375 4.671,-4.069 7.707,-5.08 3.037,-1.012 6.54,-1.518 10.511,-1.518 3.971,0 7.474,0.506 10.51,1.518 m -18.101,7.24 c -2.024,0.856 -3.659,2.219 -4.904,4.088 -1.246,1.868 -2.122,4.3 -2.628,7.299 -0.506,2.997 -0.759,6.636 -0.759,10.918 0,4.438 0.253,8.136 0.759,11.094 0.506,2.958 1.382,5.333 2.628,7.124 1.245,1.79 2.88,3.075 4.904,3.854 2.025,0.778 4.516,1.168 7.474,1.168 3.036,0 5.547,-0.409 7.532,-1.227 1.985,-0.817 3.602,-2.121 4.847,-3.912 1.246,-1.791 2.122,-4.184 2.628,-7.182 0.505,-2.998 0.758,-6.637 0.758,-10.919 0,-4.282 -0.253,-7.921 -0.758,-10.918 -0.506,-2.999 -1.382,-5.431 -2.628,-7.299 -1.245,-1.869 -2.862,-3.232 -4.847,-4.088 -1.985,-0.857 -4.496,-1.284 -7.532,-1.284 -2.958,0 -5.449,0.427 -7.474,1.284 m 88.578,14.646 c -0.506,1.791 -1.421,3.397 -2.744,4.798 -1.324,1.402 -3.095,2.676 -5.313,3.805 -2.219,1.129 -5.042,2.161 -8.467,3.104 -2.258,0.623 -4.165,1.246 -5.723,1.869 -1.556,0.623 -2.803,1.324 -3.736,2.102 -0.935,0.788 -1.616,1.742 -2.044,2.871 -0.428,1.129 -0.643,2.521 -0.643,4.155 0,3.046 0.915,5.265 2.744,6.666 1.831,1.412 4.847,2.113 9.051,2.113 2.803,0 5.333,-0.292 7.591,-0.876 2.258,-0.584 4.516,-1.305 6.774,-2.161 l 1.284,6.939 c -2.335,0.924 -4.846,1.645 -7.533,2.18 -2.685,0.535 -5.546,0.807 -8.583,0.807 -6.851,0 -11.853,-1.362 -15.006,-4.096 -3.153,-2.736 -4.73,-6.832 -4.73,-12.291 0,-2.493 0.331,-4.662 0.993,-6.492 0.661,-1.839 1.655,-3.435 2.978,-4.797 1.323,-1.363 3.036,-2.54 5.139,-3.514 2.101,-0.973 4.631,-1.849 7.59,-2.627 2.492,-0.633 4.554,-1.295 6.189,-1.995 1.636,-0.701 2.939,-1.499 3.913,-2.395 0.973,-0.904 1.654,-1.956 2.043,-3.162 0.39,-1.207 0.584,-2.637 0.584,-4.272 0,-3.747 -0.953,-6.219 -2.861,-7.436 -1.908,-1.206 -4.846,-1.809 -8.817,-1.809 -3.426,0 -6.52,0.292 -9.284,0.876 -2.764,0.584 -5.353,1.381 -7.766,2.393 l -1.869,-7.055 c 2.726,-1.002 5.567,-1.761 8.526,-2.296 2.958,-0.536 6.305,-0.808 10.043,-0.808 7.318,0 12.553,1.265 15.707,3.805 3.153,2.53 4.729,6.958 4.729,13.284 0,2.413 -0.253,4.524 -0.759,6.315 m 44.201,30.081 v 6.89 h -13.429 v 15.766 l -8.408,-1.402 v -14.364 h -7.707 l -0.819,-6.89 h 8.526 V 57.97 c 0,-5.139 1.031,-8.875 3.094,-11.211 2.064,-2.336 5.431,-3.503 10.102,-3.503 1.868,0 3.737,0.194 5.605,0.583 1.868,0.39 3.581,1.052 5.139,1.985 l -1.752,6.19 c -1.323,-0.623 -2.569,-1.031 -3.737,-1.226 -1.168,-0.195 -2.335,-0.292 -3.503,-0.292 -1.168,0 -2.161,0.097 -2.979,0.292 -0.817,0.195 -1.478,0.622 -1.985,1.284 -0.506,0.663 -0.895,1.577 -1.167,2.745 -0.274,1.168 -0.409,2.686 -0.409,4.554 v 37.37 z m 63.762,-15.765 h 18.569 l 18.685,-36.319 h 10.159 l -19.502,37.253 c 6.073,1.09 10.549,3.484 13.43,7.182 2.881,3.698 4.321,9.089 4.321,16.174 0,4.282 -0.545,7.902 -1.635,10.86 -1.09,2.959 -2.784,5.333 -5.08,7.124 -2.296,1.791 -5.197,3.075 -8.7,3.854 -3.504,0.778 -7.63,1.168 -12.379,1.168 h -26.743 V 44.657 h 8.875 z m 0,39.822 h 17.167 c 3.271,0 6.131,-0.214 8.584,-0.643 2.452,-0.437 4.477,-1.236 6.072,-2.403 1.596,-1.178 2.803,-2.793 3.621,-4.866 0.817,-2.073 1.226,-4.788 1.226,-8.146 0,-3.435 -0.429,-6.228 -1.285,-8.379 -0.857,-2.15 -2.102,-3.814 -3.736,-4.982 -1.635,-1.168 -3.66,-1.956 -6.074,-2.346 -2.413,-0.388 -5.215,-0.584 -8.408,-0.584 h -17.167 z m 108.84,-49.865 v 1.985 c 0,4.438 -0.233,8.622 -0.7,12.554 -0.468,3.931 -1.46,7.338 -2.979,10.218 -1.517,2.88 -3.736,5.158 -6.656,6.832 -2.919,1.673 -6.87,2.51 -11.853,2.51 -5.061,0 -9.167,-0.876 -12.321,-2.628 -3.152,-1.751 -5.605,-4.086 -7.356,-7.006 -1.752,-2.919 -2.959,-6.306 -3.621,-10.16 -0.661,-3.854 -0.993,-7.921 -0.993,-12.204 0,-5.137 0.429,-9.576 1.285,-13.312 0.856,-3.737 2.257,-6.832 4.204,-9.284 1.947,-2.452 4.497,-4.263 7.649,-5.431 3.153,-1.168 7.027,-1.751 11.62,-1.751 3.659,0 7.241,0.418 10.743,1.265 3.504,0.846 6.385,1.917 8.642,3.22 l -1.518,6.492 c -2.491,-1.09 -5.119,-1.947 -7.882,-2.57 -2.764,-0.622 -5.859,-0.933 -9.285,-0.933 -2.802,0 -5.235,0.272 -7.298,0.817 -2.063,0.555 -3.776,1.586 -5.139,3.114 -1.362,1.528 -2.413,3.591 -3.152,6.17 -0.741,2.579 -1.149,5.946 -1.227,10.102 z M 3162.61,96.04 c 1.869,-1.012 3.31,-2.393 4.322,-4.145 1.011,-1.752 1.673,-3.815 1.985,-6.19 0.312,-2.375 0.467,-4.924 0.467,-7.649 h -29.429 c 0.156,3.347 0.525,6.267 1.109,8.759 0.584,2.491 1.46,4.515 2.628,6.072 1.168,1.557 2.686,2.725 4.555,3.504 1.868,0.778 4.204,1.168 7.007,1.168 3.036,0 5.488,-0.506 7.356,-1.519 m 35.969,-74.623 h 8.408 v 23.59 c 1.47,-0.623 3.27,-1.07 5.372,-1.343 2.102,-0.272 4.244,-0.408 6.423,-0.408 5.206,0 9.557,0.778 13.021,2.335 3.455,1.558 6.199,3.776 8.233,6.656 2.025,2.881 3.455,6.326 4.321,10.336 0.856,4.009 1.285,8.427 1.285,13.254 0,10.355 -1.655,17.81 -4.963,22.363 -3.319,4.555 -8.234,6.832 -14.773,6.832 -4.37,0 -8.107,-0.895 -11.212,-2.685 -3.113,-1.791 -5.77,-4.321 -7.94,-7.591 h -0.584 v 8.875 h -7.591 z m 32.465,74.273 c 1.635,-1.246 2.9,-2.9 3.796,-4.963 0.886,-2.064 1.469,-4.418 1.751,-7.066 0.272,-2.646 0.409,-5.372 0.409,-8.175 0,-3.269 -0.194,-6.403 -0.584,-9.4 -0.399,-2.997 -1.227,-5.644 -2.511,-7.941 -1.284,-2.296 -3.153,-4.107 -5.605,-5.43 -2.452,-1.324 -5.741,-1.985 -9.868,-1.985 -2.035,0 -4.078,0.155 -6.131,0.466 -2.064,0.312 -3.844,0.779 -5.314,1.402 v 33.399 c 1.937,3.348 4.389,6.112 7.358,8.291 2.958,2.181 6.305,3.271 10.043,3.271 2.802,0 5.021,-0.623 6.656,-1.869 m 35.151,7.941 V 63.342 c 0,-6.462 1.149,-11.425 3.445,-14.89 2.287,-3.465 6.549,-5.196 12.788,-5.196 4.671,0 8.739,0.973 12.203,2.919 3.455,1.946 6.316,4.36 8.584,7.24 h 0.584 v -8.758 h 7.59 v 58.974 h -8.409 v -41.69 c -2.967,-4.126 -6.003,-7.027 -9.108,-8.701 -3.114,-1.673 -6.238,-2.51 -9.343,-2.51 -3.503,0 -6.033,1.05 -7.591,3.153 -1.566,2.102 -2.334,5.8 -2.334,11.094 v 38.654 z m 69.708,-57.223 c 3.192,-1.089 6.433,-1.887 9.702,-2.393 3.271,-0.506 6.414,-0.759 9.451,-0.759 5.527,0 10.101,0.778 13.721,2.335 3.62,1.558 6.481,3.776 8.583,6.656 2.102,2.881 3.572,6.307 4.379,10.278 0.818,3.97 1.227,8.408 1.227,13.312 0,10.355 -1.625,17.81 -4.896,22.363 -3.269,4.555 -8.222,6.832 -14.841,6.832 -4.125,0 -7.667,-0.778 -10.626,-2.336 -2.958,-1.556 -5.528,-3.814 -7.707,-6.772 h -0.584 v 32.348 h -8.409 z m 32.465,49.282 c 1.645,-1.246 2.901,-2.919 3.796,-5.022 0.895,-2.101 1.479,-4.496 1.751,-7.182 0.273,-2.685 0.409,-5.43 0.409,-8.233 0,-3.348 -0.195,-6.5 -0.584,-9.459 -0.389,-2.958 -1.226,-5.547 -2.511,-7.766 -1.285,-2.218 -3.143,-3.99 -5.605,-5.313 -2.453,-1.324 -5.78,-1.985 -9.984,-1.985 -2.025,0 -4.049,0.135 -6.074,0.408 -2.024,0.272 -3.775,0.642 -5.254,1.109 v 33.867 c 1.946,3.27 4.398,5.995 7.367,8.174 2.948,2.181 6.296,3.271 10.043,3.271 2.793,0 5.021,-0.623 6.646,-1.869 m 55.938,-50.45 -1.518,6.19 c -1.558,-0.622 -3.348,-0.934 -5.372,-0.934 -0.925,0 -1.732,0.097 -2.395,0.292 -0.661,0.195 -1.186,0.584 -1.576,1.167 -0.388,0.584 -0.68,1.383 -0.876,2.395 -0.194,1.011 -0.292,2.374 -0.292,4.087 v 69.835 h -8.408 V 57.035 c 0,-4.904 0.896,-8.427 2.687,-10.568 1.79,-2.141 4.865,-3.211 9.225,-3.211 1.557,0 3.075,0.155 4.564,0.467 1.469,0.311 2.794,0.817 3.961,1.517 m 25.341,58.391 h -8.408 V 44.657 h 8.408 z m 0.584,25.458 h -9.576 v -9.692 h 9.576 z m 32.582,-84.432 v 27.327 h 6.073 l 19.619,-27.327 h 10.393 l -22.772,31.297 20.67,27.677 h -9.576 l -17.75,-24.523 h -6.657 v 49.164 h -8.408 V 44.657 Z m 93.424,26.276 v 1.985 c 0,4.438 -0.233,8.622 -0.7,12.554 -0.468,3.931 -1.46,7.338 -2.978,10.218 -1.518,2.88 -3.737,5.158 -6.657,6.832 -2.919,1.673 -6.87,2.51 -11.853,2.51 -5.06,0 -9.167,-0.876 -12.32,-2.628 -3.153,-1.751 -5.606,-4.086 -7.357,-7.006 -1.752,-2.919 -2.959,-6.306 -3.621,-10.16 -0.661,-3.854 -0.992,-7.921 -0.992,-12.204 0,-5.137 0.429,-9.576 1.284,-13.312 0.856,-3.737 2.259,-6.832 4.204,-9.284 1.947,-2.452 4.496,-4.263 7.649,-5.431 3.154,-1.168 7.027,-1.751 11.621,-1.751 3.659,0 7.24,0.418 10.744,1.265 3.503,0.846 6.383,1.917 8.641,3.22 l -1.518,6.492 c -2.491,-1.09 -5.119,-1.947 -7.883,-2.57 -2.764,-0.622 -5.858,-0.933 -9.284,-0.933 -2.803,0 -5.236,0.272 -7.299,0.817 -2.063,0.555 -3.775,1.586 -5.138,3.114 -1.363,1.528 -2.414,3.591 -3.153,6.17 -0.74,2.579 -1.148,5.946 -1.227,10.102 z m -15.181,25.107 c 1.869,-1.012 3.309,-2.393 4.321,-4.145 1.012,-1.752 1.674,-3.815 1.985,-6.19 0.312,-2.375 0.467,-4.924 0.467,-7.649 H 3538.4 c 0.157,3.347 0.526,6.267 1.11,8.759 0.584,2.491 1.46,4.515 2.628,6.072 1.168,1.557 2.685,2.725 4.554,3.504 1.869,0.778 4.204,1.168 7.007,1.168 3.036,0 5.489,-0.506 7.357,-1.519 m 115.088,-20.378 c -0.741,2.452 -2.025,4.593 -3.855,6.423 -1.829,1.829 -4.34,3.465 -7.532,4.904 -3.192,1.441 -7.24,2.94 -12.145,4.497 -2.725,0.779 -5.099,1.596 -7.124,2.453 -2.024,0.856 -3.698,1.868 -5.021,3.036 -1.323,1.168 -2.317,2.607 -2.978,4.32 -0.662,1.713 -0.993,3.855 -0.993,6.423 0,5.06 1.304,8.681 3.912,10.861 2.609,2.18 7.027,3.27 13.255,3.27 3.581,0 6.89,-0.312 9.927,-0.935 3.036,-0.622 6.15,-1.478 9.342,-2.568 l 1.518,7.473 c -3.192,1.246 -6.598,2.2 -10.219,2.862 -3.62,0.661 -7.259,0.992 -10.918,0.992 -8.875,0 -15.416,-1.888 -19.62,-5.664 -4.204,-3.775 -6.305,-9.4 -6.305,-16.874 0,-3.504 0.466,-6.521 1.401,-9.051 0.934,-2.53 2.355,-4.729 4.263,-6.598 1.907,-1.869 4.32,-3.445 7.24,-4.73 2.919,-1.284 6.325,-2.472 10.218,-3.562 3.504,-1.011 6.403,-2.024 8.7,-3.036 2.297,-1.012 4.127,-2.16 5.488,-3.445 1.364,-1.284 2.297,-2.803 2.803,-4.555 0.507,-1.751 0.76,-3.834 0.76,-6.247 0,-2.959 -0.351,-5.411 -1.052,-7.357 -0.7,-1.946 -1.771,-3.485 -3.211,-4.613 -1.44,-1.129 -3.25,-1.908 -5.431,-2.335 -2.179,-0.429 -4.788,-0.643 -7.824,-0.643 -3.892,0 -7.726,0.331 -11.503,0.992 -3.775,0.662 -7.299,1.577 -10.568,2.745 l -1.868,-7.59 c 3.503,-1.325 7.085,-2.297 10.743,-2.92 3.659,-0.623 7.708,-0.934 12.145,-0.934 4.983,0 9.226,0.428 12.73,1.284 3.503,0.857 6.364,2.219 8.583,4.087 2.219,1.869 3.814,4.302 4.788,7.299 0.973,2.998 1.46,6.599 1.46,10.803 0,3.503 -0.37,6.481 -1.109,8.933 m 40.814,-30.422 -1.519,6.19 c -1.556,-0.622 -3.347,-0.934 -5.372,-0.934 -0.933,0 -1.731,0.097 -2.393,0.292 -0.662,0.195 -1.188,0.584 -1.576,1.167 -0.39,0.584 -0.682,1.383 -0.876,2.395 -0.195,1.011 -0.292,2.374 -0.292,4.087 v 69.835 h -8.409 V 57.035 c 0,-4.904 0.896,-8.427 2.686,-10.568 1.791,-2.141 4.866,-3.211 9.226,-3.211 1.557,0 3.075,0.155 4.554,0.467 1.48,0.311 2.803,0.817 3.971,1.517 m 47.764,-0.466 c 3.036,1.011 5.566,2.705 7.591,5.08 2.023,2.374 3.561,5.547 4.612,9.517 1.051,3.971 1.576,8.914 1.576,14.831 0,5.839 -0.545,10.725 -1.635,14.657 -1.09,3.931 -2.666,7.103 -4.729,9.517 -2.064,2.413 -4.594,4.126 -7.591,5.138 -2.997,1.013 -6.442,1.518 -10.335,1.518 -3.971,0 -7.474,-0.525 -10.51,-1.576 -3.037,-1.052 -5.606,-2.783 -7.708,-5.197 -2.101,-2.413 -3.679,-5.606 -4.729,-9.576 -1.051,-3.97 -1.576,-8.875 -1.576,-14.714 0,-5.839 0.525,-10.725 1.576,-14.656 1.05,-3.932 2.628,-7.085 4.729,-9.459 2.102,-2.375 4.671,-4.069 7.708,-5.08 3.036,-1.012 6.539,-1.518 10.51,-1.518 3.971,0 7.474,0.506 10.511,1.518 m -18.102,7.24 c -2.024,0.856 -3.659,2.219 -4.904,4.088 -1.246,1.868 -2.122,4.3 -2.628,7.299 -0.506,2.997 -0.759,6.636 -0.759,10.918 0,4.438 0.253,8.136 0.759,11.094 0.506,2.958 1.382,5.333 2.628,7.124 1.245,1.79 2.88,3.075 4.904,3.854 2.025,0.778 4.516,1.168 7.475,1.168 3.036,0 5.547,-0.409 7.531,-1.227 1.986,-0.817 3.602,-2.121 4.847,-3.912 1.246,-1.791 2.122,-4.184 2.628,-7.182 0.505,-2.998 0.758,-6.637 0.758,-10.919 0,-4.282 -0.253,-7.921 -0.758,-10.918 -0.506,-2.999 -1.382,-5.431 -2.628,-7.299 -1.245,-1.869 -2.861,-3.232 -4.847,-4.088 -1.984,-0.857 -4.495,-1.284 -7.531,-1.284 -2.959,0 -5.45,0.427 -7.475,1.284 m 68.667,0.468 h -0.467 l -16.116,51.149 h -8.524 l 19.151,-58.974 h 10.978 l 19.268,58.974 h -8.057 z m 82.214,18.451 v 1.985 c 0,4.438 -0.233,8.622 -0.701,12.554 -0.467,3.931 -1.459,7.338 -2.978,10.218 -1.518,2.88 -3.737,5.158 -6.656,6.832 -2.92,1.673 -6.871,2.51 -11.853,2.51 -5.061,0 -9.167,-0.876 -12.321,-2.628 -3.153,-1.751 -5.605,-4.086 -7.357,-7.006 -1.752,-2.919 -2.958,-6.306 -3.62,-10.16 -0.662,-3.854 -0.993,-7.921 -0.993,-12.204 0,-5.137 0.428,-9.576 1.285,-13.312 0.856,-3.737 2.257,-6.832 4.204,-9.284 1.946,-2.452 4.496,-4.263 7.649,-5.431 3.153,-1.168 7.026,-1.751 11.619,-1.751 3.659,0 7.241,0.418 10.744,1.265 3.503,0.846 6.384,1.917 8.642,3.22 l -1.519,6.492 c -2.491,-1.09 -5.118,-1.947 -7.881,-2.57 -2.765,-0.622 -5.859,-0.933 -9.285,-0.933 -2.802,0 -5.236,0.272 -7.298,0.817 -2.064,0.555 -3.777,1.586 -5.139,3.114 -1.362,1.528 -2.413,3.591 -3.153,6.17 -0.74,2.579 -1.149,5.946 -1.226,10.102 z m -15.182,25.107 c 1.869,-1.012 3.309,-2.393 4.321,-4.145 1.012,-1.752 1.673,-3.815 1.985,-6.19 0.312,-2.375 0.468,-4.924 0.468,-7.649 h -29.429 c 0.155,3.347 0.525,6.267 1.109,8.759 0.584,2.491 1.46,4.515 2.627,6.072 1.168,1.557 2.687,2.725 4.555,3.504 1.868,0.778 4.204,1.168 7.007,1.168 3.036,0 5.489,-0.506 7.357,-1.519 m 81.63,-51.383 v 40.289 c 0,3.192 -0.254,6.034 -0.76,8.525 -0.505,2.491 -1.401,4.594 -2.685,6.306 -1.285,1.713 -2.979,3.017 -5.08,3.913 -2.103,0.895 -4.749,1.342 -7.942,1.342 -4.749,0 -8.875,-1.031 -12.378,-3.094 -3.503,-2.064 -6.384,-4.575 -8.642,-7.533 h -0.583 v 9.226 h -7.591 V 44.657 h 8.407 V 85.88 c 2.959,4.282 6.034,7.299 9.227,9.051 3.191,1.752 6.384,2.628 9.575,2.628 3.582,0 6.15,-1.052 7.708,-3.154 1.557,-2.102 2.336,-5.799 2.336,-11.093 V 44.657 Z m 32.581,58.974 h -8.408 V 44.657 h 8.408 z m 0.584,25.458 h -9.576 v -9.692 h 9.576 z m 32.933,-25.458 h -8.408 V 42.555 c 0,-2.336 -0.157,-4.321 -0.468,-5.956 -0.312,-1.635 -0.875,-3.036 -1.693,-4.204 -0.818,-1.168 -1.888,-2.16 -3.211,-2.978 -1.325,-0.817 -2.959,-1.615 -4.906,-2.394 l 2.687,-6.539 c 3.036,1.011 5.586,2.16 7.648,3.444 2.064,1.285 3.699,2.803 4.906,4.555 1.207,1.752 2.083,3.835 2.627,6.248 0.545,2.413 0.818,5.255 0.818,8.525 z m 0.583,25.458 h -9.575 v -9.692 h 9.575 z m 66.799,-58.156 v 1.985 c 0,4.438 -0.234,8.622 -0.7,12.554 -0.468,3.931 -1.46,7.338 -2.979,10.218 -1.518,2.88 -3.736,5.158 -6.656,6.832 -2.919,1.673 -6.87,2.51 -11.854,2.51 -5.059,0 -9.167,-0.876 -12.32,-2.628 -3.152,-1.751 -5.606,-4.086 -7.357,-7.006 -1.751,-2.919 -2.959,-6.306 -3.621,-10.16 -0.661,-3.854 -0.992,-7.921 -0.992,-12.204 0,-5.137 0.429,-9.576 1.284,-13.312 0.857,-3.737 2.259,-6.832 4.204,-9.284 1.948,-2.452 4.497,-4.263 7.65,-5.431 3.153,-1.168 7.026,-1.751 11.62,-1.751 3.659,0 7.24,0.418 10.743,1.265 3.504,0.846 6.384,1.917 8.643,3.22 l -1.519,6.492 c -2.491,-1.09 -5.119,-1.947 -7.883,-2.57 -2.763,-0.622 -5.858,-0.933 -9.284,-0.933 -2.803,0 -5.235,0.272 -7.299,0.817 -2.062,0.555 -3.775,1.586 -5.137,3.114 -1.364,1.528 -2.414,3.591 -3.154,6.17 -0.74,2.579 -1.148,5.946 -1.226,10.102 z m -15.182,25.107 c 1.869,-1.012 3.31,-2.393 4.321,-4.145 1.012,-1.752 1.674,-3.815 1.986,-6.19 0.311,-2.375 0.467,-4.924 0.467,-7.649 h -29.429 c 0.156,3.347 0.525,6.267 1.109,8.759 0.584,2.491 1.46,4.515 2.628,6.072 1.168,1.557 2.686,2.725 4.555,3.504 1.868,0.778 4.204,1.168 7.007,1.168 3.036,0 5.488,-0.506 7.356,-1.519"
           style="fill:#000000;fill-opacity:1;fill-rule:nonzero;stroke:none"
           id="path30" />
        <g
           id="g32"
           transform="translate(1298.063,448.8586)">
          <path
             d="m 0,0 c -49.009,143.582 -152.817,269.422 -304.398,343.033 -179.881,87.371 -380.383,71.285 -535.74,-11.23 -68.492,-36.378 -129.198,-87.547 -171.2,-136.809 -35.92,-42.128 -53.136,-72.336 -53.136,-72.336 l 0.477,0.098 c 1.509,-0.964 20.836,-13.488 36.406,-27.307 18.355,-16.291 52.094,-46.966 92.072,-95.731 l 32.231,-0.059 c -67.898,87.42 -122.473,126.941 -126.473,129.773 1.518,2.111 19.357,26.772 42.284,54.04 9.285,11.046 25.196,28.066 46.732,47.267 1.908,-0.38 33.565,-6.9 60.891,-17.556 25.04,-9.761 100.704,-35.949 186.275,-101.979 -38.635,-29.964 -74.584,-58.361 -104.295,-82.038 2.258,11.805 5.324,40.202 -4.632,52.104 -6.588,7.882 -11.24,10.042 -11.24,10.042 0,0 3.387,13.207 4.593,22.792 0.847,6.783 1.742,19.182 1.256,23.979 -0.603,5.937 -2.745,18.744 -4.652,23.395 -4.622,11.211 -15.541,19.25 -20.037,21.556 -4.497,2.306 -7.786,1.635 -10.968,1.275 -5.1,-0.565 -13.663,-5.178 -15.445,-10.403 -1.158,-3.387 -7.328,-16.486 -8.427,-21.721 -0.983,-4.701 -9.167,-18.734 13.459,-10.054 8.038,3.076 14.549,21.362 18.14,-10.403 0.467,-4.146 0.097,-11.308 -0.195,-14.023 -0.594,-5.401 -1.411,-15.065 -1.411,-15.065 0,0 -3.591,1.373 -9.187,2.764 -6.783,1.694 -13.459,0.399 -17.157,0.905 -3.698,0.516 -6.822,6.521 -7.075,11.912 -0.252,5.391 -0.963,12.154 -2.51,14.325 -1.548,2.16 -1.801,4.535 -9.547,3.912 -3.202,-0.253 -14.608,-11.367 -8.399,-35.365 1.645,-6.345 7.465,-19.678 18.938,-20.514 13.819,-1.013 21.731,0.904 28.767,-3.893 1.168,-0.789 -10.958,-20.602 -13.079,-38.022 -2.102,-17.225 -1.684,-38.917 5.051,-48.065 0.632,-0.856 1.537,-1.586 2.53,-2.258 8.038,-4.194 15.074,-9.371 21.4,-15.318 34.537,27.863 90.816,72.843 154.335,121.939 31.132,-25.945 63.12,-57.242 94.115,-94.962 h 32.134 c -34.109,43.841 -70.078,80.559 -105.754,110.747 23.006,17.663 46.693,35.647 70.457,53.398 29.108,21.74 55.247,40.756 78.72,57.426 69.494,-41.427 148.224,-107.039 216.832,-211.265 -9.488,-7.766 -19.726,-15.853 -30.314,-24.096 7.727,-4.613 14.393,-10.121 20.456,-16.018 8.146,6.393 15.96,12.641 23.434,18.733 6.861,5.187 10.17,8.223 19.512,16.184 42.44,35.823 72.92,65.767 95.089,89.444 6.569,-9.323 12.982,-18.908 19.229,-28.767 -2.355,-0.603 -4.311,-1.274 -5.41,-1.975 -4.555,-2.852 -5.421,-8.418 -3.971,-10.754 2.589,-4.175 3.795,-5.673 6.89,-6.15 4.321,-0.662 9.119,1.8 11.192,3.951 0.126,0.126 0.165,0.156 0.272,0.263 10.111,-17.021 19.152,-34.431 27.142,-52.143 0.292,-1.664 0.593,-3.367 0.924,-5.167 0.779,-4.282 1.227,-7.99 1.645,-11.62 7.455,5.304 15.999,9.809 26.12,12.973 -10.16,24.299 -21.964,48.366 -35.871,71.926 -9.624,16.291 -19.892,31.823 -30.548,46.839 15.658,17.721 25.692,30.441 32.689,37.857 C -72.774,104.791 -45.583,53.349 -26.5,0 Z m -820.344,33.925 c -0.739,-5.548 -2.141,-13.128 -4.545,-20.028 -1.868,-5.343 -2.364,-11.698 -6.598,-8.885 -2.783,1.849 -1.703,21.692 -0.769,30.285 0.769,7.133 4.156,25.176 10.374,23.599 4.399,-1.109 2.287,-19.424 1.538,-24.971 m 588.301,79.079 c -3.309,13.216 -10.909,46.762 -12.359,52.075 -1.44,5.323 -10.082,14.87 -12.807,19.211 -4.837,7.678 -14.559,27.122 -15.833,33.681 -0.098,0.506 -0.302,1.031 -0.536,1.557 35.677,-29.565 69.3,-64.161 99.887,-104.295 -12.642,-13.595 -27.619,-28.864 -45.574,-45.797 -1.323,11.6 -10.666,35.102 -12.778,43.568 m -249.531,124.158 c 37.078,25.896 66.332,45.106 88.617,59.1 38.041,-18.227 74.954,-41.126 109.959,-68.949 -1.596,0.457 -3.241,0.633 -4.856,0.38 -10.004,-1.587 -8.895,-10.861 -7.464,-19.882 1.43,-9.031 15.638,-33.234 18.646,-36.98 3.006,-3.748 3.396,-8.516 2.092,-11.737 -1.295,-3.221 -8.545,-10.033 -12.739,-15.532 -1.946,-2.54 -5.294,9.051 -11.221,22.101 -7.775,17.127 -15.823,25.253 -19.415,28.913 -3.6,3.649 -6.636,3.776 -10.159,3.201 -3.533,-0.545 -8.856,-8.884 -8.827,-12.845 0.029,-3.971 13.644,-18.354 21.001,-34.314 3.153,-6.851 9.314,-22.286 10.491,-29.711 1.178,-7.426 6.325,-29.624 16.573,-29.945 6.306,-0.214 6.345,13.284 12.466,25.614 2.472,4.983 13.868,21.39 13.868,21.39 0,0 0.02,-0.876 0.438,-4.281 0.399,-3.31 0.467,-12.107 9.08,-37.536 3.075,-9.07 6.15,-19.054 8.193,-28.854 0.692,-3.358 0.848,-10.384 5.256,-16.544 -8.671,-7.795 -17.985,-15.912 -27.901,-24.32 -67.441,101.473 -144.029,167.493 -214.098,210.731 m -143.299,-73.261 c 1.781,2.852 3.144,6.014 3.873,9.216 2.131,9.382 7.309,29.147 -2.705,53.252 -12,28.864 -24.115,41.447 -39.229,49.593 -13.848,7.454 -29.691,4.642 -32.874,-1.898 -3.192,-6.53 -2.967,-17.351 3.465,-19.96 6.433,-2.598 11.532,2.969 18.889,-1.226 13.265,-7.551 18.714,-16.067 27.191,-42.148 3.055,-9.4 1.586,-21.458 -1.733,-19.57 -3.308,1.888 -21.263,16.233 -45.427,50.712 -5.956,8.515 -26.305,46.167 -31.424,57.972 13.42,-1.956 27.551,-4.487 42.314,-7.864 18.441,-4.223 79.196,-16.3 154.549,-56.668 -25.945,-18.509 -54.877,-39.675 -86.953,-63.888 -3.318,-2.501 -6.627,-5.012 -9.936,-7.523 M -748.3,302.773 c -0.837,-1.508 -1.304,-3.231 -0.993,-5.207 1.042,-6.588 13.556,-40.678 37.36,-76.724 10.929,-16.544 27.765,-36.621 38.829,-46.333 6.024,-5.284 25.021,-22.792 33.848,-21.39 0.107,0.019 0.194,0.058 0.292,0.078 -11.455,-8.73 -22.821,-17.44 -34.032,-26.081 -76.472,60.151 -149.178,92.412 -194.965,108.46 -26.51,9.293 -48.017,15.142 -48.853,15.366 22.285,17.867 48.716,36.396 78.661,53.125 6.423,0.662 40.98,3.698 89.853,-1.294 m 227.751,36.698 c 33.711,-6.938 67.207,-17.303 100.051,-30.917 -17.468,-11.231 -38.907,-25.41 -64.667,-43.17 -0.175,1.022 -0.389,2.082 -0.72,3.328 -1.547,5.751 -36.99,39.024 -59.344,54.43 -22.129,15.259 -41.194,21.828 -57.874,25.691 -9.897,2.297 -11.931,1.732 -18.646,-4.642 -1.985,-1.878 12.048,-3.163 12.914,-6.394 0.593,-2.199 -6.608,-8.534 -2.52,-11.503 4.086,-2.968 24.776,-17.789 28.494,-18.412 3.717,-0.613 2.802,3.581 4.515,6.511 1.625,2.793 2.424,3.746 5.217,2.121 14.091,-8.233 45.135,-32.874 68.306,-58.04 0.906,-0.983 3.046,-2.082 5.548,-2.91 -2.112,-1.469 -4.058,-2.812 -6.219,-4.32 -81.717,45.622 -151.504,60.852 -182.45,67.265 -45.837,9.498 -89.026,11.338 -96.587,11.591 9.371,3.921 19.278,7.755 29.642,11.434 26.5,5.713 118.737,21.712 234.34,-2.063 m 7.853,23.853 c -37.009,8.009 -64.462,10.87 -76.393,11.804 15.317,0.856 31.005,1.11 47.013,0.672 4.496,-1.382 10.024,-3.212 16.175,-5.567 4.534,-1.742 9.03,-4.253 13.205,-6.909 m 16.34,9.332 c -0.107,-2.179 -0.292,-4.301 -0.613,-5.323 -0.389,-1.207 -5.81,3.153 -9.625,6.345 3.407,-0.311 6.812,-0.633 10.238,-1.022 m 69.757,-24.582 c 16.155,-8.486 30.187,-17.274 35.686,-20.913 -1.012,-0.623 -2.219,-1.372 -3.289,-2.035 -23.833,10.725 -47.793,19.561 -71.548,26.393 -3.095,0.896 -6.082,1.703 -9.099,2.521 0.136,1.761 0.243,3.532 0.399,5.157 0.457,4.779 -0.058,4.934 0.204,7.873 0.078,0.915 2.025,0.195 6.423,-0.914 4.399,-1.11 23.59,-8.808 41.224,-18.082 m 60.385,-6.316 c -1.071,-0.603 -4.944,-2.783 -11.6,-6.715 -7.941,4.827 -13.391,7.805 -28.894,16.184 -3.483,1.878 -9.303,4.837 -17.244,8.389 19.035,-4.759 38.304,-10.676 57.738,-17.858 M -135.388,158.86 c -6.024,-7.162 -12.875,-15.288 -20.894,-24.397 -60.54,78.739 -134.336,138.278 -210.818,177.623 19.493,11.571 29.419,16.525 31.308,17.439 5.235,-2.277 10.461,-4.583 15.716,-7.065 43.228,-20.398 82.029,-45.019 116.576,-72.822 l 0.896,-22.442 c 0,0 -3.28,6.239 -17.761,22.286 -14.228,15.756 -22.772,21.741 -25.526,24.066 -4.457,3.757 -8.321,1.217 -8.321,1.217 -2.657,-1.625 0.137,-4.924 3.835,-8.564 3.688,-3.64 33.516,-34.265 42.955,-53.515 5.431,-11.064 5.149,-18.772 6.647,-21.39 2.667,-4.642 7.776,-12.525 14.257,-10.773 5.45,1.47 5.401,4.895 5.255,10.968 -0.146,6.374 -2.725,27.317 -2.997,29.078 -0.282,1.771 -0.204,1.781 -0.204,1.781 0,0 17.059,-13.226 28.504,-29.867 5.109,-7.435 18.198,-28.844 20.378,-33.467 0.048,-0.097 0.146,-0.078 0.194,-0.156 m -451.356,-520.452 c -9.158,-15.678 -9.294,-21.613 -4.088,-35.403 0.944,-2.501 2.336,-5.284 3.553,-7.026 l 94.115,0.058 c -1.09,0.759 -2.375,1.888 -3.698,2.793 -2.2,1.527 -1.041,3.571 1.022,5.722 5.177,5.401 21.01,36.173 32.299,56.629 5.178,9.391 6.852,21.877 7.221,28.144 0.273,4.408 -3.999,28.698 -13.692,32.485 -6.53,2.54 -24.106,-3.193 -31.901,-17.236 -2.044,-3.697 -10.101,-18.5 -15.123,-27.141 -1.499,-2.57 -4.408,-17.887 8.282,-17.254 6.306,0.301 14.461,3.124 14.13,-2.356 -0.34,-5.488 -25.302,-42.858 -25.302,-42.858 0,0 -19.911,12.291 -23.989,14.296 -4.447,2.189 -9.664,7.454 -9.06,13.051 1.275,11.784 8.175,13.545 10.53,13.916 2.355,0.36 1.528,-3.981 5.916,-1.188 4.38,2.803 11.114,5.995 10.365,10.695 -0.74,4.701 -8.681,16.719 -14.374,14.618 -5.703,-2.113 -32.913,-19.211 -46.206,-41.945 M -674.845,18.967 C -680.782,17.293 -694.377,8.359 -706.289,0 h 84.452 c -0.506,0.876 -0.924,1.82 -1.479,2.637 -7.445,10.948 -27.044,23.23 -51.529,16.33 m 195.49,-176.056 c 42.459,-87.459 64.288,-170.937 73.786,-246.874 0.039,-0.331 1.129,-0.078 12.573,-0.176 11.717,-0.106 12.652,-0.067 12.613,0.253 -9.761,78.428 -32.202,166.822 -77.562,260.256 6.491,4.136 13.109,8.554 19.668,12.826 h -54.4 c 0.291,-0.554 0.613,-1.05 0.905,-1.605 0.331,-0.643 0.642,-1.276 0.982,-1.918 -59.343,-36.834 -114.727,-67.402 -158.831,-90.378 5.908,7.425 10.744,14.792 13.012,18.802 10.169,18.023 14.646,33.321 16.173,38.031 5.12,15.872 4.01,27.862 -0.525,37.068 h -41.321 v -24.932 c 4.701,2.54 8.428,4.126 10.228,3.133 5.956,-3.28 -1.81,-27.415 -6.773,-37.993 -1.09,-2.316 -2.257,-4.914 -3.455,-7.542 v -61.631 c 47.248,23.902 112.022,58.683 182.927,102.68 m -4.564,165.517 c 0.438,-2.92 0.905,-5.655 1.372,-8.428 h 30.636 c -11.523,39.997 -10.121,77.318 3.075,78.652 0,0 3.386,-12.253 10.14,-19.026 6.754,-6.773 20.417,-0.993 20.417,-0.993 0,0 10.17,-7.57 15.931,-55.626 0.107,-0.856 0.185,-1.878 0.244,-3.007 h 24.368 c -0.156,3.766 -0.166,7.376 -0.467,11.298 -1.548,19.844 -15.192,63.325 -20.68,65.855 -1.966,0.895 -0.127,11.678 -7.99,21.409 -7.601,9.421 -13.439,9.46 -18.189,8.944 -4.855,-0.516 -10.587,-3.961 -10.587,-3.961 0,0 -3.718,5.148 -12.564,3.192 -38.83,-8.583 -43.161,-48.746 -35.706,-98.309 m 138.667,-299.679 c -4.554,-15.443 -0.701,-35.948 15.863,-35.374 11.298,0.389 29.642,10.121 34.47,13.906 4.827,3.777 6.043,4.565 6.491,2.832 0.973,-3.727 -24.31,-62.477 -43.121,-94.252 l 27.219,0.098 c 0.01,0.01 0.01,0.02 0.019,0.029 h 34.431 v 26.995 c -9.06,-5.556 -18.169,-11.015 -27.317,-16.29 1.119,1.751 2.132,3.387 2.842,4.671 1.966,3.562 12.301,22.812 24.475,50.362 v 96.1 c -0.642,-2.354 -1.187,-4.535 -1.917,-7.046 -2.423,-8.34 -6.841,-17.001 -14.598,-27.404 -9.42,-12.612 -19.482,-12.612 -22.781,-11.58 -3.3,1.031 -2.453,4.097 -1.402,10.402 0.642,3.951 20.894,52.309 33.468,81.601 h -24.183 c -17.274,-36.377 -42.1,-88.773 -43.959,-95.05 m 375.907,142.618 c -0.448,5.966 -1.314,11.883 -1.947,17.829 H 3.659 c 0.36,-3.202 0.74,-6.393 1.031,-9.595 -0.671,-0.341 -1.829,-1.285 -1.761,-3.873 0.01,-0.526 0.059,-2.044 0.078,-4.361 z m -29.731,17.829 h -18.538 v -17.829 H -6.53 c 3.494,7.552 5.898,13.547 7.454,17.829 m -140,-166.47 h 18.695 c 11.084,10.256 21.156,20.309 30.411,30.119 -10.451,5.207 -19.823,11.62 -26.84,18.636 -2.871,2.872 -13.614,15.873 -15.045,19.746 -1.401,2.287 -2.676,4.662 -3.922,7.075 -0.944,-0.408 -2.034,-1.119 -3.299,-2.131 z m 86.778,18.441 c -0.283,-6.219 -0.721,-12.33 -1.168,-18.441 h 25.089 c 0.418,5.917 1.021,11.716 1.284,17.712 l -14.033,-0.01 c -3.688,0 -7.426,0.272 -11.172,0.739 m 77.882,-0.71 -36.639,-0.019 c -0.545,-3.046 -1.051,-6.005 -1.635,-9.168 -0.545,-2.949 -1.09,-5.683 -1.635,-8.544 h 37.049 c 1.089,5.936 1.965,11.834 2.86,17.731 M -66.477,76.958 c -6.657,-5.78 10.559,-43.578 21.361,-77.153 1.343,0.039 2.569,0.195 3.961,0.195 h 7.269 c -11.6,37.915 -25.847,65.504 -27.405,69.338 -1.975,4.856 -3.113,9.421 -5.186,7.62"
             style="fill:#bcbec0;fill-opacity:1;fill-rule:nonzero;stroke:none"
             id="path34" />
        </g>
        <g
           id="g36"
           transform="translate(927.5039,424.8278)">
          <path
             d="m 0,0 h -356.103 c -11.21,0 -21.614,-4.34 -29.526,-12.242 -6.306,-6.306 -12.058,-16.291 -12.058,-29.371 v -338.896 h 83.207 V -83.235 H 0.117 v -62.001 l 83.235,0.049 0.02,61.952 c 0,19.502 -7.153,41.622 -24.271,58.74 C 42.926,-8.32 21.643,0 0,0"
             style="fill:#005b94;fill-opacity:1;fill-rule:nonzero;stroke:none"
             id="path38" />
        </g>
      </g>
    </g>
    <path
       d="m 1051.823,44.317 h 83.235 v 256.459 h -83.235 z"
       style="fill:#005b94;fill-opacity:1;fill-rule:nonzero;stroke:none"
       id="path40" />
    <path
       d="m 1051.823,341.591 h 83.235 v 83.245 h -83.235 z"
       style="fill:#005b94;fill-opacity:1;fill-rule:nonzero;stroke:none"
       id="path42" />
    <g
       id="g44">
      <g
         id="g46"
         clip-path="url(#clipPath50)">
        <g
           id="g52"
           transform="translate(1630.1934,251.8175)">
          <path
             d="M 0,0 C -15.931,15.931 -36.864,24.378 -58.789,24.378 H -373.308 V 89.775 H 6.423 l 0.029,83.099 -379.76,0.136 c -22.189,0 -42.995,-8.554 -58.809,-24.368 -14.987,-14.987 -24.426,-35.559 -24.426,-58.867 V 24.378 c 0,-24.378 10.033,-44.591 24.426,-58.983 14.627,-14.627 35.55,-24.252 58.809,-24.252 h 314.519 v -65.407 h -387.838 v -83.235 h 387.838 c 20.622,0 42.138,7.727 58.789,24.378 15.221,15.22 24.504,36.153 24.504,58.857 v 65.407 C 24.504,-37.097 15.697,-15.697 0,0"
             style="fill:#005b94;fill-opacity:1;fill-rule:nonzero;stroke:none"
             id="path54" />
        </g>
        <g
           id="g56"
           transform="translate(397.7544,424.8317)">
          <path
             d="m 0,0 h -357.708 l -0.117,-83.235 H 0 v -65.407 h -314.451 c -19.775,0 -41.447,-6.89 -58.925,-24.368 -14.861,-14.87 -24.378,-35.199 -24.378,-58.867 v -65.397 c 0,-20.34 7.61,-42.217 24.261,-58.857 14.033,-14.034 34.839,-24.378 58.984,-24.378 H 41.623 c 13.079,0 23.307,6.062 29.37,12.125 6.179,6.179 12.31,16.651 12.31,29.487 v 255.662 c 0,19.853 -7.795,41.973 -24.562,58.74 C 42.81,-8.32 21.526,0 0,0 m 0,-297.274 h -314.509 v 65.396 H 0 Z"
             style="fill:#005b94;fill-opacity:1;fill-rule:nonzero;stroke:none"
             id="path58" />
        </g>
      </g>
    </g>
  </g>
</svg>
