<svg version="1.2" xmlns="http://www.w3.org/2000/svg" viewBox="0 0 1650 850" width="1650" height="850">
	<title>ARISLogoSlo-ai</title>
	<defs>
		<clipPath clipPathUnits="userSpaceOnUse" id="cp1">
			<path d="m0 917.1h4251.97v-917.49h-4251.97z"/>
		</clipPath>
		<clipPath clipPathUnits="userSpaceOnUse" id="cp2">
			<path d="m0 917.1h4251.97v-917.49h-4251.97z"/>
		</clipPath>
		<clipPath clipPathUnits="userSpaceOnUse" id="cp3">
			<path d="m0 917.1h4251.97v-917.49h-4251.97z"/>
		</clipPath>
		<clipPath clipPathUnits="userSpaceOnUse" id="cp4">
			<path d="m0 917.1h4251.97v-917.49h-4251.97z"/>
		</clipPath>
		<clipPath clipPathUnits="userSpaceOnUse" id="cp5">
			<path d="m0 917.1h4251.97v-917.49h-4251.97z"/>
		</clipPath>
		<clipPath clipPathUnits="userSpaceOnUse" id="cp6">
			<path d="m0 917.1h4251.97v-917.49h-4251.97z"/>
		</clipPath>
		<clipPath clipPathUnits="userSpaceOnUse" id="cp7">
			<path d="m0 917.1h4251.97v-917.49h-4251.97z"/>
		</clipPath>
		<clipPath clipPathUnits="userSpaceOnUse" id="cp8">
			<path d="m0 917.1h4251.97v-917.49h-4251.97z"/>
		</clipPath>
		<clipPath clipPathUnits="userSpaceOnUse" id="cp9">
			<path d="m0 917.1h4251.97v-917.49h-4251.97z"/>
		</clipPath>
		<clipPath clipPathUnits="userSpaceOnUse" id="cp10">
			<path d="m0 917.1h4251.97v-917.49h-4251.97z"/>
		</clipPath>
		<clipPath clipPathUnits="userSpaceOnUse" id="cp11">
			<path d="m0 917.1h4251.97v-917.49h-4251.97z"/>
		</clipPath>
		<clipPath clipPathUnits="userSpaceOnUse" id="cp12">
			<path d="m0 917.1h4251.97v-917.49h-4251.97z"/>
		</clipPath>
		<clipPath clipPathUnits="userSpaceOnUse" id="cp13">
			<path d="m0 917.1h4251.97v-917.49h-4251.97z"/>
		</clipPath>
		<clipPath clipPathUnits="userSpaceOnUse" id="cp14">
			<path d="m0 917.1h4251.97v-917.49h-4251.97z"/>
		</clipPath>
		<clipPath clipPathUnits="userSpaceOnUse" id="cp15">
			<path d="m0 917.1h4251.97v-917.49h-4251.97z"/>
		</clipPath>
		<clipPath clipPathUnits="userSpaceOnUse" id="cp16">
			<path d="m0 917.1h4251.97v-917.49h-4251.97z"/>
		</clipPath>
		<clipPath clipPathUnits="userSpaceOnUse" id="cp17">
			<path d="m0 917.1h4251.97v-917.49h-4251.97z"/>
		</clipPath>
		<clipPath clipPathUnits="userSpaceOnUse" id="cp18">
			<path d="m0 917.1h4251.97v-917.49h-4251.97z"/>
		</clipPath>
		<clipPath clipPathUnits="userSpaceOnUse" id="cp19">
			<path d="m0 917.1h4251.97v-917.49h-4251.97z"/>
		</clipPath>
		<clipPath clipPathUnits="userSpaceOnUse" id="cp20">
			<path d="m0 917.1h4251.97v-917.49h-4251.97z"/>
		</clipPath>
		<clipPath clipPathUnits="userSpaceOnUse" id="cp21">
			<path d="m0 917.1h4251.97v-917.49h-4251.97z"/>
		</clipPath>
		<clipPath clipPathUnits="userSpaceOnUse" id="cp22">
			<path d="m0 917.1h4251.97v-917.49h-4251.97z"/>
		</clipPath>
		<clipPath clipPathUnits="userSpaceOnUse" id="cp23">
			<path d="m0 917.1h4251.97v-917.49h-4251.97z"/>
		</clipPath>
	</defs>
	<style>
		tspan { white-space:pre } 
		.s0 { fill: #050505 } 
		.t1 { font-size: 117px;fill: #0c0d0d;font-family: "Republika" } 
		.s2 { fill: #cdb69f } 
		.s3 { fill: none;stroke: #bcaa98;stroke-width: .4 } 
		.s4 { fill: #105b93 } 
		.s5 { fill: none;stroke: #bcaa98;stroke-width: .5 } 
		.s6 { fill: #bbbdbf } 
		.s7 { fill: #045a93 } 
	</style>
	<g id="Layer 1">
		<g id="&lt;Clip Group&gt;" clip-path="url(#cp1)">
			<path id="&lt;Compound Path&gt;" fill-rule="evenodd" class="s0" d="m3971.7 690q-6 0-10.6-1.6-4.5-1.5-7.7-5-3.1-3.6-4.7-9.5-1.6-5.9-1.6-14.6 0-8.8 1.6-14.8 1.6-5.9 4.7-9.5 3.2-3.7 7.7-5.2 4.6-1.6 10.6-1.6 5.8 0 10.3 1.5 4.5 1.5 7.6 5.1 3.1 3.7 4.7 9.6 1.6 5.9 1.6 14.6 0 8.9-1.5 14.8-1.6 6-4.6 9.6-3.1 3.5-7.6 5-4.6 1.6-10.5 1.6zm-0.2-7.5q4.6 0 7.6-1.3 2.9-1.3 4.8-4.1 1.9-2.8 2.6-7.3 0.8-4.5 0.8-10.9 0-6.4-0.8-10.9-0.7-4.5-2.6-7.2-1.9-2.7-4.8-3.9-3-1.2-7.6-1.2-4.4 0-7.4 1.1-3.1 1.2-4.9 3.9-1.9 2.7-2.7 7.1-0.7 4.4-0.7 11.1 0 6.4 0.7 10.9 0.8 4.5 2.7 7.3 1.8 2.8 4.9 4.1 3 1.3 7.4 1.3zm-53.7 6.1v-38.7q0-7.9-2.3-11.1-2.4-3.1-7.7-3.1-4.8 0-9.6 2.6-4.8 2.6-9.2 9v41.3h-8.4v-59h7.6v9.2h0.5q3.4-4.4 8.7-7.5 5.2-3.1 12.4-3.1 4.7 0 7.9 1.3 3.2 1.4 5.1 3.9 1.9 2.6 2.7 6.3 0.7 3.8 0.7 8.6v40.3zm-58.1 0.9q-2.2 0.5-4.6 0.5-6.5 0-9.2-3.2-2.7-3.3-2.7-10.6v-71.3h8.4v69.9q0 2.6 0.3 4.1 0.3 1.5 0.9 2.4 0.6 0.8 1.6 1.1 0.9 0.3 2.4 0.3 3 0 5.3-0.9l1.5 6.2q-1.7 1-3.9 1.5zm-83.5-55.7q4.9-3 10-4.3 5-1.3 10.6-1.3 5.8 0 9.6 1.2 3.9 1.1 6.3 3.6 2.4 2.4 3.4 6.2 0.9 3.9 0.9 9.1v30.8q0 2.2 0.6 3.1 0.5 0.9 2.1 0.9 1.4 0 2.6-0.5l1.2 6.1q-1.3 0.6-2.7 0.9-1.4 0.4-3.4 0.4-7.9 0-8.4-7.3h-0.6q-6.1 7.3-17.4 7.3-9 0-13.2-4.4-4.2-4.3-4.2-12.5 0-5.6 1.8-9.3 1.8-3.7 5-6 3.2-2.3 7.6-3.2 4.4-1 9.7-1 3.3 0 5.7 0.4 2.4 0.3 5.2 0.9v-5.2q0-3.9-0.5-6.6-0.5-2.7-2-4.4-1.4-1.7-3.9-2.3-2.6-0.7-6.5-0.7-5 0-9 1.1-3.9 1.2-8.3 3.8zm16.5 49.2q5.8 0 9.5-2.6 3.7-2.6 6.5-6.2v-12.5q-2.3-0.6-4.7-0.9-2.5-0.3-5.4-0.3-7.7 0-12 2.6-4.3 2.5-4.3 9.7 0 5.3 2.5 7.8 2.6 2.4 7.9 2.4zm-37.9-53.4h8.1l-19.3 59h-11l-19.1-59h8.5l16.1 51.1h0.5zm-77.3 60.4q-6 0-10.5-1.5-4.6-1.5-7.7-5.1-3.2-3.5-4.8-9.4-1.5-5.9-1.5-14.7 0-8.8 1.5-14.7 1.6-6 4.8-9.6 3.1-3.6 7.7-5.2 4.5-1.6 10.5-1.6 5.8 0 10.3 1.6 4.5 1.5 7.6 5.1 3.1 3.6 4.7 9.5 1.7 5.9 1.7 14.7 0 8.8-1.6 14.8-1.6 6-4.6 9.5-3.1 3.6-7.6 5.1-4.6 1.5-10.5 1.5zm-0.1-7.5q4.5 0 7.5-1.2 3-1.3 4.8-4.1 1.9-2.8 2.7-7.3 0.7-4.5 0.7-10.9 0-6.5-0.7-11-0.8-4.5-2.7-7.1-1.8-2.7-4.8-4-3-1.2-7.5-1.2-4.5 0-7.5 1.2-3 1.1-4.9 3.8-1.9 2.7-2.6 7.2-0.8 4.4-0.8 11.1 0 6.4 0.8 10.9 0.7 4.5 2.6 7.3 1.9 2.8 4.9 4.1 3 1.2 7.5 1.2zm-79.9 6.1v-83.6h8.4v49.2h6.6l17.8-24.6h9.6l-20.7 27.7 22.8 31.3h-10.4l-19.6-27.3h-6.1v27.3zm-20.4-15.7q0 9.5-4.8 13.3-4.7 3.8-15.7 3.8-5.6 0-10-0.8-4.5-0.8-8.5-2.3l1.8-7q3.6 1.5 7.8 2.4 4.1 0.8 9.3 0.8 5.9 0 8.8-1.8 2.8-1.8 2.8-7.4 0-2.5-0.5-4.3-0.6-1.8-2.1-3.2-1.4-1.3-3.9-2.3-2.4-1.1-6.2-2-4.4-1.2-7.6-2.7-3.1-1.4-5.1-3.5-2-2-3-4.8-1-2.7-1-6.5 0-8.2 4.7-12.3 4.8-4.1 15.1-4.1 4.5 0 8.5 0.8 4.1 0.8 7.6 2.2l-1.3 7q-3.4-1.3-6.8-2.2-3.4-0.9-7.6-0.9-6.3 0-9 2.1-2.8 2.1-2.8 6.7 0 2.5 0.7 4.2 0.6 1.7 2 2.8 1.4 1.2 3.7 2.1 2.4 1 5.8 1.9 5.1 1.4 8.4 3.1 3.4 1.7 5.4 3.8 1.9 2.1 2.7 4.8 0.8 2.7 0.8 6.3zm-60.2-59h-9.6v-9.7h9.6zm-0.6 74.7h-8.4v-59h8.4zm-70.6 0v-7.9l32.7-43.9h-31.3l0.8-7.1h39.4v7.8l-32.9 44h33.6v7.1zm-63.6-54.8q4.9-2.9 10-4.2 5.1-1.3 10.7-1.3 5.7 0 9.6 1.1 3.8 1.2 6.2 3.7 2.4 2.4 3.4 6.2 1 3.8 1 9.1v30.8q0 2.2 0.5 3.1 0.5 0.9 2.2 0.9 1.4 0 2.6-0.5l1.1 6.1q-1.3 0.6-2.7 0.9-1.4 0.3-3.4 0.3-7.9 0-8.4-7.2h-0.5q-6.1 7.2-17.4 7.2-9 0.1-13.2-4.3-4.2-4.3-4.2-12.5 0-5.6 1.8-9.3 1.8-3.7 5-6 3.2-2.3 7.6-3.2 4.4-1 9.6-1 3.4 0 5.8 0.4 2.4 0.3 5.2 0.9v-5.2q0-3.9-0.5-6.6-0.6-2.7-2-4.4-1.5-1.7-4-2.4-2.5-0.7-6.5-0.7-5 0-8.9 1.2-3.9 1.2-8.4 3.8zm16.5 49.1q5.8 0 9.5-2.5 3.7-2.6 6.5-6.3v-12.4q-2.2-0.6-4.7-0.9-2.4-0.3-5.3-0.3-7.7 0-12.1 2.5-4.3 2.6-4.3 9.7 0 5.4 2.6 7.8 2.6 2.4 7.8 2.4zm-30.8-47.3q-5.6 0.5-10.9 4.5-5.4 4.1-10 11.8v36.7h-8.4v-59h7.6v12.6h0.5q1.6-2.7 3.6-5.1 2-2.5 4.6-4.4 2.5-2 5.6-3.2 3.1-1.2 6.6-1.6zm-75.1 54.3q-6 0-10.5-1.5-4.6-1.5-7.7-5.1-3.2-3.5-4.8-9.4-1.5-5.9-1.5-14.7 0-8.7 1.5-14.7 1.6-5.9 4.8-9.6 3.1-3.6 7.7-5.2 4.5-1.5 10.5-1.5 5.8 0 10.3 1.5 4.5 1.5 7.6 5.1 3.1 3.6 4.7 9.5 1.7 5.9 1.7 14.7 0 8.9-1.6 14.8-1.6 6-4.6 9.5-3.1 3.6-7.6 5.1-4.6 1.5-10.5 1.5zm-0.1-7.4q4.5 0 7.5-1.3 3-1.3 4.8-4.1 1.9-2.8 2.7-7.3 0.7-4.5 0.7-10.9 0-6.4-0.7-10.9-0.8-4.5-2.7-7.2-1.8-2.7-4.8-3.9-3-1.3-7.5-1.3-4.5 0-7.5 1.2-3.1 1.2-4.9 3.9-1.9 2.6-2.6 7.1-0.8 4.4-0.8 11.1 0 6.4 0.8 10.9 0.7 4.5 2.6 7.3 1.8 2.8 4.9 4.1 3 1.3 7.5 1.3zm-53.8 6v-38.6q0-8-2.3-11.1-2.3-3.2-7.7-3.2-4.8 0-9.6 2.7-4.8 2.6-9.2 9v41.2h-8.4v-58.9h7.6v9.2h0.6q3.3-4.4 8.6-7.5 5.2-3.1 12.4-3.1 4.8 0 7.9 1.3 3.2 1.4 5.1 3.9 1.9 2.6 2.7 6.3 0.7 3.8 0.8 8.6v40.2zm-95.9-26.2q0.1 6.2 1.2 10.1 1.1 3.8 3.2 6.1 2 2.3 5.1 3.2 3.1 0.8 7.3 0.8 5.1 0 9.3-1 4.1-0.9 7.9-2.5l1.5 6.5q-3.4 1.9-8.7 3.2-5.2 1.2-10.7 1.2-6.9 0-11.6-1.7-4.8-1.8-7.7-5.4-2.9-3.7-4.2-9.3-1.3-5.6-1.3-13.3 0-6.5 1-12.2 1-5.8 3.6-10.2 2.7-4.4 7.4-7 4.7-2.6 12.3-2.6 7.5 0 11.9 2.5 4.4 2.5 6.6 6.8 2.3 4.3 3 10.2 0.7 5.9 0.7 12.6v2zm15.3-26.7q-4.2 0-7 1.2-2.8 1.2-4.5 3.5-1.8 2.3-2.7 6.1-0.9 3.7-1.1 8.7h29.4q0-4-0.4-7.6-0.5-3.6-2-6.2-1.5-2.6-4.3-4.1-2.8-1.6-7.4-1.6zm-43.4-6h8l-19.2 58.9h-11l-19.2-58.9h8.6l16.1 51.1h0.4zm-65.6 6.9v37.4q0 2.8 0.4 4.5 0.4 1.8 1.2 2.8 0.7 1 2 1.3 1.2 0.3 2.9 0.3 1.8 0 3.5-0.3 1.8-0.3 3.8-1.3l1.7 6.2q-2.3 1.4-5.1 2-2.8 0.6-5.6 0.6-7 0-10.1-3.5-3.1-3.5-3.1-11.2v-38.8h-8.5l0.8-6.9h7.7v-14.3l8.4-1.4v15.7h13.4v6.9zm-30 36.4q0 9.5-4.7 13.3-4.7 3.8-15.7 3.8-5.6 0-10.1-0.8-4.4-0.8-8.5-2.3l1.9-7.1q3.6 1.6 7.8 2.4 4.1 0.9 9.2 0.9 6 0 8.9-1.8 2.8-1.8 2.8-7.4 0-2.5-0.6-4.3-0.6-1.8-2-3.2-1.5-1.3-3.9-2.4-2.5-1-6.2-2-4.5-1.1-7.6-2.6-3.2-1.5-5.1-3.5-2-2-3-4.8-1-2.8-1-6.5 0-8.2 4.7-12.3 4.7-4.1 15-4.1 4.6 0 8.6 0.8 4 0.8 7.5 2.2l-1.2 6.9q-3.4-1.2-6.8-2.1-3.4-0.9-7.6-0.9-6.3 0-9.1 2.1-2.7 2.1-2.7 6.7 0 2.4 0.6 4.1 0.7 1.7 2.1 2.9 1.4 1.2 3.7 2.1 2.4 0.9 5.7 1.9 5.2 1.4 8.5 3.1 3.3 1.7 5.3 3.8 2 2.1 2.8 4.8 0.7 2.7 0.7 6.3zm-68.5 15.7v-38.7q0-7.9-2.4-11.1-2.3-3.1-7.7-3.1-4.8 0-9.5 2.6-4.8 2.6-9.3 9.1v41.2h-8.4v-59h7.6v9.2h0.6q3.4-4.4 8.6-7.5 5.3-3.1 12.4-3.1 4.8 0 8 1.4 3.1 1.3 5 3.9 2 2.5 2.7 6.3 0.8 3.7 0.8 8.5v40.3zm-104.7-54.8q5-3 10-4.3 5.1-1.3 10.7-1.3 5.7 0 9.6 1.2 3.8 1.2 6.2 3.6 2.4 2.5 3.4 6.3 1 3.8 1 9v30.8q0 2.2 0.5 3.1 0.6 0.9 2.2 0.9 1.4 0 2.6-0.5l1.1 6.1q-1.2 0.6-2.6 1-1.4 0.3-3.4 0.3-8 0-8.4-7.2h-0.6q-6.1 7.2-17.4 7.2-9 0-13.2-4.3-4.2-4.4-4.2-12.6 0-5.6 1.8-9.3 1.8-3.7 5-6 3.2-2.2 7.6-3.2 4.4-0.9 9.6-0.9 3.4 0 5.8 0.3 2.4 0.4 5.2 1v-5.2q0-4-0.5-6.7-0.5-2.7-2-4.4-1.5-1.6-4-2.3-2.5-0.7-6.5-0.7-5 0-8.9 1.2-3.9 1.1-8.3 3.7zm16.4 49.2q5.9 0 9.5-2.6 3.7-2.6 6.5-6.2v-12.5q-2.2-0.6-4.6-0.8-2.5-0.3-5.4-0.3-7.7 0-12 2.5-4.4 2.5-4.4 9.7 0 5.4 2.6 7.8 2.6 2.4 7.8 2.4zm-47.6 5.6v-38.7q0-7.9-2.4-11.1-2.3-3.1-7.7-3.1-4.7 0-9.5 2.6-4.8 2.6-9.3 9.1v41.2h-8.4v-59h7.6v9.2h0.6q3.4-4.4 8.6-7.5 5.3-3.1 12.4-3.1 4.8 0 8 1.4 3.1 1.3 5 3.9 2 2.5 2.7 6.3 0.8 3.7 0.8 8.5v40.3zm-99.5 0v-7.9l32.7-44h-31.3l0.8-7.1h39.4v7.8l-32.8 44.1h33.5v7.1zm-96.8-54.8q4.9-3 9.9-4.3 5.1-1.3 10.7-1.3 5.8 0 9.6 1.2 3.9 1.2 6.3 3.6 2.3 2.5 3.3 6.3 1 3.8 1 9v30.8q0 2.3 0.6 3.1 0.5 0.9 2.1 0.9 1.4 0 2.6-0.5l1.2 6.1q-1.3 0.6-2.7 1-1.4 0.3-3.4 0.3-8 0-8.4-7.2h-0.6q-6.1 7.2-17.4 7.2-9 0-13.2-4.3-4.2-4.4-4.2-12.6 0-5.6 1.8-9.3 1.8-3.7 5-6 3.2-2.2 7.6-3.2 4.4-0.9 9.6-0.9 3.4 0 5.8 0.3 2.4 0.4 5.2 1v-5.2q0-4-0.5-6.7-0.5-2.7-2-4.4-1.4-1.6-4-2.3-2.5-0.7-6.4-0.7-5.1 0-9 1.2-3.9 1.1-8.3 3.7zm16.4 49.2q5.9 0 9.6-2.6 3.6-2.6 6.4-6.2v-12.5q-2.2-0.5-4.6-0.8-2.5-0.3-5.4-0.3-7.7 0-12 2.5-4.3 2.5-4.3 9.7 0 5.4 2.5 7.8 2.6 2.4 7.8 2.4zm-77.3 5.6v-7.9l32.7-44h-31.3l0.9-7.1h39.3v7.8l-32.8 44.1h33.5v7.1zm-96.8-54.8q4.9-3 10-4.3 5.1-1.3 10.7-1.3 5.7 0 9.5 1.2 3.9 1.2 6.3 3.6 2.4 2.5 3.4 6.3 1 3.8 1 9v30.8q0 2.3 0.5 3.1 0.5 0.9 2.2 0.9 1.4 0 2.5-0.5l1.2 6.1q-1.3 0.6-2.7 1-1.4 0.3-3.4 0.3-7.9 0-8.4-7.2h-0.6q-6 7.2-17.4 7.2-9 0-13.2-4.3-4.2-4.4-4.2-12.6 0-5.6 1.8-9.3 1.8-3.7 5.1-6 3.2-2.2 7.6-3.2 4.3-0.9 9.6-0.9 3.4 0 5.8 0.3 2.4 0.4 5.2 1v-5.2q0-4-0.6-6.7-0.5-2.7-1.9-4.3-1.5-1.7-4-2.4-2.5-0.7-6.5-0.7-5 0-8.9 1.2-3.9 1.1-8.4 3.7zm16.5 49.2q5.8 0 9.5-2.6 3.7-2.6 6.5-6.2v-12.4q-2.2-0.6-4.7-0.9-2.4-0.3-5.4-0.3-7.7 0-12 2.5-4.3 2.5-4.3 9.7 0 5.4 2.6 7.8 2.5 2.4 7.8 2.4zm-38.8-69.1h-9.6v-9.7h9.6zm-0.6 76.1q0 4.9-0.8 8.5-0.8 3.7-2.6 6.3-1.8 2.6-4.9 4.5-3.1 2-7.7 3.5l-2.7-6.6q3-1.1 4.9-2.4 2-1.2 3.3-2.9 1.2-1.8 1.7-4.2 0.4-2.5 0.4-6v-61.1h8.4zm-32.9-76.1h-9.6v-9.7h9.6zm-0.6 74.7h-8.4v-58.9h8.4zm-30.7-50.7q-5.7-2.2-13.2-2.2-4.4 0-7.6 1.1-3.3 1.1-5.4 3.8-2.2 2.7-3.2 7.1-1.1 4.4-1.1 11.1 0 6.8 1.1 11.3 1.1 4.6 3.3 7.3 2.2 2.8 5.6 3.9 3.3 1.2 7.9 1.2 3.4 0 6.5-0.5 3.2-0.4 6.6-1.6l1.5 6.6q-3.1 1.3-7 2.1-4 0.9-9 0.9-13 0-19-7.4-6.1-7.3-6.1-23.6 0-16 6-23.4 6-7.4 19.3-7.4 4.3 0 8.3 0.6 3.9 0.6 6.7 1.8zm-68.3 50.7v-38.6q0-8-2.4-11.1-2.3-3.2-7.7-3.2-4.8 0-9.6 2.7-4.8 2.6-9.2 9v41.2h-8.4v-58.9h7.6v9.2h0.6q3.4-4.5 8.6-7.6 5.3-3.1 12.4-3.1 4.8 0 7.9 1.4 3.2 1.3 5.1 3.9 1.9 2.6 2.7 6.3 0.8 3.7 0.8 8.5v40.3zm-95.9-26.3q0.1 6.3 1.2 10.2 1.1 3.8 3.2 6.1 2 2.3 5.1 3.1 3.1 0.9 7.3 0.9 5.1 0 9.3-1 4.1-0.9 7.9-2.6l1.5 6.5q-3.4 2-8.6 3.3-5.3 1.2-10.8 1.2-6.9 0-11.6-1.7-4.7-1.8-7.7-5.5-2.9-3.6-4.2-9.2-1.3-5.6-1.3-13.4 0-6.4 1-12.2 1-5.7 3.7-10.1 2.6-4.4 7.3-7 4.7-2.7 12.3-2.7 7.5 0 11.9 2.6 4.4 2.5 6.6 6.8 2.3 4.3 3 10.2 0.7 5.9 0.7 12.6v1.9zm15.3-26.6q-4.2 0-7 1.2-2.8 1.2-4.5 3.5-1.8 2.3-2.7 6.1-0.8 3.7-1.1 8.7h29.5q0-4.1-0.5-7.6-0.5-3.6-2-6.2-1.5-2.6-4.3-4.2-2.8-1.5-7.4-1.5zm-64.8 34q-5.9 0-10.1-1.2-1 1.3-1.5 2.9-0.5 1.5-0.5 3 0 2 0.6 3.3 0.5 1.4 2.2 2.2 1.6 0.8 4.7 1.2 3.1 0.4 8 0.8 4.1 0.2 7.9 0.7 3.8 0.5 6.8 2.1 2.9 1.5 4.7 4.4 1.9 2.9 1.9 7.9 0 8.1-5.4 12.2-5.3 4.1-17.9 4.1-2.8 0-6.1-0.3-3.2-0.3-6.7-1.2-3.4-0.9-6.7-2.6-3.3-1.7-6.1-4.3l4-5.9q5.4 4.1 10.9 5.6 5.6 1.5 11.6 1.5 4.3 0 7-0.5 2.7-0.6 4.3-1.7 1.5-1 2.1-2.6 0.5-1.6 0.5-3.6 0-4.8-3.6-6.4-3.7-1.6-11.7-2-5.3-0.2-9.4-0.9-4-0.6-6.6-2-2.6-1.4-3.9-3.9-1.3-2.5-1.3-6.6 0-3.2 1-5.7 1.1-2.5 2.7-4.5-3.1-2.3-4.8-6.3-1.6-4.1-1.6-10.4 0-5.8 1.5-9.8 1.4-3.9 4.3-6.4 3-2.4 7.3-3.5 4.3-1.1 9.9-1.1 6.2 0 11 1.5h16.5v6.4h-8.3v0.4q1.6 1.9 2.6 4.7 1 2.8 1 7.7 0 6-1.5 9.9-1.4 4-4.3 6.5-2.9 2.4-7.1 3.4-4.3 1-9.9 1zm-0.1-7.2q4.2 0 7.1-0.8 2.8-0.8 4.6-2.3 1.7-1.6 2.4-4.2 0.7-2.5 0.7-6.3 0-3.8-0.7-6.4-0.7-2.6-2.4-4.2-1.8-1.6-4.6-2.3-2.9-0.7-7.1-0.7-4.1 0-7 0.7-2.8 0.7-4.6 2.2-1.7 1.6-2.5 4.2-0.7 2.7-0.7 6.5 0 7.4 3.2 10.5 3.3 3.1 11.6 3.1zm-86.3-28.7q4.9-2.9 10-4.2 5.1-1.3 10.7-1.4 5.7 0 9.5 1.2 3.9 1.2 6.3 3.6 2.4 2.5 3.4 6.3 1 3.8 1 9.1v30.8q0 2.2 0.5 3.1 0.5 0.8 2.2 0.8 1.4 0 2.5-0.4l1.2 6.1q-1.3 0.5-2.7 0.9-1.4 0.3-3.4 0.3-7.9 0-8.4-7.2h-0.6q-6 7.2-17.4 7.2-9 0-13.2-4.3-4.2-4.3-4.2-12.5 0-5.7 1.8-9.4 1.8-3.6 5.1-5.9 3.2-2.3 7.5-3.3 4.4-0.9 9.7-0.9 3.4 0 5.8 0.4 2.4 0.3 5.2 0.9v-5.2q0-3.9-0.6-6.6-0.5-2.8-1.9-4.4-1.5-1.7-4-2.4-2.5-0.7-6.5-0.7-5 0-8.9 1.2-3.9 1.2-8.4 3.7zm16.5 49.2q5.8 0 9.5-2.6 3.7-2.5 6.5-6.2v-12.4q-2.2-0.6-4.7-0.9-2.4-0.3-5.4-0.3-7.7 0-12 2.5-4.3 2.5-4.3 9.7 0 5.4 2.6 7.8 2.5 2.4 7.8 2.4zm-115.7-49.2q4.9-2.9 9.9-4.2 5.1-1.3 10.7-1.3 5.7 0 9.6 1.1 3.9 1.2 6.2 3.6 2.4 2.5 3.4 6.3 1 3.8 1 9.1v30.8q0 2.2 0.5 3.1 0.6 0.8 2.2 0.8 1.4 0 2.6-0.4l1.1 6.1q-1.2 0.5-2.6 0.9-1.4 0.3-3.4 0.3-8 0-8.4-7.2h-0.6q-6.1 7.2-17.4 7.2-9 0-13.2-4.3-4.2-4.3-4.2-12.5 0-5.7 1.8-9.4 1.8-3.6 5-5.9 3.2-2.3 7.6-3.3 4.4-0.9 9.6-0.9 3.4 0 5.8 0.4 2.4 0.3 5.2 0.9v-5.2q0-3.9-0.5-6.6-0.5-2.8-2-4.4-1.5-1.7-4-2.4-2.5-0.7-6.4-0.7-5.1 0-9 1.2-3.9 1.2-8.3 3.7zm16.4 49.2q5.9 0 9.6-2.6 3.6-2.5 6.4-6.2v-12.4q-2.2-0.6-4.6-0.9-2.5-0.3-5.4-0.3-7.7 0-12 2.5-4.4 2.5-4.4 9.7 0 5.4 2.6 7.8 2.6 2.4 7.8 2.4zm-47.6 5.6v-38.6q0-8-2.3-11.1-2.4-3.2-7.8-3.2-4.7 0-9.5 2.7-4.8 2.6-9.3 9v41.2h-8.4v-58.9h7.6v9.2h0.6q3.4-4.5 8.7-7.6 5.2-3 12.3-3 4.8 0 8 1.3 3.1 1.3 5.1 3.9 1.9 2.6 2.6 6.3 0.8 3.8 0.8 8.5v40.3zm-60.8-58.9h8l-19.3 58.9h-10.9l-19.2-58.9h8.5l16.2 51.1h0.4zm-98.1 4.2q4.9-3 10-4.3 5.1-1.3 10.7-1.3 5.7 0 9.6 1.2 3.8 1.2 6.2 3.6 2.4 2.5 3.4 6.3 1 3.8 1 9v30.8q0 2.2 0.5 3.1 0.6 0.9 2.2 0.9 1.4 0 2.6-0.5l1.1 6.1q-1.3 0.6-2.7 0.9-1.4 0.4-3.3 0.4-8 0-8.5-7.3h-0.5q-6.1 7.3-17.4 7.3-9 0-13.2-4.3-4.2-4.4-4.2-12.6 0-5.6 1.8-9.3 1.8-3.7 5-6 3.2-2.3 7.6-3.2 4.4-0.9 9.6-0.9 3.4 0 5.8 0.3 2.4 0.4 5.2 0.9v-5.2q0-3.9-0.5-6.6-0.6-2.7-2-4.4-1.5-1.6-4-2.3-2.5-0.7-6.5-0.7-5 0-8.9 1.1-3.9 1.2-8.4 3.8zm16.5 49.2q5.9 0 9.5-2.6 3.7-2.6 6.5-6.2v-12.5q-2.2-0.6-4.7-0.9-2.4-0.2-5.3-0.2-7.7 0-12.1 2.5-4.3 2.5-4.3 9.7 0 5.4 2.6 7.8 2.6 2.4 7.8 2.4zm-41.1-78v76.9q0 6-1 10.5-1 4.6-3.4 8-2.4 3.4-6.3 5.8-4 2.5-10 4.2l-2.3-7.5q4-1.1 6.7-2.8 2.6-1.7 4.3-4.2 1.7-2.4 2.4-5.7 0.7-3.3 0.7-7.6v-77.6z"/>
		</g>
		<text id="  " style="transform: matrix(1,0,0,1,3995.941,688.559)">
			<tspan x="0" y="0" class="t1"> 
</tspan>
		</text>
		<g id="&lt;Clip Group&gt;" clip-path="url(#cp2)">
			<path id="&lt;Compound Path&gt;" fill-rule="evenodd" class="s0" d="m4059.6 779.1q0.1 6.2 1.2 10.1 1.1 3.8 3.2 6.1 2 2.3 5.1 3.2 3.1 0.8 7.3 0.8 5.1 0 9.3-1 4.1-0.9 7.9-2.5l1.5 6.5q-3.4 1.9-8.6 3.2-5.3 1.2-10.8 1.2-6.9 0-11.6-1.7-4.7-1.8-7.7-5.4-2.9-3.7-4.2-9.3-1.2-5.6-1.2-13.3 0-6.5 0.9-12.2 1-5.8 3.7-10.2 2.6-4.4 7.3-7 4.7-2.6 12.3-2.6 7.5 0 11.9 2.5 4.4 2.5 6.7 6.8 2.2 4.3 2.9 10.2 0.7 5.9 0.7 12.6v2zm15.3-26.7q-4.2 0-7 1.2-2.8 1.2-4.5 3.5-1.8 2.3-2.7 6.1-0.8 3.7-1.1 8.7h29.5q0-4-0.5-7.6-0.5-3.6-2-6.2-1.5-2.6-4.3-4.1-2.8-1.6-7.4-1.6zm-44.2-21.8h-9.6v-9.7h9.6zm-0.6 76.2q0 4.9-0.8 8.5-0.9 3.6-2.7 6.2-1.8 2.7-4.9 4.6-3.1 1.9-7.6 3.4l-2.7-6.5q2.9-1.2 4.9-2.4 2-1.2 3.2-3 1.2-1.7 1.7-4.2 0.5-2.4 0.5-5.9v-61.1h8.4zm-32.9-76.2h-9.6v-9.7h9.6zm-0.6 74.8h-8.4v-59h8.4zm-41 0v-38.6q0-8-2.4-11.1-2.3-3.2-7.7-3.2-4.8 0-9.5 2.6-4.8 2.7-9.3 9.1v41.2h-8.4v-59h7.6v9.3h0.6q3.4-4.5 8.6-7.6 5.3-3.1 12.4-3.1 4.8 0 8 1.4 3.1 1.3 5 3.9 2 2.6 2.7 6.3 0.8 3.7 0.8 8.5v40.3zm-95.9-26.3q0.1 6.3 1.2 10.1 1.1 3.9 3.2 6.2 2 2.3 5.1 3.1 3.1 0.8 7.3 0.8 5.2 0 9.3-0.9 4.2-0.9 7.9-2.6l1.5 6.5q-3.4 2-8.6 3.2-5.3 1.3-10.8 1.3-6.9 0-11.6-1.7-4.7-1.8-7.6-5.5-3-3.7-4.2-9.3-1.3-5.6-1.3-13.3 0-6.4 1-12.2 1-5.8 3.6-10.1 2.6-4.4 7.3-7 4.8-2.7 12.4-2.7 7.4 0 11.8 2.5 4.4 2.6 6.7 6.9 2.2 4.3 2.9 10.2 0.7 5.9 0.7 12.5v2zm15.3-26.6q-4.2 0-7 1.2-2.8 1.1-4.5 3.5-1.8 2.3-2.6 6.1-0.9 3.7-1.2 8.7h29.5q0-4.1-0.5-7.6-0.5-3.6-2-6.2-1.5-2.7-4.3-4.2-2.8-1.5-7.4-1.5zm-43.4-6.1h8.1l-19.3 59h-11l-19.1-59h8.5l16.1 51.2h0.5zm-77.3 60.4q-6 0-10.5-1.6-4.6-1.5-7.8-5-3.1-3.6-4.7-9.5-1.6-5.9-1.6-14.7 0-8.7 1.6-14.7 1.6-5.9 4.7-9.5 3.2-3.7 7.8-5.2 4.5-1.6 10.5-1.6 5.8 0 10.3 1.5 4.5 1.5 7.6 5.1 3.1 3.7 4.7 9.6 1.7 5.9 1.7 14.6 0 8.9-1.6 14.8-1.6 6-4.6 9.6-3.1 3.5-7.6 5-4.6 1.6-10.5 1.6zm-0.2-7.5q4.6 0 7.6-1.3 3-1.3 4.8-4.1 1.9-2.8 2.6-7.3 0.8-4.5 0.8-10.9 0-6.4-0.8-10.9-0.7-4.5-2.6-7.2-1.8-2.7-4.8-3.9-3-1.2-7.6-1.2-4.4 0-7.4 1.1-3.1 1.2-4.9 3.9-1.9 2.7-2.7 7.1-0.7 4.4-0.7 11.1 0 6.4 0.7 10.9 0.8 4.5 2.7 7.3 1.8 2.8 4.9 4.1 3 1.3 7.4 1.3zm-41.1 7q-2.2 0.5-4.5 0.5-6.6 0-9.2-3.3-2.7-3.2-2.7-10.5v-71.3h8.4v69.9q0 2.5 0.3 4.1 0.3 1.5 0.8 2.4 0.6 0.8 1.6 1.1 1 0.3 2.4 0.3 3.1 0 5.4-0.9l1.5 6.2q-1.7 1-4 1.5zm-35.7-23q0 6.3-1.5 10.8-1.4 4.5-4.7 7.3-3.4 2.8-8.6 4.1-5.3 1.3-12.8 1.3-6.6 0-12.1-1-5.5-0.9-10.7-2.9l1.8-7.6q4.9 1.8 10.6 2.8 5.7 1 11.5 1 4.5 0 7.8-0.7 3.3-0.6 5.4-2.3 2.2-1.7 3.3-4.6 1-3 1-7.4 0-3.6-0.7-6.2-0.8-2.7-2.9-4.6-2-1.9-5.4-3.4-3.5-1.6-8.7-3.1-5.9-1.6-10.3-3.5-4.3-2-7.2-4.8-2.9-2.8-4.3-6.6-1.4-3.8-1.4-9 0-11.2 6.3-16.9 6.3-5.7 19.7-5.7 5.5 0 10.9 1 5.4 1 10.2 2.9l-1.5 7.5q-4.8-1.7-9.4-2.6-4.5-0.9-9.9-0.9-9.3 0-13.2 3.2-4 3.3-4 10.9 0 3.9 1 6.4 1 2.6 3 4.3 2 1.8 5 3.1 3.1 1.3 7.2 2.4 7.3 2.4 12.1 4.5 4.8 2.2 7.5 4.9 2.8 2.8 3.9 6.5 1.1 3.6 1.1 8.9zm-138.9-4.2q0.2 6.2 1.3 10.1 1.1 3.9 3.1 6.2 2.1 2.2 5.2 3.1 3.1 0.8 7.3 0.8 5.1 0 9.3-0.9 4.1-1 7.8-2.6l1.6 6.5q-3.4 1.9-8.7 3.2-5.2 1.3-10.7 1.3-6.9 0-11.7-1.8-4.7-1.7-7.6-5.4-2.9-3.7-4.2-9.3-1.3-5.6-1.3-13.3 0-6.4 1-12.2 1-5.8 3.6-10.2 2.6-4.4 7.4-7 4.7-2.6 12.3-2.6 7.5 0 11.9 2.5 4.3 2.5 6.6 6.8 2.3 4.3 3 10.2 0.7 5.9 0.7 12.6v2zm15.3-26.6q-4.2 0-7 1.1-2.8 1.2-4.6 3.5-1.7 2.4-2.6 6.1-0.9 3.7-1.1 8.8h29.4q0-4.1-0.5-7.7-0.4-3.6-1.9-6.2-1.6-2.6-4.4-4.1-2.8-1.5-7.3-1.5zm-79.3 52.9v-83.7h8.4v49.2h6.7l17.7-24.5h9.6l-20.7 27.7 22.8 31.3h-10.4l-19.6-27.4h-6.1v27.4zm-24.2-74.8h-9.6v-9.7h9.6zm-0.6 74.8h-8.4v-59h8.4zm-29.3 0.9q-2.2 0.5-4.5 0.5-6.6 0-9.3-3.2-2.6-3.2-2.6-10.6v-71.2h8.4v69.8q0 2.6 0.3 4.1 0.3 1.5 0.8 2.4 0.6 0.9 1.6 1.2 1 0.3 2.4 0.3 3 0 5.4-1l1.5 6.2q-1.8 1.1-4 1.5zm-84.4-84.5h8.4v32.3h0.6q3.3-4.4 7.7-6.7 4.4-2.4 10.6-2.4 10 0 14.9 6.8 4.9 6.9 4.9 22.4 0 7.4-1.3 13.3-1.2 6-4.3 10.3-3.2 4.3-8.6 6.7-5.5 2.3-13.8 2.3-4.5 0-9.4-0.8-4.9-0.7-9.7-2.4zm25.8 30.8q-5.6 0-10 3.2-4.5 3.3-7.4 8.2v33.9q2.2 0.7 5.3 1.1 3 0.4 6 0.4 6.3 0 10-2 3.7-2 5.6-5.3 2-3.3 2.5-7.8 0.6-4.4 0.6-9.4 0-4.2-0.4-8.3-0.4-4-1.7-7.2-1.4-3.1-3.8-5-2.5-1.8-6.7-1.8zm-87.1-6.1v38.6q0 8 2.3 11.1 2.4 3.2 7.6 3.2 4.7 0 9.4-2.5 4.6-2.5 9.1-8.7v-41.7h8.4v59h-7.6v-8.8h-0.6q-3.4 4.3-8.6 7.2-5.2 3-12.2 3-9.3 0-12.8-5.2-3.4-5.2-3.4-14.9v-40.3zm-76 0h7.6v8.9h0.5q3.3-4.9 8-7.6 4.6-2.7 11.2-2.7 9.8 0 14.8 6.8 4.9 6.8 4.9 22.4 0 7.2-1.3 13.2-1.2 6-4.3 10.4-3 4.3-8.2 6.6-5.2 2.4-13 2.4-3.3 0-6.5-0.5-3.1-0.4-5.3-1.3v23.6h-8.4zm25.8 6.1q-5.6 0-10.1 3.2-4.4 3.3-7.3 8.3v33.4q2.2 1 5.3 1.4 3.1 0.5 6.1 0.5 6.2 0 9.9-2 3.7-2 5.6-5.4 1.9-3.5 2.5-8 0.6-4.5 0.6-9.4 0-4.2-0.4-8.1-0.4-4-1.8-7.1-1.3-3.1-3.8-5-2.4-1.8-6.6-1.8zm-84.5 26.6q0.2 6.2 1.3 10.1 1.1 3.9 3.1 6.2 2.1 2.3 5.2 3.1 3.1 0.8 7.3 0.8 5.1 0 9.2-0.9 4.2-1 7.9-2.6l1.5 6.5q-3.3 1.9-8.6 3.2-5.3 1.3-10.7 1.3-6.9 0-11.7-1.8-4.7-1.7-7.6-5.4-2.9-3.7-4.2-9.3-1.3-5.6-1.3-13.3 0-6.4 1-12.2 1-5.8 3.6-10.2 2.6-4.4 7.4-7 4.7-2.6 12.3-2.6 7.5 0 11.8 2.5 4.4 2.5 6.7 6.8 2.3 4.4 3 10.3 0.7 5.9 0.7 12.5v2zm15.3-26.6q-4.2 0-7 1.1-2.8 1.2-4.6 3.5-1.7 2.4-2.6 6.1-0.9 3.7-1.1 8.8h29.4q0-4.1-0.5-7.7-0.4-3.5-1.9-6.2-1.6-2.6-4.4-4.1-2.8-1.5-7.3-1.5zm-86.3 52.9h-8.9v-83.6h26.7q7.2 0 12.4 1.1 5.3 1.2 8.7 3.9 3.5 2.7 5.1 7.1 1.6 4.4 1.6 10.9 0 10.6-4.3 16.1-4.3 5.6-13.4 7.2l19.5 37.3h-10.2l-18.7-36.4h-18.5zm0-43.7h17.1q4.8 0 8.5-0.6 3.6-0.6 6-2.4 2.5-1.7 3.8-5 1.2-3.2 1.2-8.3 0-5.1-1.2-8.2-1.2-3.1-3.6-4.8-2.4-1.8-6.1-2.4-3.7-0.7-8.6-0.7h-17.1zm-77.2-8.3v37.4q0 2.8 0.4 4.5 0.4 1.8 1.2 2.8 0.7 1 1.9 1.3 1.3 0.3 3 0.3 1.8 0 3.5-0.3 1.8-0.3 3.8-1.3l1.7 6.2q-2.3 1.4-5.1 2-2.8 0.6-5.6 0.6-7 0-10.1-3.5-3.1-3.5-3.1-11.2v-38.8h-8.5l0.8-6.9h7.7v-14.3l8.4-1.4v15.7h13.4v6.9zm-30 36.4q0 9.5-4.7 13.3-4.8 3.8-15.7 3.8-5.6 0-10.1-0.8-4.4-0.8-8.5-2.3l1.9-7.1q3.6 1.6 7.7 2.4 4.2 0.9 9.3 0.9 6 0 8.8-1.8 2.9-1.8 2.9-7.4 0-2.5-0.6-4.3-0.6-1.8-2-3.2-1.5-1.3-3.9-2.4-2.5-1-6.2-2-4.5-1.1-7.6-2.6-3.2-1.4-5.2-3.5-2-2-2.9-4.8-1-2.7-1-6.5 0-8.2 4.7-12.3 4.7-4.1 15-4.1 4.6 0 8.6 0.8 4 0.8 7.5 2.2l-1.3 7q-3.4-1.3-6.7-2.2-3.4-0.9-7.6-0.9-6.3 0-9.1 2.1-2.7 2.1-2.7 6.7 0 2.5 0.6 4.1 0.7 1.7 2.1 2.9 1.4 1.2 3.7 2.1 2.3 1 5.7 1.9 5.2 1.4 8.5 3.1 3.3 1.7 5.3 3.8 2 2.1 2.7 4.8 0.8 2.7 0.8 6.3zm-81.7 17.1q-6 0-10.6-1.5-4.5-1.5-7.7-5.1-3.1-3.6-4.7-9.5-1.6-5.9-1.6-14.6 0-8.8 1.6-14.7 1.6-6 4.7-9.6 3.2-3.6 7.7-5.2 4.6-1.6 10.6-1.6 5.8 0 10.3 1.5 4.5 1.6 7.6 5.2 3.1 3.6 4.7 9.5 1.6 5.9 1.6 14.7 0 8.8-1.5 14.8-1.6 5.9-4.6 9.5-3.1 3.6-7.6 5.1-4.6 1.5-10.5 1.5zm-0.2-7.5q4.6 0 7.6-1.3 2.9-1.2 4.8-4 1.9-2.8 2.6-7.3 0.8-4.5 0.8-11 0-6.4-0.8-10.9-0.7-4.5-2.6-7.2-1.9-2.6-4.8-3.9-3-1.2-7.6-1.2-4.4 0-7.4 1.2-3.1 1.1-4.9 3.8-1.9 2.7-2.7 7.1-0.7 4.5-0.7 11.1 0 6.5 0.7 11 0.8 4.5 2.7 7.3 1.8 2.8 4.9 4 3 1.3 7.4 1.3zm-53.7 6.1v-38.7q0-7.9-2.3-11-2.4-3.2-7.7-3.2-4.8 0-9.6 2.6-4.8 2.7-9.2 9.1v41.2h-8.4v-59h7.6v9.3h0.5q3.4-4.5 8.7-7.6 5.2-3.1 12.4-3.1 4.7 0 7.9 1.4 3.2 1.3 5.1 3.9 1.9 2.5 2.7 6.3 0.7 3.7 0.7 8.5v40.3zm-60.8-59h8l-19.2 59h-11l-19.2-59h8.6l16.1 51.2h0.5zm-98.1 4.2q4.9-3 9.9-4.3 5.1-1.3 10.7-1.3 5.7 0 9.6 1.1 3.9 1.2 6.2 3.7 2.4 2.4 3.4 6.2 1 3.8 1 9.1v30.8q0 2.2 0.6 3.1 0.5 0.9 2.1 0.9 1.4 0 2.6-0.5l1.2 6.1q-1.3 0.6-2.7 0.9-1.4 0.3-3.4 0.4-8 0-8.4-7.3h-0.6q-6.1 7.3-17.4 7.3-9 0-13.2-4.4-4.2-4.3-4.2-12.5 0-5.6 1.8-9.3 1.8-3.7 5-6 3.2-2.3 7.6-3.2 4.4-1 9.6-1 3.4 0 5.8 0.4 2.4 0.3 5.2 0.9v-5.2q0-3.9-0.5-6.6-0.5-2.7-2-4.4-1.4-1.7-4-2.4-2.5-0.6-6.4-0.7-5.1 0-9 1.2-3.9 1.2-8.3 3.8zm16.4 49.1q5.9 0 9.6-2.5 3.6-2.6 6.4-6.3v-12.4q-2.2-0.6-4.6-0.9-2.5-0.3-5.4-0.3-7.7 0-12 2.5-4.4 2.6-4.4 9.7 0 5.4 2.6 7.8 2.6 2.4 7.8 2.4zm-38.7-69.1h-9.6v-9.7h9.6zm-0.6 76.2q0 4.9-0.8 8.5-0.8 3.6-2.7 6.2-1.8 2.7-4.9 4.6-3.1 1.9-7.6 3.4l-2.7-6.5q2.9-1.2 4.9-2.4 2-1.2 3.2-3 1.2-1.7 1.7-4.2 0.5-2.4 0.5-5.9v-61.1h8.4zm-67.4-27.7q0.1 6.2 1.2 10.1 1.1 3.9 3.2 6.2 2 2.3 5.1 3.1 3.1 0.8 7.3 0.8 5.2 0 9.3-0.9 4.1-1 7.9-2.6l1.5 6.5q-3.4 2-8.6 3.2-5.3 1.3-10.8 1.3-6.9 0-11.6-1.8-4.7-1.7-7.6-5.4-3-3.7-4.3-9.3-1.2-5.6-1.2-13.3 0-6.4 1-12.2 0.9-5.8 3.6-10.2 2.6-4.3 7.3-7 4.8-2.6 12.4-2.6 7.4 0 11.8 2.5 4.4 2.5 6.7 6.9 2.2 4.3 2.9 10.2 0.7 5.9 0.7 12.5v2zm15.3-26.6q-4.2 0-7 1.2-2.8 1.1-4.5 3.5-1.8 2.3-2.7 6-0.8 3.8-1.1 8.8h29.5q0-4.1-0.5-7.7-0.5-3.5-2-6.2-1.5-2.6-4.3-4.1-2.8-1.5-7.4-1.5zm-45.3 52.9h-7.6v-7.8h-0.5q-3.2 4.3-8 6.7-4.8 2.5-11.2 2.5-9.9 0-14.9-6.8-5.1-6.8-5.1-22.1 0-7.3 1.3-13.4 1.2-6.1 4.3-10.4 3.1-4.3 8.2-6.7 5.1-2.4 12.9-2.4 3.1 0 6.5 0.5 3.4 0.6 5.7 1.7v-25.4h8.4zm-25.4-6.1q5.5 0 9.9-3 4.4-3.1 7.1-7.5v-34.5q-2-0.9-5.1-1.5-3.1-0.6-6.1-0.6-6.4 0-10.2 2.1-3.8 2-5.7 5.4-2 3.4-2.5 7.9-0.6 4.6-0.6 9.6 0 4.3 0.4 8.3 0.4 4 1.7 7.1 1.4 3.1 4 4.9 2.6 1.8 7.1 1.8zm-97.7 7.5q-5.9 0-10.5-1.5-4.5-1.6-7.7-5.1-3.1-3.6-4.7-9.5-1.6-5.9-1.6-14.6 0-8.8 1.6-14.8 1.6-5.9 4.7-9.5 3.2-3.7 7.7-5.2 4.6-1.6 10.5-1.6 5.9 0 10.4 1.5 4.5 1.5 7.6 5.2 3.1 3.6 4.7 9.5 1.6 5.9 1.6 14.6 0 8.9-1.5 14.9-1.6 5.9-4.7 9.5-3 3.5-7.5 5.1-4.6 1.5-10.6 1.5zm-0.1-7.5q4.6 0 7.6-1.3 2.9-1.3 4.8-4.1 1.9-2.8 2.6-7.3 0.8-4.5 0.8-10.9 0-6.4-0.8-10.9-0.7-4.5-2.6-7.2-1.9-2.7-4.8-3.9-3-1.2-7.6-1.2-4.4 0-7.4 1.1-3.1 1.2-5 3.9-1.8 2.7-2.6 7.1-0.7 4.5-0.7 11.1 0 6.4 0.7 10.9 0.8 4.5 2.6 7.3 1.9 2.8 5 4.1 3 1.3 7.4 1.3zm-79.9 6.1v-83.6h8.5v49.1h6.6l17.8-24.5h9.5l-20.6 27.7 22.7 31.3h-10.4l-19.6-27.4h-6v27.4zm-20.5-15.7q0 9.5-4.7 13.3-4.7 3.8-15.7 3.8-5.6 0-10.1-0.8-4.4-0.8-8.5-2.3l1.9-7.1q3.6 1.5 7.7 2.4 4.2 0.9 9.3 0.9 6 0 8.8-1.8 2.9-1.8 2.9-7.5 0-2.4-0.6-4.2-0.6-1.8-2-3.2-1.5-1.3-3.9-2.4-2.5-1-6.2-2-4.5-1.2-7.6-2.6-3.2-1.5-5.1-3.5-2-2.1-3-4.8-1-2.8-1-6.5 0-8.2 4.7-12.3 4.7-4.1 15-4.1 4.6 0 8.6 0.8 4 0.8 7.5 2.2l-1.3 6.9q-3.3-1.3-6.7-2.1-3.4-0.9-7.6-0.9-6.3 0-9.1 2.1-2.7 2.1-2.7 6.7 0 2.4 0.6 4.1 0.7 1.7 2.1 2.9 1.4 1.2 3.7 2.1 2.3 0.9 5.7 1.9 5.2 1.4 8.5 3.1 3.3 1.7 5.3 3.8 2 2.1 2.8 4.8 0.7 2.7 0.7 6.3zm-59.7-59.1h-9.5v-9.7h9.5zm-0.5 76.2q0 4.9-0.9 8.5-0.8 3.6-2.6 6.3-1.8 2.6-4.9 4.5-3.1 1.9-7.6 3.5l-2.7-6.6q2.9-1.2 4.9-2.4 2-1.2 3.2-3 1.2-1.7 1.7-4.2 0.5-2.4 0.5-5.9v-61.1h8.4zm-33-76.1h-9.5v-9.7h9.5zm-0.6 74.7h-8.4v-59h8.4zm-30.7-50.6q-5.7-2.3-13.2-2.3-4.4 0-7.6 1.1-3.2 1.2-5.4 3.8-2.1 2.7-3.2 7.2-1 4.4-1 11.1 0 6.7 1.1 11.3 1.1 4.5 3.2 7.3 2.2 2.7 5.6 3.9 3.4 1.2 7.9 1.2 3.4 0 6.6-0.5 3.1-0.5 6.5-1.6l1.5 6.6q-3 1.3-7 2.1-4 0.8-9 0.8-12.9 0-19-7.3-6.1-7.4-6.1-23.6 0-16 6-23.4 6-7.4 19.4-7.4 4.3 0 8.2 0.5 3.9 0.6 6.7 1.9zm-102.5-4.1q4.9-3 10-4.3 5-1.3 10.6-1.3 5.8 0 9.6 1.2 3.9 1.2 6.3 3.6 2.4 2.5 3.4 6.3 0.9 3.8 0.9 9v30.8q0 2.2 0.6 3.1 0.5 0.9 2.1 0.9 1.4 0 2.6-0.5l1.2 6.1q-1.3 0.6-2.7 1-1.4 0.3-3.4 0.3-8 0-8.4-7.2h-0.6q-6.1 7.2-17.4 7.2-9 0-13.2-4.3-4.2-4.4-4.2-12.6 0-5.6 1.8-9.3 1.8-3.7 5-6 3.2-2.2 7.6-3.2 4.4-0.9 9.7-0.9 3.3 0 5.7 0.3 2.4 0.4 5.2 1v-5.2q0-4-0.5-6.7-0.5-2.7-2-4.4-1.4-1.6-3.9-2.3-2.6-0.7-6.5-0.7-5 0-9 1.2-3.9 1.1-8.3 3.7zm16.5 49.2q5.8 0 9.5-2.6 3.7-2.6 6.5-6.2v-12.5q-2.3-0.5-4.7-0.8-2.5-0.3-5.4-0.3-7.7 0-12 2.5-4.3 2.5-4.3 9.7 0 5.4 2.5 7.8 2.6 2.4 7.9 2.4zm-37.9-53.4h8.1l-19.3 59h-11l-19.1-59h8.5l16.1 51.2h0.5zm-77.3 60.3q-6 0-10.5-1.5-4.6-1.5-7.7-5.1-3.2-3.5-4.8-9.4-1.6-5.9-1.6-14.7 0-8.7 1.6-14.7 1.6-5.9 4.8-9.6 3.1-3.6 7.7-5.2 4.5-1.5 10.5-1.5 5.8 0 10.3 1.5 4.5 1.5 7.6 5.1 3.1 3.6 4.7 9.5 1.7 5.9 1.7 14.7 0 8.9-1.6 14.8-1.6 6-4.6 9.5-3.1 3.6-7.6 5.1-4.6 1.5-10.5 1.5zm-0.1-7.4q4.5 0 7.5-1.3 3-1.3 4.8-4.1 1.9-2.8 2.7-7.3 0.7-4.5 0.7-10.9 0-6.4-0.7-10.9-0.8-4.5-2.7-7.2-1.8-2.7-4.8-3.9-3-1.3-7.5-1.3-4.5 0-7.5 1.2-3.1 1.2-4.9 3.9-1.9 2.7-2.7 7.1-0.7 4.4-0.7 11.1 0 6.4 0.7 10.9 0.8 4.5 2.7 7.3 1.8 2.8 4.9 4.1 3 1.3 7.5 1.3zm-53.8 6v-38.6q0-7.9-2.3-11.1-2.3-3.2-7.7-3.2-4.8 0-9.6 2.7-4.8 2.6-9.2 9v41.2h-8.4v-58.9h7.6v9.2h0.6q3.3-4.4 8.6-7.5 5.3-3.1 12.4-3.1 4.8 0 7.9 1.3 3.2 1.4 5.1 3.9 1.9 2.6 2.7 6.3 0.7 3.8 0.7 8.6v40.2zm-61.4-74.7h-9.5v-9.7h9.5zm-0.6 74.8h-8.4v-59h8.4zm-74.2 0v-38.7q0-7.9-2.4-11.1-2.3-3.1-7.7-3.1-4.8 0-9.5 2.6-4.8 2.6-9.3 9.1v41.2h-8.4v-59h7.6v9.2h0.6q3.4-4.4 8.6-7.5 5.3-3.1 12.4-3.1 4.8 0 8 1.3 3.1 1.4 5 4 2 2.5 2.7 6.3 0.8 3.7 0.8 8.5v40.3zm-61.4-74.8h-9.6v-9.7h9.6zm-0.6 74.8h-8.4v-59h8.4z"/>
			<path id="&lt;Path&gt;" class="s2" d=""/>
		</g>
		<path id="&lt;Path&gt;" class="s3" d=""/>
		<g id="&lt;Clip Group&gt;" clip-path="url(#cp3)">
			<path id="&lt;Path&gt;" class="s2" d=""/>
		</g>
		<path id="&lt;Path&gt;" class="s3" d=""/>
		<g id="&lt;Clip Group&gt;" clip-path="url(#cp4)">
			<path id="&lt;Path&gt;" class="s2" d=""/>
		</g>
		<path id="&lt;Path&gt;" class="s3" d=""/>
		<g id="&lt;Clip Group&gt;" clip-path="url(#cp5)">
			<path id="&lt;Path&gt;" class="s2" d=""/>
		</g>
		<path id="&lt;Path&gt;" class="s3" d=""/>
		<g id="&lt;Clip Group&gt;" clip-path="url(#cp6)">
			<path id="&lt;Path&gt;" class="s2" d=""/>
		</g>
		<path id="&lt;Path&gt;" class="s3" d=""/>
		<g id="&lt;Clip Group&gt;" clip-path="url(#cp7)">
			<path id="&lt;Path&gt;" class="s2" d=""/>
		</g>
		<path id="&lt;Path&gt;" class="s3" d=""/>
		<g id="&lt;Clip Group&gt;" clip-path="url(#cp8)">
			<path id="&lt;Path&gt;" class="s4" d=""/>
		</g>
		<path id="&lt;Path&gt;" class="s5" d=""/>
		<g id="&lt;Clip Group&gt;" clip-path="url(#cp9)">
			<path id="&lt;Path&gt;" class="s4" d=""/>
		</g>
		<path id="&lt;Path&gt;" class="s5" d=""/>
		<g id="&lt;Clip Group&gt;" clip-path="url(#cp10)">
			<path id="&lt;Path&gt;" class="s2" d=""/>
		</g>
		<path id="&lt;Path&gt;" class="s3" d=""/>
		<g id="&lt;Clip Group&gt;" clip-path="url(#cp11)">
			<path id="&lt;Path&gt;" class="s2" d=""/>
		</g>
		<path id="&lt;Path&gt;" class="s3" d=""/>
		<g id="&lt;Clip Group&gt;" clip-path="url(#cp12)">
			<path id="&lt;Path&gt;" class="s2" d=""/>
		</g>
		<path id="&lt;Path&gt;" class="s3" d=""/>
		<g id="&lt;Clip Group&gt;" clip-path="url(#cp13)">
			<path id="&lt;Path&gt;" class="s2" d=""/>
		</g>
		<path id="&lt;Path&gt;" class="s3" d=""/>
		<g id="&lt;Clip Group&gt;" clip-path="url(#cp14)">
			<path id="&lt;Path&gt;" class="s2" d=""/>
		</g>
		<path id="&lt;Path&gt;" class="s3" d=""/>
		<g id="&lt;Clip Group&gt;" clip-path="url(#cp15)">
			<path id="&lt;Path&gt;" class="s2" d=""/>
		</g>
		<path id="&lt;Path&gt;" class="s3" d=""/>
		<g id="&lt;Clip Group&gt;" clip-path="url(#cp16)">
			<path id="&lt;Path&gt;" class="s2" d=""/>
		</g>
		<path id="&lt;Path&gt;" class="s3" d=""/>
		<g id="&lt;Clip Group&gt;" clip-path="url(#cp17)">
			<path id="&lt;Path&gt;" class="s2" d=""/>
		</g>
		<path id="&lt;Path&gt;" class="s3" d=""/>
		<g id="&lt;Clip Group&gt;" clip-path="url(#cp18)">
			<path id="&lt;Path&gt;" class="s2" d=""/>
		</g>
		<path id="&lt;Path&gt;" class="s3" d=""/>
		<g id="&lt;Clip Group&gt;" clip-path="url(#cp19)">
			<path id="&lt;Path&gt;" class="s2" d=""/>
		</g>
		<path id="&lt;Path&gt;" class="s3" d=""/>
		<g id="&lt;Clip Group&gt;" clip-path="url(#cp20)">
			<path id="&lt;Path&gt;" class="s2" d=""/>
		</g>
		<path id="&lt;Path&gt;" class="s3" d=""/>
		<g id="&lt;Clip Group&gt;" clip-path="url(#cp21)">
			<path id="&lt;Path&gt;" class="s2" d=""/>
		</g>
		<path id="&lt;Path&gt;" class="s3" d=""/>
		<g id="&lt;Clip Group&gt;" clip-path="url(#cp22)">
			<path id="&lt;Compound Path&gt;" fill-rule="evenodd" class="s6" d="m1271.6 401.1c-19.1-53.3-46.3-104.7-81.9-151.7-7 7.4-17 20.1-32.7 37.8 10.6 15 20.9 30.6 30.5 46.9 13.9 23.5 25.8 47.6 35.9 71.9-10.1 3.1-18.7 7.6-26.1 13-0.4-3.7-0.9-7.4-1.7-11.7q-0.4-2.7-0.9-5.1c-8-17.7-17-35.2-27.1-52.2-0.1 0.1-0.2 0.2-0.3 0.3-2.1 2.1-6.9 4.6-11.2 3.9-3.1-0.4-4.3-1.9-6.9-6.1-1.4-2.4-0.6-7.9 4-10.8 1.1-0.7 3.1-1.3 5.4-1.9q-9.4-14.8-19.2-28.8c-22.2 23.7-52.7 53.6-95.1 89.4-9.4 8-12.7 11-19.5 16.2q-11.2 9.2-23.5 18.7c-6-5.8-12.7-11.4-20.4-16 10.6-8.2 20.8-16.3 30.3-24.1-68.6-104.2-147.3-169.8-216.8-211.2-23.5 16.6-49.6 35.7-78.8 57.4-23.7 17.7-47.4 35.7-70.4 53.4 35.7 30.2 71.6 66.9 105.7 110.7h-32.1c-31-37.7-63-69-94.1-94.9-63.5 49.1-119.8 94.1-154.3 121.9-6.4-5.9-13.4-11.1-21.4-15.3-1-0.7-1.9-1.4-2.6-2.3-6.7-9.1-7.1-30.8-5-48 2.1-17.4 14.2-37.3 13.1-38-7.1-4.8-15-2.9-28.8-3.9-11.5-0.9-17.3-14.2-18.9-20.6-6.3-23.9 5.2-35.1 8.4-35.3 7.7-0.6 8 1.7 9.5 3.9 1.5 2.2 2.3 8.9 2.5 14.3 0.3 5.4 3.4 11.4 7.1 11.9 3.7 0.5 10.4-0.8 17.1 0.9 5.6 1.4 9.2 2.8 9.2 2.8 0 0 0.8-9.7 1.4-15.1 0.3-2.7 0.7-9.8 0.2-14-3.6-31.8-10.1-13.5-18.1-10.4-22.6 8.7-14.4-5.3-13.5-10 1.1-5.3 7.3-18.4 8.5-21.8 1.7-5.2 10.3-9.8 15.4-10.4 3.2-0.3 6.5-1 11 1.3 4.5 2.3 15.4 10.4 20 21.6 1.9 4.6 4.1 17.4 4.7 23.4 0.5 4.8-0.4 17.2-1.3 23.9-1.2 9.6-4.6 22.8-4.6 22.8 0 0 4.7 2.2 11.3 10.1 9.9 11.9 6.8 40.3 4.6 52.1 29.7-23.7 65.6-52.1 104.3-82.1-85.6-66-161.3-92.2-186.3-101.9-27.3-10.7-59-17.2-60.9-17.6-21.5 19.2-37.4 36.2-46.7 47.3-22.9 27.2-40.8 51.9-42.3 54 4 2.8 58.6 42.4 126.5 129.8l-32.3-0.1c-39.9-48.7-73.7-79.4-92-95.7-15.6-13.8-34.9-26.4-36.4-27.3l-0.5 0.1c0 0 17.2-30.2 53.1-72.4 42-49.2 102.7-100.4 171.2-136.8 155.4-82.5 355.9-98.6 535.8-11.2 151.5 73.6 255.4 199.5 304.4 343zm49.2 297.3h-37.1c0.6-2.8 1.1-5.6 1.7-8.5 0.6-3.2 1.1-6.1 1.6-9.2h36.6c-0.8 5.9-1.7 11.8-2.8 17.7zm-63.9-17.7h14.1c-0.3 6-0.9 11.8-1.3 17.7h-25.1c0.4-6.1 0.9-12.2 1.2-18.4 3.7 0.4 7.4 0.7 11.1 0.7zm-97.9-55.7q1.9-1.5 3.3-2.2c1.2 2.5 2.5 4.8 3.9 7.1 1.4 3.9 12.2 16.9 15.1 19.8 7 7 16.3 13.4 26.8 18.6-9.3 9.8-19.3 19.9-30.4 30.1h-18.7zm132.5-75.2h-11.1v-17.8h18.6c-1.6 4.3-4 10.3-7.5 17.8zm9.6 0c0-2.3-0.1-3.8-0.1-4.3-0.1-2.6 1.1-3.6 1.8-3.9-0.3-3.2-0.7-6.4-1.1-9.6h25.1c0.6 5.9 1.5 11.9 1.9 17.8zm-304.3 47.6h24.2c-12.6 29.3-32.8 77.6-33.5 81.6-1 6.3-1.9 9.4 1.4 10.4 3.3 1 13.4 1 22.8-11.6 7.8-10.4 12.2-19.1 14.6-27.4 0.7-2.5 1.3-4.7 1.9-7v96.1c-12.1 27.5-22.5 46.8-24.4 50.3-0.8 1.3-1.8 2.9-2.9 4.7 9.2-5.3 18.3-10.7 27.3-16.3v27h-34.4q0 0 0 0l-27.2 0.1c18.8-31.7 44.1-90.5 43.1-94.2-0.5-1.8-1.7-1-6.5 2.8-4.8 3.8-23.2 13.5-34.5 13.9-16.5 0.6-20.4-19.9-15.8-35.4 1.8-6.2 26.6-58.6 43.9-95zm-146.9-303c8.8-1.9 12.6 3.2 12.6 3.2 0 0 5.7-3.4 10.5-3.9 4.8-0.5 10.6-0.5 18.2 8.9 7.9 9.8 6.1 20.5 8 21.4 5.5 2.6 19.2 46 20.7 65.9 0.3 3.9 0.3 7.5 0.5 11.3h-24.4q-0.1-1.7-0.2-3c-5.8-48.1-16-55.6-16-55.6 0 0-13.6 5.7-20.4-1-6.7-6.8-10.1-19.1-10.1-19.1-13.2 1.4-14.6 38.7-3.1 78.7h-30.6c-0.5-2.8-1-5.5-1.4-8.4-7.5-49.6-3.1-89.8 35.7-98.4zm-214.1 366.6v-61.7c1.2-2.6 2.4-5.2 3.5-7.5 4.9-10.6 12.7-34.7 6.8-38-1.8-1-5.6 0.6-10.3 3.1v-24.9h41.3c4.6 9.2 5.7 21.2 0.6 37.1-1.6 4.7-6 20-16.2 38-2.3 4-7.1 11.4-13 18.8 44.1-23 99.5-53.6 158.8-90.4q-0.5-0.9-1-1.9c-0.3-0.6-0.6-1.1-0.9-1.6h54.4c-6.5 4.3-13.1 8.7-19.6 12.8 45.3 93.5 67.8 181.8 77.5 260.3 0.1 0.3-0.9 0.3-12.6 0.2-11.4-0.1-12.5 0.2-12.6-0.2-9.5-75.9-31.3-159.4-73.7-246.8-70.9 44-135.7 78.8-183 102.7zm39-262.5c0.5 0.9 1 1.8 1.5 2.7h-84.5c11.9-8.4 25.5-17.3 31.5-19 24.4-6.9 44 5.4 51.5 16.3zm82.8 322.3c5.7-2.1 13.6 10 14.3 14.7 0.8 4.7-5.9 7.8-10.3 10.6-4.4 2.8-3.6-1.5-5.9-1.1-2.4 0.3-9.3 2.1-10.6 13.9-0.6 5.6 4.6 10.8 9.1 13 4.1 2 24 14.3 24 14.3 0 0 24.9-37.3 25.3-42.8 0.3-5.5-7.8-2.7-14.1-2.4-12.7 0.6-9.8-14.7-8.3-17.2 5-8.7 13.1-23.5 15.1-27.2 7.8-14 25.4-19.8 31.9-17.2 9.7 3.8 14 28.1 13.7 32.5-0.4 6.2-2.1 18.7-7.2 28.1-11.3 20.5-27.2 51.2-32.3 56.6-2.1 2.2-3.3 4.2-1.1 5.8 1.4 0.9 2.7 2 3.7 2.7l-94.1 0.1c-1.2-1.7-2.6-4.5-3.5-7-5.2-13.8-5.1-19.7 4.1-35.4 13.3-22.8 40.5-39.9 46.2-42zm404.9-478.6c-2.2-4.7-15.2-26.1-20.4-33.5-11.4-16.6-28.5-29.9-28.5-29.9 0 0 0 0 0.3 1.8 0.2 1.8 2.8 22.7 2.9 29.1 0.2 6.1 0.2 9.5-5.2 11-6.5 1.7-11.6-6.2-14.3-10.8-1.5-2.6-1.2-10.3-6.6-21.4-9.5-19.2-39.3-49.9-43-53.5-3.7-3.7-6.5-7-3.8-8.6 0 0 3.9-2.5 8.3 1.2 2.8 2.4 11.3 8.3 25.5 24.1 14.5 16.1 17.8 22.3 17.8 22.3l-0.9-22.5c-34.5-27.8-73.3-52.4-116.6-72.8-5.2-2.5-10.4-4.8-15.7-7-1.9 0.9-11.8 5.8-31.3 17.4 76.5 39.3 150.3 98.9 210.8 177.6 8-9.1 14.9-17.2 20.9-24.4 0-0.1-0.1 0-0.2-0.1zm-288.3-200.6c7.9 3.5 13.7 6.5 17.2 8.4 15.5 8.3 21 11.3 28.9 16.1 6.7-3.9 10.5-6.1 11.6-6.7-19.4-7.2-38.7-13.1-57.7-17.8zm-43.9-6.6c-4.4-1.1-6.4-1.8-6.4-0.9-0.3 3 0.2 3.1-0.2 7.9-0.2 1.6-0.3 3.4-0.4 5.1 3 0.9 6 1.7 9.1 2.6 23.7 6.8 47.7 15.6 71.5 26.4 1.1-0.7 2.3-1.5 3.3-2.1-5.5-3.6-19.5-12.4-35.7-20.9-17.6-9.3-36.8-17-41.2-18.1zm-38.8-7.5c3.8 3.2 9.3 7.6 9.6 6.4 0.4-1.1 0.5-3.2 0.7-5.4q-5.2-0.5-10.3-1zm-19.3 3.5c-6.1-2.4-11.7-4.2-16.2-5.6-16-0.5-31.7-0.2-47 0.7 12 0.9 39.4 3.8 76.4 11.8-4.2-2.7-8.7-5.2-13.2-6.9zm-229 28.7c-10.3 3.6-20.2 7.5-29.6 11.4 7.5 0.2 50.7 2.1 96.6 11.6 30.9 6.4 100.7 21.6 182.4 67.2 2.2-1.5 4.1-2.8 6.2-4.3-2.5-0.8-4.6-1.9-5.5-2.9-23.2-25.2-54.2-49.8-68.3-58-2.8-1.7-3.6-0.7-5.2 2.1-1.7 2.9-0.8 7.1-4.6 6.5-3.7-0.6-24.4-15.4-28.4-18.4-4.1-3 3.1-9.3 2.5-11.5-0.9-3.2-14.9-4.5-12.9-6.4 6.7-6.4 8.7-6.9 18.6-4.6 16.7 3.8 35.8 10.4 57.9 25.6 22.3 15.5 57.8 48.7 59.3 54.5 0.4 1.2 0.6 2.3 0.7 3.3 25.8-17.8 47.2-31.9 64.7-43.2-32.8-13.6-66.3-23.9-100-30.9-115.6-23.8-207.9-7.8-234.4-2zm-83.2 37.4c-30 16.7-56.4 35.3-78.7 53.1 0.8 0.3 22.3 6.1 48.8 15.4 45.8 16.1 118.5 48.3 195 108.5 11.2-8.7 22.6-17.4 34-26.1q-0.1 0-0.2 0.1c-8.9 1.4-27.9-16.1-33.9-21.4-11.1-9.7-27.9-29.8-38.8-46.4-23.8-36-36.3-70.1-37.4-76.7-0.3-2 0.2-3.7 1-5.2-48.9-5-83.4-1.9-89.8-1.3zm223.2 132.7c32-24.2 61-45.4 86.9-63.9-75.3-40.4-136.1-52.5-154.5-56.7-14.8-3.4-28.9-5.9-42.3-7.9 5.1 11.8 25.4 49.5 31.4 58 24.2 34.5 42.1 48.8 45.4 50.7 3.3 1.9 4.8-10.1 1.7-19.5-8.4-26.1-13.9-34.6-27.1-42.2-7.4-4.2-12.5 1.4-18.9-1.2-6.5-2.6-6.7-13.4-3.5-20 3.2-6.5 19-9.3 32.9-1.9 15.1 8.2 27.2 20.8 39.2 49.6 10 24.1 4.8 43.9 2.7 53.3-0.7 3.2-2.1 6.3-3.9 9.2q5-3.8 10-7.5zm347.4 145q14.9-12.7 27.9-24.4c-4.4-6.1-4.5-13.2-5.2-16.5-2.1-9.8-5.1-19.8-8.2-28.9-8.6-25.4-8.7-34.2-9.1-37.5-0.4-3.4-0.4-4.3-0.4-4.3 0 0-11.4 16.4-13.9 21.4-6.1 12.3-6.2 25.8-12.5 25.6-10.2-0.3-15.4-22.5-16.5-29.9-1.2-7.4-7.4-22.9-10.5-29.7-7.4-16-21-30.4-21-34.3-0.1-4 5.3-12.3 8.8-12.9 3.5-0.6 6.6-0.4 10.2 3.2 3.5 3.7 11.6 11.8 19.4 28.9 5.9 13.1 9.2 24.7 11.2 22.1 4.2-5.5 11.4-12.3 12.7-15.5 1.3-3.2 0.9-8-2.1-11.7-3-3.8-17.2-28-18.6-37-1.4-9-2.5-18.3 7.5-19.9 1.6-0.3 3.2-0.1 4.8 0.4-35-27.8-71.9-50.7-109.9-69-22.3 14-51.6 33.2-88.7 59.1 70.1 43.3 146.7 109.3 214.1 210.8zm48.2-43c18-17 33-32.3 45.6-45.8-30.6-40.2-64.2-74.8-99.9-104.3 0.3 0.5 0.5 1 0.6 1.5 1.2 6.6 11 26 15.8 33.7 2.7 4.3 11.4 13.9 12.8 19.2 1.5 5.3 9.1 38.9 12.4 52.1 2.1 8.4 11.4 32 12.7 43.6zm-602.6 10.5c-6.2-1.6-9.6 16.5-10.3 23.6-1 8.6-2.1 28.4 0.7 30.3 4.3 2.8 4.8-3.6 6.6-8.9 2.4-6.9 3.8-14.5 4.6-20 0.7-5.6 2.8-23.9-1.6-25zm760.6-10.5c1.6 3.9 15.8 31.5 27.4 69.4h-7.2c-1.4 0-2.7 0.1-4 0.2-10.8-33.6-28-71.4-21.4-77.2 2.1-1.8 3.2 2.8 5.2 7.6z"/>
			<path id="&lt;Path&gt;" class="s7" d="m927.5 425.2h-356.1c-11.2 0-21.6 4.3-29.5 12.2-6.3 6.3-12.1 16.3-12.1 29.4v338.9h83.2v-297.3h314.6v62h83.3v-62c0-19.5-7.2-41.6-24.3-58.7-16.2-16.2-37.5-24.5-59.1-24.5z"/>
		</g>
		<path id="&lt;Path&gt;" class="s7" d="m1051.8 805.7h83.3v-256.5h-83.3z"/>
		<path id="&lt;Path&gt;" class="s7" d="m1051.8 508.4h83.3v-83.2h-83.3z"/>
		<g id="&lt;Clip Group&gt;" clip-path="url(#cp23)">
			<path id="&lt;Path&gt;" class="s7" d="m1630.2 598.2c-15.9-15.9-36.9-24.4-58.8-24.4h-314.5v-65.4h379.7v-83.1l-379.7-0.1c-22.2 0-43 8.5-58.8 24.3-15 15-24.5 35.6-24.5 58.9v65.4c0 24.4 10.1 44.6 24.5 59 14.6 14.6 35.5 24.2 58.8 24.2h314.5v65.4h-387.8v83.3h387.8c20.6 0 42.1-7.7 58.8-24.4 15.2-15.2 24.5-36.1 24.5-58.9v-65.4c0-21.7-8.8-43.1-24.5-58.8z"/>
			<path id="&lt;Compound Path&gt;" fill-rule="evenodd" class="s7" d="m456.5 449.7c16.8 16.7 24.6 38.9 24.6 58.7v255.7c0 12.8-6.2 23.3-12.4 29.5-6 6-16.2 12.1-29.3 12.1h-356.2c-24.1 0-44.9-10.4-58.9-24.4-16.7-16.6-24.3-38.5-24.3-58.9v-65.4c0-23.6 9.5-44 24.4-58.8 17.5-17.5 39.1-24.4 58.9-24.4h314.5v-65.4h-357.9l0.1-83.2h357.8c21.5 0 42.8 8.3 58.7 24.5zm-58.7 207.3h-314.6v65.4h314.6z"/>
		</g>
	</g>
</svg>