<?xml version="1.0" encoding="UTF-8"?>
<svg id="Layer_2" data-name="Layer 2" xmlns="http://www.w3.org/2000/svg" viewBox="0 0 1031.09 200">
  <defs>
    <style>
      .cls-1 {
        fill: #fff;
      }
    </style>
  </defs>
  <g id="Layer_1-2" data-name="Layer 1">
    <path class="cls-1" d="M118.79,109.54c0,24.21-1.37,35.18-8.68,42.72-5.94,6.17-12.11,8.23-25.59,8.23h-46.6c-13.48,0-19.65-2.06-25.59-8.23C3.88,143.58,0,130.56,0,96.52c0-34.04,3.88-47.06,12.33-55.74,5.71-6.17,12.11-8.23,25.59-8.23h46.6c13.48,0,19.65,2.06,25.59,8.23,7.08,7.31,8.91,17.82,8.68,40.89h-42.03c-.45-9.59-.68-11.88-1.6-13.02-1.37-1.6-3.2-2.06-8-2.06h-11.2c-4.8,0-6.62.23-7.99,2.06-1.37,1.6-2.29,5.49-2.29,27.87,0,22.39.91,26.27,2.29,27.87,1.37,1.83,3.19,2.06,7.99,2.06h11.2c4.8,0,6.62-.46,8-2.06,1.14-1.14,1.37-3.88,1.6-14.85h42.03ZM143.88,32.55h45.23s0,129.3,0,129.3c0,17.59-2.75,24.44-8.23,29.92-4.8,4.8-11.88,8.22-27.41,8.22-10.51,0-18.27-1.37-28.56-3.42v-32.67s8,0,8,0c5.71,0,8-.45,9.14-1.6,1.37-1.37,1.83-3.65,1.83-8.68V32.55ZM303.23,150.43c-2.74,8.68-6.62,10.51-15.3,10.51h-30.61c-8.68,0-12.56-1.83-15.3-10.51l-38.84-117.88h48.43s20.78,82.24,20.78,82.24h2.52s20.56-82.24,20.56-82.24h46.6s-38.83,117.88-38.83,117.88ZM432.23,66.59v-34.04h-30.61s0-31.98,0-31.98h-32.8s-13.57,41.18-13.57,41.18v24.83s0,61.23,0,61.23c0,15.99,2.29,21.93,6.39,26.04,4.34,4.34,11.2,8,26.5,8,12.79,0,25.36-1.6,32.9-3.43l10.96-2.51v-29.7h-19.42c-5.71,0-8-.45-9.13-1.6-1.37-1.37-1.83-3.65-1.83-8.68v-49.35s30.61,0,30.61,0ZM517.91,89.16c-3.38,4.41-9.69,9.55-19.98,9.55-13.51,0-26.58-8.96-26.58-33.19s13.07-33.64,26.58-33.64c9.55,0,15.28,4.85,18.07,8.08V0h11.02v97.23h-9.11v-8.08ZM516,47.74c-3.53-3.82-8.81-6.32-15.42-6.32-11.9,0-18.07,8.67-18.07,23.79s6.17,23.94,18.07,23.94c6.61,0,11.9-2.64,15.42-6.32v-35.1ZM549.64,33.34h9.11v8.23c2.79-5.29,7.64-9.69,17.48-9.69,4.26,0,6.61.88,7.49,1.32v9.99c-1.91-.88-5.43-1.76-9.4-1.76-7.93,0-12.04,3.82-13.66,6.46v49.35h-11.02v-63.89ZM647.9,76.38c-2.2,17.63-16.74,22.33-27.61,22.33-15.13,0-28.79-8.96-28.79-33.49s14.83-33.34,28.35-33.34,28.49,7.64,28.49,33.19v1.91h-45.83c.44,14.83,6.32,22.62,18.21,22.62,9.4,0,14.98-4.85,16.45-13.22h10.72ZM637.03,59.63c-.73-12.19-6.9-18.95-16.89-18.95-10.58,0-16.45,6.76-17.48,18.95h34.37ZM658.18,33.34h11.9l17.77,52,17.63-52h11.31l-23.5,63.89h-11.6l-23.5-63.89ZM783.17,76.38c-2.2,17.63-16.74,22.33-27.61,22.33-15.13,0-28.79-8.96-28.79-33.49s14.83-33.34,28.35-33.34,28.49,7.64,28.49,33.19v1.91h-45.83c.44,14.83,6.32,22.62,18.21,22.62,9.4,0,14.98-4.85,16.45-13.22h10.72ZM772.3,59.63c-.73-12.19-6.9-18.95-16.89-18.95-10.58,0-16.45,6.76-17.48,18.95h34.37ZM808.72,76.82c.44,7.93,6.9,13.37,17.04,13.37,7.93,0,13.66-3.38,13.66-9.99,0-7.78-7.93-8.96-19.24-12.34-9.55-2.94-19.54-6.32-19.54-18.21,0-12.93,11.75-17.77,23.35-17.77,13.66,0,23.5,6.61,24.38,20.12h-10.72c-.44-6.76-5.43-11.6-13.95-11.6-6.9,0-12.34,2.94-12.34,8.67,0,7.2,8.22,8.37,19.83,11.75,9.25,2.79,18.95,6.17,18.95,18.8,0,14.39-12.63,19.09-24.68,19.09-15.27,0-26.44-7.34-27.47-21.88h10.72ZM869.09,33.34h9.11v8.23c3.52-5.29,10.13-9.69,21.15-9.69s21.74,4.41,21.74,26v39.36h-11.02v-36.87c0-12.19-2.64-18.8-13.95-18.8-8.08,0-13.22,3.23-16.01,6.32v49.35h-11.02v-63.89ZM941.93,0h13.37v12.48h-13.37V0ZM943.11,33.34h11.02v63.89h-11.02v-63.89ZM976.89,0h11.02v63.6l29.67-30.26h13.22l-24.09,24.24,24.38,39.66h-13.07l-19.09-32.75-11.02,11.02v21.74h-11.02V0Z"/>
  </g>
</svg>