<?xml version="1.0" encoding="UTF-8"?>
<!-- Generator: Adobe Illustrator 24.0.1, SVG Export Plug-In . SVG Version: 6.00 Build 0)  -->
<svg version="1.1" id="Layer_1" xmlns="http://www.w3.org/2000/svg" xmlns:xlink="http://www.w3.org/1999/xlink" x="0px" y="0px" viewBox="0 0 191.9 196.1" style="enable-background:new 0 0 191.9 196.1;" xml:space="preserve">
<style type="text/css">
	.st0{fill:#FFFFFF;}
</style>
<g>
	<ellipse transform="matrix(0.3827 -0.9239 0.9239 0.3827 -61.9465 97.0506)" class="st0" cx="41.7" cy="94.9" rx="9" ry="9"/>
	<circle class="st0" cx="62.3" cy="108.8" r="9"/>
	<ellipse transform="matrix(0.9732 -0.2298 0.2298 0.9732 -7.4406 35.7754)" class="st0" cx="149.9" cy="49.8" rx="9" ry="9"/>
	<ellipse transform="matrix(0.9871 -0.1602 0.1602 0.9871 -10.0026 24.216)" class="st0" cx="145.2" cy="74.2" rx="9" ry="9"/>
	<path class="st0" d="M187.8,98.4c0.8,5.7,0.7,11.5-0.1,17.2c0.9-5.7,1.1-11.5,0.5-17.3c-0.3-2.9-0.8-5.7-1.5-8.5   c-0.7-2.8-1.6-5.6-2.7-8.2c-4.4-10.7-11.8-20.2-21.1-27.2c-0.7-0.5-1.4-1-2.1-1.5c0.3-1,0.4-2,0.4-3.1c0-6.2-5.1-11.3-11.3-11.3   c-0.2,0-0.4,0-0.6,0c-0.8-4.2-2-8.3-3.6-12.3C141.4,15.9,134.2,6.8,125.4,0c8.7,7,15.6,16.2,19.6,26.6c1.5,3.9,2.7,8,3.4,12.1   c-3.4,0.4-6.3,2.4-8.1,5.2c-3.2-0.8-6.5-1.3-9.7-1.6c-11.6-1.1-23.5,1.2-33.9,6.3c-10.5,5.2-19.4,13.3-25.6,23.1   c-1.3,2.1-2.5,4.2-3.6,6.4c-3,1-5.8,2.2-8.6,3.6c-3.2,1.6-6.2,3.5-9,5.5c-2.1-2.2-5-3.6-8.2-3.6c-2.6,0-4.9,0.9-6.8,2.3   c-3.1-4.4-5.6-9.1-7.5-14.1c-3.9-10.4-5.1-21.9-3.2-32.9c-2.1,11-1.2,22.5,2.6,33.1c1.8,5.1,4.4,10,7.5,14.5   c-2.3,2.1-3.8,5-3.8,8.4c0,3.5,1.6,6.6,4,8.6c-4.7,7.2-8,15.4-9.4,23.8c-1.6,9.7-1.1,19.7,1.8,29c-4.9-17.7-1.7-37.2,8.5-52.3   c1.8,1.3,4,2,6.4,2c3.3,0,6.2-1.4,8.3-3.6c0.7,0.5,1.5,1,2.2,1.5c-0.7,1.5-1.1,3.1-1.1,4.8c0,6.2,5.1,11.3,11.3,11.3   c0.2,0,0.4,0,0.5,0c1.4,6.3,3.8,12.3,7.1,17.8c5.9,10,14.5,18.3,24.7,23.7c-10.1-5.6-18.5-14.1-24.1-24c-3.1-5.5-5.4-11.4-6.8-17.6   c4.2-0.5,7.7-3.5,9.1-7.4c0.8,0.2,1.6,0.3,2.3,0.5c0,0.1,0,0.2,0,0.4c0,6.2,5.1,11.3,11.3,11.3c6.2,0,11.3-5.1,11.3-11.3   c0-0.1,0-0.2,0-0.3c0.9-0.2,1.9-0.4,2.8-0.5c1.5,4.4,5.7,7.5,10.6,7.5c6.2,0,11.3-5.1,11.3-11.3c0-1.8-0.4-3.5-1.2-5   c0.7-0.4,1.3-0.9,2-1.3c2.1,2.2,5,3.6,8.2,3.6c3,0,5.8-1.2,7.8-3.1c5,7.1,8.6,15.3,10.3,23.9c1,4.8,1.4,9.6,1.2,14.5   c-0.1,4.9-0.8,9.7-2.1,14.4c2.8-9.4,3.2-19.4,1.5-29.1c-0.8-4.8-2.3-9.5-4.3-14c-1.6-3.7-3.6-7.2-5.9-10.6c1.7-2,2.8-4.5,2.8-7.4   c0-3.3-1.4-6.2-3.7-8.3c0.5-0.7,1-1.5,1.5-2.2c1.4,0.6,3,1,4.6,1c6.2,0,11.3-5.1,11.3-11.3c0-4.9-3.1-9-7.4-10.6   c0.2-0.8,0.3-1.6,0.4-2.4c0.1,0,0.3,0,0.4,0c4.8,0,8.8-3,10.5-7.1c0.6,0.4,1.3,0.9,1.9,1.3c9.2,6.7,16.6,16,21.1,26.5   c1.1,2.6,2,5.4,2.8,8.1C186.9,92.8,187.5,95.6,187.8,98.4z M49.4,102.1c-1.9,2-4.7,3.3-7.7,3.3c-2.2,0-4.3-0.7-6-1.9   c-0.3-0.2-0.6-0.4-0.8-0.6c-2.3-1.9-3.7-4.8-3.7-8c0-3.1,1.3-5.9,3.5-7.8c0.2-0.2,0.5-0.4,0.7-0.6c1.8-1.4,4-2.2,6.4-2.2   c3,0,5.7,1.3,7.7,3.3c0.3,0.3,0.5,0.6,0.8,0.9c1.3,1.8,2.1,4,2.1,6.3c0,2.4-0.8,4.6-2.1,6.3C49.9,101.5,49.6,101.8,49.4,102.1z    M50.7,101.6c1.4-1.9,2.3-4.2,2.3-6.7s-0.8-4.8-2.2-6.7c2.8-2,5.7-3.8,8.8-5.4c2.4-1.2,4.8-2.2,7.3-3.1c-2.5,5.7-4.3,11.7-5,17.9   c-3.8,0.2-7.1,2.3-9,5.4C52,102.5,51.3,102.1,50.7,101.6z M72.6,111.3c-0.1,0.4-0.2,0.8-0.4,1.2c-1.3,3.6-4.6,6.3-8.6,6.8   c-0.3,0-0.6,0.1-0.9,0.1c-0.1,0-0.2,0-0.4,0c-5.8,0-10.6-4.7-10.6-10.6c0-1.6,0.3-3.1,1-4.4c0.2-0.4,0.3-0.7,0.6-1.1   c1.7-2.8,4.8-4.8,8.3-5c0.2,0,0.5,0,0.7,0c0.1,0,0.3,0,0.5,0c5.6,0.2,10.1,4.9,10.1,10.5C72.9,109.7,72.8,110.5,72.6,111.3z    M86.5,124c-5.8,0-10.6-4.7-10.6-10.6c0-0.1,0-0.2,0-0.2c0-0.4,0.1-0.9,0.1-1.3c0.7-5.1,5.1-9,10.4-9c5.3,0,9.7,3.9,10.4,9   c0.1,0.5,0.1,0.9,0.1,1.4c0,0.1,0,0.1,0,0.2C97.1,119.3,92.4,124,86.5,124z M121.8,108.8c0,5.8-4.7,10.6-10.6,10.6   c-4.6,0-8.5-2.9-9.9-7c-0.2-0.4-0.3-0.9-0.4-1.3c-0.2-0.7-0.2-1.5-0.2-2.3c0-5.8,4.7-10.6,10.6-10.6c3.7,0,7,1.9,8.8,4.8   c0.2,0.4,0.5,0.8,0.7,1.2C121.4,105.6,121.8,107.2,121.8,108.8z M120.6,102.7c-2-3.1-5.5-5.1-9.4-5.1c-6.2,0-11.3,5.1-11.3,11.3   c0,0.8,0.1,1.6,0.3,2.4c-0.8,0.2-1.7,0.4-2.5,0.5c-0.8-5.4-5.5-9.6-11.1-9.6c-5.7,0-10.3,4.2-11.1,9.6c-0.7-0.1-1.4-0.2-2.1-0.4   c0.2-0.8,0.3-1.7,0.3-2.6c0-6-4.8-11-10.7-11.2c0.9-6.4,2.7-12.6,5.5-18.4c6.1-2,12.6-3,19-3c9.6,0,19.3,2.1,28,6.4   c2.7,1.3,5.4,2.9,7.9,4.6c-1.9,2-3,4.7-3,7.7c0,2.5,0.8,4.8,2.2,6.6C121.8,101.9,121.2,102.3,120.6,102.7z M142.1,94.9   c0,2.6-0.9,4.9-2.5,6.8c-0.2,0.3-0.5,0.6-0.7,0.8c-1.9,1.8-4.5,3-7.4,3c-3,0-5.7-1.3-7.7-3.3c-0.3-0.3-0.6-0.7-0.9-1   c-1.3-1.7-2-3.9-2-6.2c0-2.8,1.1-5.4,2.9-7.3c0.3-0.3,0.6-0.6,0.9-0.9c1.8-1.5,4.2-2.4,6.7-2.4c2.3,0,4.5,0.8,6.2,2   c0.3,0.2,0.7,0.5,1,0.8C140.8,89.1,142.1,91.8,142.1,94.9z M138.1,85.8c-1.9-1.4-4.1-2.2-6.6-2.2c-2.8,0-5.4,1-7.3,2.7   c-2.6-1.8-5.4-3.5-8.2-4.9c-8.8-4.4-18.7-6.7-28.6-6.6c-6.2,0-12.3,1-18.2,2.7c0.9-1.8,1.9-3.5,3-5.2c6.1-9.6,14.9-17.5,25.2-22.5   c10.2-5.1,21.8-7.3,33.2-6.3c3.1,0.3,6.2,0.8,9.2,1.5c-0.7,1.5-1.1,3.1-1.1,4.9c0,5.7,4.3,10.4,9.8,11.2c-0.1,0.7-0.3,1.4-0.4,2.1   c-0.9-0.2-1.8-0.4-2.8-0.4c-6.2,0-11.3,5.1-11.3,11.3c0,4.1,2.2,7.7,5.5,9.7C139,84.4,138.6,85.1,138.1,85.8z M155.8,74.1   c0,5.8-4.7,10.6-10.6,10.6c-1.5,0-2.9-0.3-4.2-0.9c-0.4-0.2-0.8-0.4-1.1-0.6c-3.1-1.8-5.2-5.2-5.2-9.1c0-5.8,4.7-10.6,10.6-10.6   c0.9,0,1.8,0.1,2.6,0.3c0.4,0.1,0.7,0.2,1.1,0.3C152.9,65.7,155.8,69.5,155.8,74.1z M160.1,52.5c-0.1,0.4-0.2,0.8-0.4,1.1   c-1.5,4-5.4,6.8-9.9,6.8c-0.1,0-0.2,0-0.3,0c-0.4,0-0.7,0-1.1-0.1c-5.2-0.7-9.2-5.1-9.2-10.5c0-1.7,0.4-3.3,1.1-4.7   c0.2-0.4,0.4-0.8,0.6-1.1c1.7-2.5,4.3-4.2,7.5-4.7c0.3,0,0.6-0.1,0.9-0.1c0.2,0,0.3,0,0.5,0c5.8,0,10.6,4.7,10.6,10.6   C160.5,50.8,160.4,51.7,160.1,52.5z"/>
	<circle class="st0" cx="131.5" cy="94.8" r="9"/>
	<path class="st0" d="M86.5,104.4c-4.9,0-9,4-9,9s4,9,9,9s9-4,9-9S91.5,104.4,86.5,104.4z"/>
	<path class="st0" d="M111.2,99.7c-4.9,0-9,4-9,9s4,9,9,9s9-4,9-9S116.1,99.7,111.2,99.7z"/>
	<path class="st0" d="M18.6,188c0,0.1,0.1,0.2,0.1,0.3c0,0.1,0.1,0.2,0.1,0.3c0,0.3-0.3,0.5-0.8,0.8c-0.5,0.2-1.1,0.5-1.8,0.7   c-0.7,0.2-1.4,0.4-2.1,0.5c-0.7,0.1-1.2,0.2-1.5,0.2c-0.7,0-1.5-0.1-2.3-0.3c-0.8-0.2-1.6-0.5-2.2-0.8c-0.7-0.4-1.2-0.9-1.7-1.6   c-0.4-0.7-0.6-1.4-0.6-2.4c0-0.9,0.2-1.7,0.6-2.4c0.4-0.6,1-1.2,1.7-1.6c0.7-0.4,1.4-0.7,2.2-0.8c0.8-0.2,1.6-0.3,2.3-0.3   c0.8,0,1.5,0.1,2.2,0.2c0.7,0.1,1.3,0.2,1.9,0.4c0.6,0.2,1,0.3,1.3,0.5c0.3,0.2,0.5,0.4,0.5,0.6c0,0.1,0,0.2,0,0.3   c0,0.1,0,0.2-0.1,0.2l0.4,0.3l3.3-6.1l-0.4-0.1c-0.1,0.2-0.3,0.3-0.6,0.3c-0.2,0-0.5-0.1-0.9-0.2c-0.4-0.1-0.9-0.3-1.7-0.5   c-0.7-0.2-1.6-0.4-2.7-0.5c-1.1-0.2-2.3-0.2-3.8-0.2c-1.5,0-2.9,0.2-4.4,0.6c-1.4,0.4-2.7,1-3.9,1.9c-1.2,0.8-2.1,1.9-2.8,3.1   c-0.7,1.2-1.1,2.7-1.1,4.3c0,1.6,0.4,3.1,1.1,4.3c0.7,1.2,1.6,2.3,2.8,3.1c1.2,0.8,2.5,1.4,3.9,1.8c1.4,0.4,2.9,0.6,4.4,0.6   c1.4,0,2.6-0.1,3.7-0.3c1.1-0.2,2.1-0.4,2.9-0.6c0.8-0.2,1.5-0.5,2-0.7c0.5-0.2,0.9-0.3,1-0.3c0.1,0,0.2,0,0.3,0.1   c0.1,0,0.2,0.1,0.2,0.2l0.4-0.3l-3.8-5.8L18.6,188z"/>
	<path class="st0" d="M47.1,190.5c-0.1,0.1-0.2,0.2-0.4,0.2H34V177c0-0.2,0.1-0.3,0.2-0.4c0.1-0.1,0.4-0.2,0.9-0.2v-0.4h-7.6v0.4   c0.5,0,0.8,0.1,0.9,0.2c0.1,0.1,0.2,0.3,0.2,0.4v17.2c0,0.2-0.1,0.3-0.2,0.4c-0.1,0.1-0.4,0.2-0.9,0.2v0.4h19.2   c0.2,0,0.3,0,0.4,0.1c0.1,0.1,0.2,0.3,0.2,0.7h0.4v-6.4h-0.4C47.3,190.1,47.2,190.4,47.1,190.5z"/>
	<path class="st0" d="M73.1,193.7c-0.4-0.9-0.8-2-1.3-3.2c-0.5-1.2-1-2.4-1.5-3.6c-0.5-1.2-1-2.5-1.5-3.6c-0.5-1.2-0.9-2.3-1.3-3.2   c-0.4-0.9-0.7-1.7-0.9-2.3c-0.2-0.6-0.3-0.9-0.3-1c0-0.2,0.1-0.3,0.2-0.4c0.1,0,0.3-0.1,0.5-0.1v-0.4h-9.6v0.4   c0.2,0,0.3,0.1,0.5,0.1c0.2,0,0.2,0.1,0.2,0.3c0,0-0.1,0.3-0.3,0.8c-0.2,0.5-0.4,1.1-0.7,1.9c-0.3,0.8-0.6,1.7-1,2.7   c-0.4,1-0.8,2-1.2,3.1c-0.4,1-0.8,2.1-1.2,3.1c-0.4,1-0.7,1.9-1.1,2.7c-0.3,0.8-0.6,1.5-0.8,2c-0.2,0.5-0.3,0.9-0.4,1   c-0.1,0.3-0.2,0.5-0.4,0.6c-0.1,0.1-0.3,0.2-0.6,0.2v0.4H57v-0.4c-0.3,0-0.4,0-0.5-0.1c-0.1-0.1-0.1-0.2-0.1-0.3c0,0,0-0.1,0.1-0.2   c0-0.1,0.1-0.3,0.2-0.5c0.1-0.2,0.2-0.6,0.3-1c0.1-0.4,0.3-1,0.6-1.6h8.7c0,0.1,0.1,0.4,0.2,0.7c0.1,0.3,0.3,0.7,0.4,1.1   c0.1,0.4,0.3,0.7,0.4,1c0.1,0.3,0.2,0.5,0.2,0.5c0,0.3-0.2,0.4-0.7,0.4v0.4h7.3v-0.4c-0.2,0-0.4-0.1-0.5-0.2   C73.4,194.4,73.2,194.1,73.1,193.7z M58.5,188.1l3.3-8.8l3.6,8.8H58.5z"/>
	<path class="st0" d="M98.9,194.1l-4.3-6.1c1.5-0.4,2.8-1.1,3.8-2.1c1-1,1.5-2.3,1.5-4c0-2.1-0.6-3.6-1.8-4.6   c-1.2-1-3.2-1.5-5.9-1.5H78.6v0.4c0.5,0,0.8,0.1,0.9,0.2c0.1,0.1,0.2,0.3,0.2,0.4v17.2c0,0.2-0.1,0.3-0.2,0.4   c-0.1,0.1-0.4,0.2-0.9,0.2v0.4h7.6v-0.4c-0.5,0-0.8-0.1-0.9-0.2c-0.1-0.1-0.2-0.3-0.2-0.4v-6.2h3.6c0.1,0.1,0.2,0.4,0.5,0.7   c0.2,0.3,0.5,0.7,0.9,1.2c0.3,0.4,0.7,0.9,1,1.4c0.4,0.5,0.7,0.9,1,1.3c0.3,0.4,0.5,0.8,0.7,1.1c0.2,0.3,0.3,0.5,0.3,0.5   c0,0.4-0.3,0.6-0.8,0.7v0.4h7.7v-0.4C99.5,194.8,99.2,194.6,98.9,194.1z M93.5,183.4c-0.4,0.4-1.1,0.6-2.2,0.6h-6.2v-4h6.2   c1.1,0,1.8,0.2,2.2,0.6c0.4,0.4,0.6,0.9,0.6,1.4C94.1,182.5,93.9,183,93.5,183.4z"/>
	<path class="st0" d="M105.6,176.3c0.5,0,0.8,0.1,0.9,0.2c0.1,0.1,0.2,0.3,0.2,0.4v17.2c0,0.2-0.1,0.3-0.2,0.4   c-0.1,0.1-0.4,0.2-0.9,0.2v0.4h7.6v-0.4c-0.5,0-0.8-0.1-0.9-0.2c-0.1-0.1-0.2-0.3-0.2-0.4V177c0-0.2,0.1-0.3,0.2-0.4   c0.1-0.1,0.4-0.2,0.9-0.2v-0.4h-7.6V176.3z"/>
	<path class="st0" d="M135.5,176.3c0.5,0,0.8,0.2,0.8,0.7v9.8c-0.4-0.5-1-1-1.6-1.7c-0.6-0.6-1.3-1.3-1.9-2.1   c-0.7-0.7-1.3-1.4-2-2.2c-0.7-0.7-1.2-1.4-1.7-2c-0.5-0.6-0.9-1.1-1.3-1.5c-0.3-0.4-0.5-0.6-0.5-0.7c0-0.1,0.1-0.2,0.2-0.3   c0.1-0.1,0.4-0.1,0.8-0.2v-0.4h-8.9v0.4c0.5,0,0.8,0.1,0.9,0.2c0.1,0.1,0.2,0.3,0.2,0.4v17.2c0,0.2-0.1,0.3-0.2,0.4   c-0.1,0.1-0.4,0.2-0.9,0.2v0.4h7v-0.4c-0.5,0-0.8-0.1-0.9-0.2c-0.1-0.1-0.2-0.3-0.2-0.4v-11.6c1.6,1.8,3,3.4,4.2,4.6   c1.2,1.3,2.1,2.3,2.9,3.2c0.8,0.8,1.4,1.5,1.9,2c0.5,0.5,0.8,0.9,1.1,1.2c0.2,0.3,0.4,0.5,0.5,0.6c0.1,0.1,0.1,0.2,0.1,0.3   c0,0.1-0.1,0.2-0.2,0.3c-0.1,0.1-0.3,0.1-0.7,0.1v0.4h7v-0.4c-0.5,0-0.8-0.1-0.9-0.2c-0.1-0.1-0.2-0.3-0.2-0.4V177   c0-0.2,0.1-0.3,0.2-0.4c0.1-0.1,0.4-0.2,0.9-0.2v-0.4h-6.7V176.3z"/>
	<path class="st0" d="M150.8,189.6c-0.8,0-1.5,0.3-2,0.9c-0.6,0.6-0.9,1.3-0.9,2c0,0.8,0.3,1.4,0.9,2c0.6,0.5,1.3,0.8,2,0.8   c0.8,0,1.5-0.3,2-0.8c0.6-0.5,0.9-1.2,0.9-2c0-0.8-0.3-1.5-0.9-2C152.2,189.9,151.6,189.6,150.8,189.6z"/>
	<path class="st0" d="M176.8,184.5c-0.7-0.4-1.5-0.8-2.4-1c-0.9-0.2-1.8-0.4-2.8-0.5c-1-0.1-1.9-0.2-2.8-0.3   c-0.9-0.1-1.7-0.1-2.4-0.2c-0.7-0.1-1.3-0.3-1.7-0.5c-0.4-0.2-0.7-0.5-0.7-0.9c0-0.4,0.3-0.8,1-1.2c0.6-0.4,1.8-0.6,3.4-0.6   c0.9,0,1.7,0.1,2.7,0.2c0.9,0.1,1.7,0.3,2.5,0.5c0.7,0.2,1.3,0.4,1.8,0.6c0.5,0.2,0.7,0.5,0.7,0.7v0.4l0.4,0.2l2.5-5.1l-0.4-0.1   c-0.1,0.1-0.3,0.3-0.4,0.4c-0.1,0.1-0.3,0.2-0.6,0.2c-0.2,0-0.7-0.1-1.2-0.2c-0.6-0.2-1.3-0.3-2.1-0.5c-0.8-0.2-1.8-0.4-2.9-0.5   c-1.1-0.2-2.2-0.2-3.5-0.2c-1.4,0-2.6,0.2-3.7,0.5c-1.1,0.3-2,0.7-2.8,1.3c-0.8,0.5-1.4,1.2-1.8,2c-0.4,0.8-0.6,1.6-0.6,2.5   c0,1.2,0.4,2.1,1.1,2.8c0.7,0.7,1.7,1.2,2.8,1.5c1.1,0.4,2.3,0.6,3.6,0.7c1.3,0.1,2.5,0.3,3.6,0.4c1.1,0.1,2.1,0.3,2.8,0.4   c0.7,0.2,1.1,0.5,1.1,0.9c0,0.8-0.4,1.4-1.3,1.9c-0.9,0.4-2.2,0.6-4.1,0.6c-1,0-1.9-0.1-2.8-0.3c-0.9-0.2-1.8-0.4-2.5-0.7   c-0.7-0.3-1.3-0.6-1.8-0.9c-0.5-0.3-0.7-0.6-0.7-0.8c0-0.4,0-0.6,0.1-0.8l-0.4-0.2l-2.7,6.6l0.4,0.1c0.1-0.1,0.2-0.2,0.3-0.3   c0.1-0.1,0.2-0.1,0.4-0.1c0.2,0,0.6,0.1,1,0.3c0.5,0.2,1.1,0.4,1.9,0.6c0.8,0.2,1.7,0.4,2.9,0.5c1.1,0.1,2.4,0.2,4,0.2   c2,0,3.7-0.2,5-0.6c1.3-0.4,2.4-0.9,3.2-1.5c0.8-0.6,1.4-1.3,1.7-2.1c0.3-0.8,0.5-1.6,0.5-2.4c0-1.1-0.2-1.9-0.7-2.6   C178.1,185.5,177.5,184.9,176.8,184.5z"/>
	<path class="st0" d="M191,176.5c0.1-0.1,0.4-0.2,0.9-0.2v-0.4h-7.6v0.4c0.5,0,0.8,0.1,0.9,0.2c0.1,0.1,0.2,0.3,0.2,0.4v17.2   c0,0.2-0.1,0.3-0.2,0.4c-0.1,0.1-0.4,0.2-0.9,0.2v0.4h7.6v-0.4c-0.5,0-0.8-0.1-0.9-0.2c-0.1-0.1-0.2-0.3-0.2-0.4V177   C190.9,176.8,190.9,176.7,191,176.5z"/>
</g>
</svg>